%TF.GenerationSoftware,KiCad,Pcbnew,10.0.3*%
%TF.CreationDate,2026-06-10T17:59:36-04:00*%
%TF.ProjectId,Microphone board,4d696372-6f70-4686-9f6e-6520626f6172,rev?*%
%TF.SameCoordinates,Original*%
%TF.FileFunction,Legend,Top*%
%TF.FilePolarity,Positive*%
%FSLAX46Y46*%
G04 Gerber Fmt 4.6, Leading zero omitted, Abs format (unit mm)*
G04 Created by KiCad (PCBNEW 10.0.3) date 2026-06-10 17:59:36*
%MOMM*%
%LPD*%
G01*
G04 APERTURE LIST*
G04 Aperture macros list*
%AMRoundRect*
0 Rectangle with rounded corners*
0 $1 Rounding radius*
0 $2 $3 $4 $5 $6 $7 $8 $9 X,Y pos of 4 corners*
0 Add a 4 corners polygon primitive as box body*
4,1,4,$2,$3,$4,$5,$6,$7,$8,$9,$2,$3,0*
0 Add four circle primitives for the rounded corners*
1,1,$1+$1,$2,$3*
1,1,$1+$1,$4,$5*
1,1,$1+$1,$6,$7*
1,1,$1+$1,$8,$9*
0 Add four rect primitives between the rounded corners*
20,1,$1+$1,$2,$3,$4,$5,0*
20,1,$1+$1,$4,$5,$6,$7,0*
20,1,$1+$1,$6,$7,$8,$9,0*
20,1,$1+$1,$8,$9,$2,$3,0*%
%AMFreePoly0*
4,1,32,0.305191,0.347130,0.291393,0.273315,0.270843,0.201089,0.243716,0.131066,0.210244,0.063846,0.170713,0.000000,0.125459,-0.059925,0.074869,-0.115420,0.019374,-0.166010,-0.040551,-0.211264,-0.104397,-0.250795,-0.171617,-0.284267,-0.241640,-0.311394,-0.313866,-0.331944,-0.387681,-0.345742,-0.450001,-0.351517,-0.450000,-0.037764,-0.416168,-0.033952,-0.361452,-0.021463,-0.308478,-0.002927,
-0.257912,0.021424,-0.210391,0.051284,-0.166512,0.086276,-0.126827,0.125961,-0.091835,0.169840,-0.061975,0.217361,-0.037624,0.267927,-0.019088,0.320901,-0.006599,0.375617,-0.002787,0.409449,0.310966,0.409449,0.305191,0.347130,0.305191,0.347130,$1*%
%AMFreePoly1*
4,1,21,-0.125000,1.200000,0.125000,1.200000,0.125000,1.700000,0.375000,1.700000,0.375000,1.200000,0.825000,1.200000,0.825000,-1.200000,0.375000,-1.200000,0.375000,-1.700000,0.125000,-1.700000,0.125000,-1.200000,-0.125000,-1.200000,-0.125000,-1.700000,-0.375000,-1.700000,-0.375000,-1.200000,-0.825000,-1.200000,-0.825000,1.200000,-0.375000,1.200000,-0.375000,1.700000,-0.125000,1.700000,
-0.125000,1.200000,-0.125000,1.200000,$1*%
G04 Aperture macros list end*
%ADD10C,0.125000*%
%ADD11C,0.100000*%
%ADD12C,0.625000*%
%ADD13C,0.150000*%
%ADD14C,0.120000*%
%ADD15C,0.250000*%
%ADD16C,0.127000*%
%ADD17C,0.152400*%
%ADD18C,0.000000*%
%ADD19RoundRect,0.135000X-0.135000X-0.185000X0.135000X-0.185000X0.135000X0.185000X-0.135000X0.185000X0*%
%ADD20RoundRect,0.239000X0.239000X0.274000X-0.239000X0.274000X-0.239000X-0.274000X0.239000X-0.274000X0*%
%ADD21R,0.300000X1.300000*%
%ADD22R,1.800000X2.200000*%
%ADD23RoundRect,0.225000X-0.250000X0.225000X-0.250000X-0.225000X0.250000X-0.225000X0.250000X0.225000X0*%
%ADD24RoundRect,0.225000X0.250000X-0.225000X0.250000X0.225000X-0.250000X0.225000X-0.250000X-0.225000X0*%
%ADD25RoundRect,0.135000X0.135000X0.185000X-0.135000X0.185000X-0.135000X-0.185000X0.135000X-0.185000X0*%
%ADD26RoundRect,0.135000X0.185000X-0.135000X0.185000X0.135000X-0.185000X0.135000X-0.185000X-0.135000X0*%
%ADD27C,5.600000*%
%ADD28C,0.500000*%
%ADD29R,0.725000X0.522000*%
%ADD30FreePoly0,180.000000*%
%ADD31FreePoly0,270.000000*%
%ADD32FreePoly0,90.000000*%
%ADD33FreePoly0,0.000000*%
%ADD34RoundRect,0.140000X-0.170000X0.140000X-0.170000X-0.140000X0.170000X-0.140000X0.170000X0.140000X0*%
%ADD35RoundRect,0.062500X-0.062500X0.350000X-0.062500X-0.350000X0.062500X-0.350000X0.062500X0.350000X0*%
%ADD36R,2.350000X1.580000*%
%ADD37RoundRect,0.135000X-0.185000X0.135000X-0.185000X-0.135000X0.185000X-0.135000X0.185000X0.135000X0*%
%ADD38RoundRect,0.249999X-0.450001X-1.850001X0.450001X-1.850001X0.450001X1.850001X-0.450001X1.850001X0*%
%ADD39RoundRect,0.140000X0.140000X0.170000X-0.140000X0.170000X-0.140000X-0.170000X0.140000X-0.170000X0*%
%ADD40RoundRect,0.287778X0.714222X-0.489222X0.714222X0.489222X-0.714222X0.489222X-0.714222X-0.489222X0*%
%ADD41RoundRect,0.150000X-0.150000X0.512500X-0.150000X-0.512500X0.150000X-0.512500X0.150000X0.512500X0*%
%ADD42RoundRect,0.140000X-0.140000X-0.170000X0.140000X-0.170000X0.140000X0.170000X-0.140000X0.170000X0*%
%ADD43RoundRect,0.250000X0.625000X-0.350000X0.625000X0.350000X-0.625000X0.350000X-0.625000X-0.350000X0*%
%ADD44O,1.750000X1.200000*%
%ADD45RoundRect,0.225000X-0.225000X-0.250000X0.225000X-0.250000X0.225000X0.250000X-0.225000X0.250000X0*%
%ADD46C,0.650000*%
%ADD47RoundRect,0.150000X0.575000X-0.150000X0.575000X0.150000X-0.575000X0.150000X-0.575000X-0.150000X0*%
%ADD48RoundRect,0.075000X0.650000X-0.075000X0.650000X0.075000X-0.650000X0.075000X-0.650000X-0.075000X0*%
%ADD49O,2.100000X1.000000*%
%ADD50O,1.600000X1.000000*%
%ADD51R,0.254800X0.807999*%
%ADD52R,0.807999X0.254800*%
%ADD53R,2.794000X2.794000*%
%ADD54RoundRect,0.150000X0.675000X0.150000X-0.675000X0.150000X-0.675000X-0.150000X0.675000X-0.150000X0*%
%ADD55RoundRect,0.200000X0.250000X0.200000X-0.250000X0.200000X-0.250000X-0.200000X0.250000X-0.200000X0*%
%ADD56RoundRect,0.250000X0.250000X0.475000X-0.250000X0.475000X-0.250000X-0.475000X0.250000X-0.475000X0*%
%ADD57RoundRect,0.150000X0.512500X0.150000X-0.512500X0.150000X-0.512500X-0.150000X0.512500X-0.150000X0*%
%ADD58RoundRect,0.250000X1.325000X1.325000X-1.325000X1.325000X-1.325000X-1.325000X1.325000X-1.325000X0*%
%ADD59C,3.150000*%
%ADD60RoundRect,0.225000X0.225000X0.250000X-0.225000X0.250000X-0.225000X-0.250000X0.225000X-0.250000X0*%
%ADD61RoundRect,0.140000X0.170000X-0.140000X0.170000X0.140000X-0.170000X0.140000X-0.170000X-0.140000X0*%
%ADD62RoundRect,0.250000X-0.250000X-0.475000X0.250000X-0.475000X0.250000X0.475000X-0.250000X0.475000X0*%
%ADD63RoundRect,0.110000X1.590000X-0.440000X1.590000X0.440000X-1.590000X0.440000X-1.590000X-0.440000X0*%
%ADD64RoundRect,0.150000X-0.512500X-0.150000X0.512500X-0.150000X0.512500X0.150000X-0.512500X0.150000X0*%
%ADD65RoundRect,0.250000X-0.350000X-0.625000X0.350000X-0.625000X0.350000X0.625000X-0.350000X0.625000X0*%
%ADD66O,1.200000X1.750000*%
%ADD67R,1.050000X0.950000*%
%ADD68RoundRect,0.050000X-0.100000X0.285000X-0.100000X-0.285000X0.100000X-0.285000X0.100000X0.285000X0*%
%ADD69RoundRect,0.050000X0.200000X-0.050000X0.200000X0.050000X-0.200000X0.050000X-0.200000X-0.050000X0*%
%ADD70RoundRect,0.100000X-0.100000X-0.900000X0.100000X-0.900000X0.100000X0.900000X-0.100000X0.900000X0*%
%ADD71RoundRect,0.060000X-0.240000X-0.060000X0.240000X-0.060000X0.240000X0.060000X-0.240000X0.060000X0*%
%ADD72FreePoly1,0.000000*%
%ADD73C,1.000000*%
%ADD74R,1.600000X0.700000*%
%ADD75R,1.500000X1.200000*%
%ADD76R,2.200000X1.200000*%
%ADD77R,1.500000X1.600000*%
%ADD78RoundRect,0.287778X-0.714222X0.489222X-0.714222X-0.489222X0.714222X-0.489222X0.714222X0.489222X0*%
%ADD79C,0.390000*%
%ADD80R,0.740000X2.400000*%
%ADD81RoundRect,0.110000X-1.590000X0.440000X-1.590000X-0.440000X1.590000X-0.440000X1.590000X0.440000X0*%
G04 APERTURE END LIST*
D10*
X127975093Y-129206119D02*
X128594140Y-129206119D01*
X128594140Y-129206119D02*
X128260807Y-129587071D01*
X128260807Y-129587071D02*
X128403664Y-129587071D01*
X128403664Y-129587071D02*
X128498902Y-129634690D01*
X128498902Y-129634690D02*
X128546521Y-129682309D01*
X128546521Y-129682309D02*
X128594140Y-129777547D01*
X128594140Y-129777547D02*
X128594140Y-130015642D01*
X128594140Y-130015642D02*
X128546521Y-130110880D01*
X128546521Y-130110880D02*
X128498902Y-130158500D01*
X128498902Y-130158500D02*
X128403664Y-130206119D01*
X128403664Y-130206119D02*
X128117950Y-130206119D01*
X128117950Y-130206119D02*
X128022712Y-130158500D01*
X128022712Y-130158500D02*
X127975093Y-130110880D01*
X128879855Y-129206119D02*
X129213188Y-130206119D01*
X129213188Y-130206119D02*
X129546521Y-129206119D01*
X129784617Y-129206119D02*
X130403664Y-129206119D01*
X130403664Y-129206119D02*
X130070331Y-129587071D01*
X130070331Y-129587071D02*
X130213188Y-129587071D01*
X130213188Y-129587071D02*
X130308426Y-129634690D01*
X130308426Y-129634690D02*
X130356045Y-129682309D01*
X130356045Y-129682309D02*
X130403664Y-129777547D01*
X130403664Y-129777547D02*
X130403664Y-130015642D01*
X130403664Y-130015642D02*
X130356045Y-130110880D01*
X130356045Y-130110880D02*
X130308426Y-130158500D01*
X130308426Y-130158500D02*
X130213188Y-130206119D01*
X130213188Y-130206119D02*
X129927474Y-130206119D01*
X129927474Y-130206119D02*
X129832236Y-130158500D01*
X129832236Y-130158500D02*
X129784617Y-130110880D01*
X128546521Y-127706119D02*
X128070331Y-127706119D01*
X128070331Y-127706119D02*
X128022712Y-128182309D01*
X128022712Y-128182309D02*
X128070331Y-128134690D01*
X128070331Y-128134690D02*
X128165569Y-128087071D01*
X128165569Y-128087071D02*
X128403664Y-128087071D01*
X128403664Y-128087071D02*
X128498902Y-128134690D01*
X128498902Y-128134690D02*
X128546521Y-128182309D01*
X128546521Y-128182309D02*
X128594140Y-128277547D01*
X128594140Y-128277547D02*
X128594140Y-128515642D01*
X128594140Y-128515642D02*
X128546521Y-128610880D01*
X128546521Y-128610880D02*
X128498902Y-128658500D01*
X128498902Y-128658500D02*
X128403664Y-128706119D01*
X128403664Y-128706119D02*
X128165569Y-128706119D01*
X128165569Y-128706119D02*
X128070331Y-128658500D01*
X128070331Y-128658500D02*
X128022712Y-128610880D01*
X128879855Y-127706119D02*
X129213188Y-128706119D01*
X129213188Y-128706119D02*
X129546521Y-127706119D01*
X143653664Y-80347309D02*
X143796521Y-80394928D01*
X143796521Y-80394928D02*
X143844140Y-80442547D01*
X143844140Y-80442547D02*
X143891759Y-80537785D01*
X143891759Y-80537785D02*
X143891759Y-80680642D01*
X143891759Y-80680642D02*
X143844140Y-80775880D01*
X143844140Y-80775880D02*
X143796521Y-80823500D01*
X143796521Y-80823500D02*
X143701283Y-80871119D01*
X143701283Y-80871119D02*
X143320331Y-80871119D01*
X143320331Y-80871119D02*
X143320331Y-79871119D01*
X143320331Y-79871119D02*
X143653664Y-79871119D01*
X143653664Y-79871119D02*
X143748902Y-79918738D01*
X143748902Y-79918738D02*
X143796521Y-79966357D01*
X143796521Y-79966357D02*
X143844140Y-80061595D01*
X143844140Y-80061595D02*
X143844140Y-80156833D01*
X143844140Y-80156833D02*
X143796521Y-80252071D01*
X143796521Y-80252071D02*
X143748902Y-80299690D01*
X143748902Y-80299690D02*
X143653664Y-80347309D01*
X143653664Y-80347309D02*
X143320331Y-80347309D01*
X144510807Y-79871119D02*
X144701283Y-79871119D01*
X144701283Y-79871119D02*
X144796521Y-79918738D01*
X144796521Y-79918738D02*
X144891759Y-80013976D01*
X144891759Y-80013976D02*
X144939378Y-80204452D01*
X144939378Y-80204452D02*
X144939378Y-80537785D01*
X144939378Y-80537785D02*
X144891759Y-80728261D01*
X144891759Y-80728261D02*
X144796521Y-80823500D01*
X144796521Y-80823500D02*
X144701283Y-80871119D01*
X144701283Y-80871119D02*
X144510807Y-80871119D01*
X144510807Y-80871119D02*
X144415569Y-80823500D01*
X144415569Y-80823500D02*
X144320331Y-80728261D01*
X144320331Y-80728261D02*
X144272712Y-80537785D01*
X144272712Y-80537785D02*
X144272712Y-80204452D01*
X144272712Y-80204452D02*
X144320331Y-80013976D01*
X144320331Y-80013976D02*
X144415569Y-79918738D01*
X144415569Y-79918738D02*
X144510807Y-79871119D01*
X145558426Y-79871119D02*
X145748902Y-79871119D01*
X145748902Y-79871119D02*
X145844140Y-79918738D01*
X145844140Y-79918738D02*
X145939378Y-80013976D01*
X145939378Y-80013976D02*
X145986997Y-80204452D01*
X145986997Y-80204452D02*
X145986997Y-80537785D01*
X145986997Y-80537785D02*
X145939378Y-80728261D01*
X145939378Y-80728261D02*
X145844140Y-80823500D01*
X145844140Y-80823500D02*
X145748902Y-80871119D01*
X145748902Y-80871119D02*
X145558426Y-80871119D01*
X145558426Y-80871119D02*
X145463188Y-80823500D01*
X145463188Y-80823500D02*
X145367950Y-80728261D01*
X145367950Y-80728261D02*
X145320331Y-80537785D01*
X145320331Y-80537785D02*
X145320331Y-80204452D01*
X145320331Y-80204452D02*
X145367950Y-80013976D01*
X145367950Y-80013976D02*
X145463188Y-79918738D01*
X145463188Y-79918738D02*
X145558426Y-79871119D01*
X146272712Y-79871119D02*
X146844140Y-79871119D01*
X146558426Y-80871119D02*
X146558426Y-79871119D01*
X151891759Y-76871119D02*
X151558426Y-76394928D01*
X151320331Y-76871119D02*
X151320331Y-75871119D01*
X151320331Y-75871119D02*
X151701283Y-75871119D01*
X151701283Y-75871119D02*
X151796521Y-75918738D01*
X151796521Y-75918738D02*
X151844140Y-75966357D01*
X151844140Y-75966357D02*
X151891759Y-76061595D01*
X151891759Y-76061595D02*
X151891759Y-76204452D01*
X151891759Y-76204452D02*
X151844140Y-76299690D01*
X151844140Y-76299690D02*
X151796521Y-76347309D01*
X151796521Y-76347309D02*
X151701283Y-76394928D01*
X151701283Y-76394928D02*
X151320331Y-76394928D01*
X152272712Y-76823500D02*
X152415569Y-76871119D01*
X152415569Y-76871119D02*
X152653664Y-76871119D01*
X152653664Y-76871119D02*
X152748902Y-76823500D01*
X152748902Y-76823500D02*
X152796521Y-76775880D01*
X152796521Y-76775880D02*
X152844140Y-76680642D01*
X152844140Y-76680642D02*
X152844140Y-76585404D01*
X152844140Y-76585404D02*
X152796521Y-76490166D01*
X152796521Y-76490166D02*
X152748902Y-76442547D01*
X152748902Y-76442547D02*
X152653664Y-76394928D01*
X152653664Y-76394928D02*
X152463188Y-76347309D01*
X152463188Y-76347309D02*
X152367950Y-76299690D01*
X152367950Y-76299690D02*
X152320331Y-76252071D01*
X152320331Y-76252071D02*
X152272712Y-76156833D01*
X152272712Y-76156833D02*
X152272712Y-76061595D01*
X152272712Y-76061595D02*
X152320331Y-75966357D01*
X152320331Y-75966357D02*
X152367950Y-75918738D01*
X152367950Y-75918738D02*
X152463188Y-75871119D01*
X152463188Y-75871119D02*
X152701283Y-75871119D01*
X152701283Y-75871119D02*
X152844140Y-75918738D01*
X153129855Y-75871119D02*
X153701283Y-75871119D01*
X153415569Y-76871119D02*
X153415569Y-75871119D01*
X87916667Y-125371119D02*
X88488095Y-125371119D01*
X88202381Y-126371119D02*
X88202381Y-125371119D01*
X88821429Y-126371119D02*
X88821429Y-125371119D01*
X88821429Y-125847309D02*
X89392857Y-125847309D01*
X89392857Y-126371119D02*
X89392857Y-125371119D01*
X89869048Y-125847309D02*
X90202381Y-125847309D01*
X90345238Y-126371119D02*
X89869048Y-126371119D01*
X89869048Y-126371119D02*
X89869048Y-125371119D01*
X89869048Y-125371119D02*
X90345238Y-125371119D01*
X91345238Y-126371119D02*
X91011905Y-125894928D01*
X90773810Y-126371119D02*
X90773810Y-125371119D01*
X90773810Y-125371119D02*
X91154762Y-125371119D01*
X91154762Y-125371119D02*
X91250000Y-125418738D01*
X91250000Y-125418738D02*
X91297619Y-125466357D01*
X91297619Y-125466357D02*
X91345238Y-125561595D01*
X91345238Y-125561595D02*
X91345238Y-125704452D01*
X91345238Y-125704452D02*
X91297619Y-125799690D01*
X91297619Y-125799690D02*
X91250000Y-125847309D01*
X91250000Y-125847309D02*
X91154762Y-125894928D01*
X91154762Y-125894928D02*
X90773810Y-125894928D01*
X91773810Y-126371119D02*
X91773810Y-125371119D01*
X91773810Y-125371119D02*
X92107143Y-126085404D01*
X92107143Y-126085404D02*
X92440476Y-125371119D01*
X92440476Y-125371119D02*
X92440476Y-126371119D01*
X102130952Y-132847309D02*
X102273809Y-132894928D01*
X102273809Y-132894928D02*
X102321428Y-132942547D01*
X102321428Y-132942547D02*
X102369047Y-133037785D01*
X102369047Y-133037785D02*
X102369047Y-133180642D01*
X102369047Y-133180642D02*
X102321428Y-133275880D01*
X102321428Y-133275880D02*
X102273809Y-133323500D01*
X102273809Y-133323500D02*
X102178571Y-133371119D01*
X102178571Y-133371119D02*
X101797619Y-133371119D01*
X101797619Y-133371119D02*
X101797619Y-132371119D01*
X101797619Y-132371119D02*
X102130952Y-132371119D01*
X102130952Y-132371119D02*
X102226190Y-132418738D01*
X102226190Y-132418738D02*
X102273809Y-132466357D01*
X102273809Y-132466357D02*
X102321428Y-132561595D01*
X102321428Y-132561595D02*
X102321428Y-132656833D01*
X102321428Y-132656833D02*
X102273809Y-132752071D01*
X102273809Y-132752071D02*
X102226190Y-132799690D01*
X102226190Y-132799690D02*
X102130952Y-132847309D01*
X102130952Y-132847309D02*
X101797619Y-132847309D01*
X102750000Y-133085404D02*
X103226190Y-133085404D01*
X102654762Y-133371119D02*
X102988095Y-132371119D01*
X102988095Y-132371119D02*
X103321428Y-133371119D01*
X103511905Y-132371119D02*
X104083333Y-132371119D01*
X103797619Y-133371119D02*
X103797619Y-132371119D01*
X104273810Y-132371119D02*
X104845238Y-132371119D01*
X104559524Y-133371119D02*
X104559524Y-132371119D01*
X108678571Y-103525880D02*
X108630952Y-103573500D01*
X108630952Y-103573500D02*
X108488095Y-103621119D01*
X108488095Y-103621119D02*
X108392857Y-103621119D01*
X108392857Y-103621119D02*
X108250000Y-103573500D01*
X108250000Y-103573500D02*
X108154762Y-103478261D01*
X108154762Y-103478261D02*
X108107143Y-103383023D01*
X108107143Y-103383023D02*
X108059524Y-103192547D01*
X108059524Y-103192547D02*
X108059524Y-103049690D01*
X108059524Y-103049690D02*
X108107143Y-102859214D01*
X108107143Y-102859214D02*
X108154762Y-102763976D01*
X108154762Y-102763976D02*
X108250000Y-102668738D01*
X108250000Y-102668738D02*
X108392857Y-102621119D01*
X108392857Y-102621119D02*
X108488095Y-102621119D01*
X108488095Y-102621119D02*
X108630952Y-102668738D01*
X108630952Y-102668738D02*
X108678571Y-102716357D01*
X109059524Y-103335404D02*
X109535714Y-103335404D01*
X108964286Y-103621119D02*
X109297619Y-102621119D01*
X109297619Y-102621119D02*
X109630952Y-103621119D01*
X109964286Y-103621119D02*
X109964286Y-102621119D01*
X109964286Y-102621119D02*
X110297619Y-103335404D01*
X110297619Y-103335404D02*
X110630952Y-102621119D01*
X110630952Y-102621119D02*
X110630952Y-103621119D01*
X111107143Y-103097309D02*
X111440476Y-103097309D01*
X111583333Y-103621119D02*
X111107143Y-103621119D01*
X111107143Y-103621119D02*
X111107143Y-102621119D01*
X111107143Y-102621119D02*
X111583333Y-102621119D01*
X112583333Y-103621119D02*
X112250000Y-103144928D01*
X112011905Y-103621119D02*
X112011905Y-102621119D01*
X112011905Y-102621119D02*
X112392857Y-102621119D01*
X112392857Y-102621119D02*
X112488095Y-102668738D01*
X112488095Y-102668738D02*
X112535714Y-102716357D01*
X112535714Y-102716357D02*
X112583333Y-102811595D01*
X112583333Y-102811595D02*
X112583333Y-102954452D01*
X112583333Y-102954452D02*
X112535714Y-103049690D01*
X112535714Y-103049690D02*
X112488095Y-103097309D01*
X112488095Y-103097309D02*
X112392857Y-103144928D01*
X112392857Y-103144928D02*
X112011905Y-103144928D01*
X112964286Y-103335404D02*
X113440476Y-103335404D01*
X112869048Y-103621119D02*
X113202381Y-102621119D01*
X113202381Y-102621119D02*
X113535714Y-103621119D01*
X121726191Y-133371119D02*
X122297619Y-133371119D01*
X122011905Y-134371119D02*
X122011905Y-133371119D01*
X123202381Y-134371119D02*
X122869048Y-133894928D01*
X122630953Y-134371119D02*
X122630953Y-133371119D01*
X122630953Y-133371119D02*
X123011905Y-133371119D01*
X123011905Y-133371119D02*
X123107143Y-133418738D01*
X123107143Y-133418738D02*
X123154762Y-133466357D01*
X123154762Y-133466357D02*
X123202381Y-133561595D01*
X123202381Y-133561595D02*
X123202381Y-133704452D01*
X123202381Y-133704452D02*
X123154762Y-133799690D01*
X123154762Y-133799690D02*
X123107143Y-133847309D01*
X123107143Y-133847309D02*
X123011905Y-133894928D01*
X123011905Y-133894928D02*
X122630953Y-133894928D01*
X123630953Y-134371119D02*
X123630953Y-133371119D01*
X124630952Y-133418738D02*
X124535714Y-133371119D01*
X124535714Y-133371119D02*
X124392857Y-133371119D01*
X124392857Y-133371119D02*
X124250000Y-133418738D01*
X124250000Y-133418738D02*
X124154762Y-133513976D01*
X124154762Y-133513976D02*
X124107143Y-133609214D01*
X124107143Y-133609214D02*
X124059524Y-133799690D01*
X124059524Y-133799690D02*
X124059524Y-133942547D01*
X124059524Y-133942547D02*
X124107143Y-134133023D01*
X124107143Y-134133023D02*
X124154762Y-134228261D01*
X124154762Y-134228261D02*
X124250000Y-134323500D01*
X124250000Y-134323500D02*
X124392857Y-134371119D01*
X124392857Y-134371119D02*
X124488095Y-134371119D01*
X124488095Y-134371119D02*
X124630952Y-134323500D01*
X124630952Y-134323500D02*
X124678571Y-134275880D01*
X124678571Y-134275880D02*
X124678571Y-133942547D01*
X124678571Y-133942547D02*
X124488095Y-133942547D01*
X133416667Y-134371119D02*
X133416667Y-133371119D01*
X133416667Y-133371119D02*
X133750000Y-134085404D01*
X133750000Y-134085404D02*
X134083333Y-133371119D01*
X134083333Y-133371119D02*
X134083333Y-134371119D01*
X134559524Y-133847309D02*
X134892857Y-133847309D01*
X135035714Y-134371119D02*
X134559524Y-134371119D01*
X134559524Y-134371119D02*
X134559524Y-133371119D01*
X134559524Y-133371119D02*
X135035714Y-133371119D01*
X135464286Y-134371119D02*
X135464286Y-133371119D01*
X135464286Y-133371119D02*
X136035714Y-134371119D01*
X136035714Y-134371119D02*
X136035714Y-133371119D01*
X136511905Y-133371119D02*
X136511905Y-134180642D01*
X136511905Y-134180642D02*
X136559524Y-134275880D01*
X136559524Y-134275880D02*
X136607143Y-134323500D01*
X136607143Y-134323500D02*
X136702381Y-134371119D01*
X136702381Y-134371119D02*
X136892857Y-134371119D01*
X136892857Y-134371119D02*
X136988095Y-134323500D01*
X136988095Y-134323500D02*
X137035714Y-134275880D01*
X137035714Y-134275880D02*
X137083333Y-134180642D01*
X137083333Y-134180642D02*
X137083333Y-133371119D01*
X153761905Y-125871119D02*
X153761905Y-124871119D01*
X153761905Y-124871119D02*
X154000000Y-124871119D01*
X154000000Y-124871119D02*
X154142857Y-124918738D01*
X154142857Y-124918738D02*
X154238095Y-125013976D01*
X154238095Y-125013976D02*
X154285714Y-125109214D01*
X154285714Y-125109214D02*
X154333333Y-125299690D01*
X154333333Y-125299690D02*
X154333333Y-125442547D01*
X154333333Y-125442547D02*
X154285714Y-125633023D01*
X154285714Y-125633023D02*
X154238095Y-125728261D01*
X154238095Y-125728261D02*
X154142857Y-125823500D01*
X154142857Y-125823500D02*
X154000000Y-125871119D01*
X154000000Y-125871119D02*
X153761905Y-125871119D01*
X154761905Y-125871119D02*
X154761905Y-124871119D01*
X155190476Y-125823500D02*
X155333333Y-125871119D01*
X155333333Y-125871119D02*
X155571428Y-125871119D01*
X155571428Y-125871119D02*
X155666666Y-125823500D01*
X155666666Y-125823500D02*
X155714285Y-125775880D01*
X155714285Y-125775880D02*
X155761904Y-125680642D01*
X155761904Y-125680642D02*
X155761904Y-125585404D01*
X155761904Y-125585404D02*
X155714285Y-125490166D01*
X155714285Y-125490166D02*
X155666666Y-125442547D01*
X155666666Y-125442547D02*
X155571428Y-125394928D01*
X155571428Y-125394928D02*
X155380952Y-125347309D01*
X155380952Y-125347309D02*
X155285714Y-125299690D01*
X155285714Y-125299690D02*
X155238095Y-125252071D01*
X155238095Y-125252071D02*
X155190476Y-125156833D01*
X155190476Y-125156833D02*
X155190476Y-125061595D01*
X155190476Y-125061595D02*
X155238095Y-124966357D01*
X155238095Y-124966357D02*
X155285714Y-124918738D01*
X155285714Y-124918738D02*
X155380952Y-124871119D01*
X155380952Y-124871119D02*
X155619047Y-124871119D01*
X155619047Y-124871119D02*
X155761904Y-124918738D01*
X156190476Y-125871119D02*
X156190476Y-124871119D01*
X156190476Y-124871119D02*
X156571428Y-124871119D01*
X156571428Y-124871119D02*
X156666666Y-124918738D01*
X156666666Y-124918738D02*
X156714285Y-124966357D01*
X156714285Y-124966357D02*
X156761904Y-125061595D01*
X156761904Y-125061595D02*
X156761904Y-125204452D01*
X156761904Y-125204452D02*
X156714285Y-125299690D01*
X156714285Y-125299690D02*
X156666666Y-125347309D01*
X156666666Y-125347309D02*
X156571428Y-125394928D01*
X156571428Y-125394928D02*
X156190476Y-125394928D01*
X157666666Y-125871119D02*
X157190476Y-125871119D01*
X157190476Y-125871119D02*
X157190476Y-124871119D01*
X157952381Y-125585404D02*
X158428571Y-125585404D01*
X157857143Y-125871119D02*
X158190476Y-124871119D01*
X158190476Y-124871119D02*
X158523809Y-125871119D01*
X159047619Y-125394928D02*
X159047619Y-125871119D01*
X158714286Y-124871119D02*
X159047619Y-125394928D01*
X159047619Y-125394928D02*
X159380952Y-124871119D01*
D11*
G36*
X135413899Y-54237016D02*
G01*
X135481747Y-54268979D01*
X135539009Y-54322752D01*
X135581248Y-54391244D01*
X135611694Y-54479177D01*
X135628524Y-54591297D01*
X135002846Y-54591297D01*
X135011069Y-54498862D01*
X135041061Y-54403284D01*
X135087526Y-54329469D01*
X135152180Y-54272799D01*
X135232111Y-54238189D01*
X135332013Y-54225910D01*
X135413899Y-54237016D01*
G37*
G36*
X139834263Y-55064030D02*
G01*
X139825799Y-55107280D01*
X139800664Y-55142128D01*
X139755006Y-55170642D01*
X139665389Y-55194853D01*
X139517236Y-55204836D01*
X139421610Y-55198047D01*
X139351162Y-55180061D01*
X139300104Y-55153422D01*
X139260660Y-55114117D01*
X139236421Y-55062686D01*
X139227686Y-54995153D01*
X139234518Y-54931610D01*
X139253109Y-54883968D01*
X139282274Y-54848363D01*
X139321584Y-54823087D01*
X139374407Y-54806523D01*
X139444818Y-54800369D01*
X139834263Y-54800369D01*
X139834263Y-55064030D01*
G37*
G36*
X142300813Y-54236635D02*
G01*
X142367428Y-54260959D01*
X142422145Y-54301569D01*
X142462316Y-54357557D01*
X142486488Y-54425223D01*
X142495167Y-54509965D01*
X142495167Y-54888663D01*
X142486495Y-54974786D01*
X142462316Y-55043879D01*
X142422109Y-55101158D01*
X142367428Y-55143042D01*
X142300723Y-55168375D01*
X142216364Y-55177480D01*
X142127985Y-55167444D01*
X142058131Y-55139437D01*
X142002529Y-55094316D01*
X141962108Y-55034528D01*
X141936244Y-54957489D01*
X141926814Y-54858255D01*
X141926814Y-54552463D01*
X141936221Y-54452371D01*
X141962076Y-54374190D01*
X142002529Y-54313105D01*
X142058293Y-54266760D01*
X142128152Y-54238109D01*
X142216364Y-54227864D01*
X142300813Y-54236635D01*
G37*
G36*
X133883419Y-54530444D02*
G01*
X133966786Y-54560769D01*
X134025314Y-54606807D01*
X134067843Y-54669566D01*
X134094452Y-54746559D01*
X134103960Y-54841646D01*
X134103960Y-54845799D01*
X134093238Y-54933405D01*
X134062567Y-55006219D01*
X134011758Y-55067693D01*
X133944541Y-55110851D01*
X133844053Y-55140571D01*
X133698150Y-55152079D01*
X133273290Y-55152079D01*
X133273290Y-54519002D01*
X133766538Y-54519002D01*
X133883419Y-54530444D01*
G37*
G36*
X133842725Y-53692281D02*
G01*
X133927879Y-53717883D01*
X133990509Y-53756598D01*
X134037537Y-53811620D01*
X134067154Y-53884100D01*
X134077948Y-53979591D01*
X134068253Y-54070276D01*
X134041595Y-54140047D01*
X133999424Y-54193792D01*
X133942658Y-54232506D01*
X133866944Y-54257649D01*
X133766538Y-54266943D01*
X133273290Y-54266943D01*
X133273290Y-53682714D01*
X133728192Y-53682714D01*
X133842725Y-53692281D01*
G37*
G36*
X147425536Y-55653715D02*
G01*
X132773730Y-55653715D01*
X132773730Y-54266943D01*
X132995952Y-54266943D01*
X132995952Y-55152079D01*
X132995952Y-55410000D01*
X133159839Y-55410000D01*
X133801953Y-55410000D01*
X133935726Y-55399727D01*
X134049125Y-55370699D01*
X134145694Y-55324537D01*
X134228157Y-55261378D01*
X134296222Y-55182205D01*
X134344850Y-55092169D01*
X134374850Y-54989133D01*
X134385327Y-54870101D01*
X134385327Y-54866071D01*
X134373816Y-54753139D01*
X134340045Y-54650820D01*
X134331893Y-54637215D01*
X134734961Y-54637215D01*
X134734961Y-54796828D01*
X134746439Y-54948748D01*
X134778552Y-55074722D01*
X134829059Y-55179404D01*
X134897505Y-55266385D01*
X134983490Y-55336253D01*
X135086252Y-55387507D01*
X135209164Y-55419937D01*
X135356681Y-55431493D01*
X135487705Y-55417961D01*
X135620341Y-55376416D01*
X135744667Y-55310047D01*
X135856646Y-55220467D01*
X135673586Y-55038018D01*
X135603627Y-55091733D01*
X135524598Y-55132173D01*
X135440370Y-55157481D01*
X135356681Y-55165757D01*
X135247454Y-55154280D01*
X135161523Y-55122464D01*
X135093632Y-55071845D01*
X135043480Y-55003558D01*
X135011656Y-54915576D01*
X135001506Y-54816001D01*
X135893527Y-54816001D01*
X135893527Y-54723066D01*
X135882835Y-54542805D01*
X135853155Y-54393947D01*
X135807243Y-54271356D01*
X135746615Y-54170711D01*
X135665948Y-54084829D01*
X135571966Y-54024213D01*
X135486846Y-53995345D01*
X136276622Y-53995345D01*
X136276622Y-55410000D01*
X136555303Y-55410000D01*
X136555303Y-54514483D01*
X136564186Y-54430901D01*
X136588887Y-54364757D01*
X136628332Y-54312128D01*
X136681353Y-54273069D01*
X136748570Y-54248471D01*
X136834106Y-54239588D01*
X136905022Y-54245681D01*
X136963799Y-54262791D01*
X137015293Y-54291631D01*
X137056734Y-54331057D01*
X137238450Y-54084860D01*
X137175055Y-54036908D01*
X137101064Y-54001939D01*
X137075230Y-53995345D01*
X137470481Y-53995345D01*
X137470481Y-55410000D01*
X137749162Y-55410000D01*
X137749162Y-54514483D01*
X137758245Y-54430125D01*
X137783446Y-54363843D01*
X137823656Y-54311517D01*
X137877528Y-54272930D01*
X137946418Y-54248463D01*
X138034682Y-54239588D01*
X138126007Y-54249558D01*
X138197608Y-54277220D01*
X138254012Y-54321409D01*
X138295344Y-54380358D01*
X138321637Y-54455939D01*
X138331193Y-54552951D01*
X138331193Y-55410000D01*
X138609874Y-55410000D01*
X138609874Y-54994787D01*
X138965369Y-54994787D01*
X138965400Y-54995153D01*
X138974643Y-55104929D01*
X139000386Y-55193921D01*
X139040769Y-55265948D01*
X139095795Y-55324026D01*
X139162860Y-55367860D01*
X139247694Y-55401442D01*
X139354229Y-55423457D01*
X139487194Y-55431493D01*
X139573417Y-55426674D01*
X139646318Y-55413175D01*
X139713595Y-55389932D01*
X139771371Y-55358220D01*
X139821451Y-55316661D01*
X139834263Y-55300578D01*
X139834263Y-55410000D01*
X140099267Y-55410000D01*
X140099267Y-54500317D01*
X140089113Y-54375900D01*
X140060553Y-54271999D01*
X140015229Y-54184835D01*
X139953087Y-54111605D01*
X139876508Y-54053722D01*
X139784445Y-54010881D01*
X139721421Y-53995345D01*
X140522540Y-53995345D01*
X140522540Y-55410000D01*
X140801221Y-55410000D01*
X140801221Y-54547944D01*
X141648011Y-54547944D01*
X141648011Y-54552463D01*
X141648011Y-54858743D01*
X141657180Y-54996110D01*
X141682725Y-55109800D01*
X141722542Y-55203848D01*
X141775750Y-55281528D01*
X141844574Y-55345854D01*
X141926102Y-55392230D01*
X142022887Y-55421223D01*
X142138572Y-55431493D01*
X142236141Y-55422406D01*
X142316209Y-55396912D01*
X142382327Y-55356266D01*
X142463450Y-55274292D01*
X142495167Y-55219074D01*
X142495167Y-55410000D01*
X142773848Y-55410000D01*
X142773848Y-55187006D01*
X143770237Y-55187006D01*
X143831086Y-55258442D01*
X143902874Y-55318360D01*
X143986758Y-55367379D01*
X144077473Y-55402769D01*
X144173831Y-55424202D01*
X144277041Y-55431493D01*
X144424195Y-55419597D01*
X144459405Y-55410000D01*
X145362456Y-55410000D01*
X145641137Y-55410000D01*
X145641137Y-53995345D01*
X146063921Y-53995345D01*
X146063921Y-55410000D01*
X146342602Y-55410000D01*
X146342602Y-54514483D01*
X146351685Y-54430125D01*
X146376886Y-54363843D01*
X146417096Y-54311517D01*
X146470968Y-54272930D01*
X146539858Y-54248463D01*
X146628122Y-54239588D01*
X146719447Y-54249558D01*
X146791048Y-54277220D01*
X146847452Y-54321409D01*
X146888784Y-54380358D01*
X146915077Y-54455939D01*
X146924633Y-54552951D01*
X146924633Y-55410000D01*
X147203314Y-55410000D01*
X147203314Y-54550753D01*
X147194206Y-54411830D01*
X147168865Y-54297106D01*
X147129449Y-54202465D01*
X147076919Y-54124549D01*
X147008718Y-54059720D01*
X146928269Y-54013146D01*
X146833116Y-53984115D01*
X146719713Y-53973852D01*
X146636145Y-53981669D01*
X146558518Y-54004765D01*
X146485362Y-54043461D01*
X146420417Y-54095195D01*
X146363356Y-54160499D01*
X146342602Y-54194357D01*
X146342602Y-53995345D01*
X146063921Y-53995345D01*
X145641137Y-53995345D01*
X145362456Y-53995345D01*
X145362456Y-55410000D01*
X144459405Y-55410000D01*
X144546816Y-55386175D01*
X144649418Y-55333226D01*
X144735362Y-55260767D01*
X144803482Y-55171252D01*
X144853832Y-55063824D01*
X144885855Y-54934893D01*
X144897295Y-54779853D01*
X144897295Y-53706161D01*
X145362456Y-53706161D01*
X145641137Y-53706161D01*
X145641137Y-53424794D01*
X145362456Y-53424794D01*
X145362456Y-53706161D01*
X144897295Y-53706161D01*
X144897295Y-53424794D01*
X144618614Y-53424794D01*
X144618614Y-54778510D01*
X144607482Y-54897430D01*
X144576905Y-54990244D01*
X144529099Y-55062686D01*
X144463318Y-55117693D01*
X144380970Y-55151663D01*
X144277041Y-55163803D01*
X144185516Y-55154204D01*
X144109002Y-55126922D01*
X144044767Y-55082188D01*
X143998360Y-55023119D01*
X143770237Y-55187006D01*
X142773848Y-55187006D01*
X142773848Y-53424794D01*
X142495167Y-53424794D01*
X142495167Y-54178185D01*
X142475689Y-54148281D01*
X142419576Y-54087685D01*
X142355094Y-54039064D01*
X142283088Y-54002848D01*
X142206802Y-53981186D01*
X142124895Y-53973852D01*
X142013677Y-53984022D01*
X141920077Y-54012841D01*
X141840659Y-54059174D01*
X141773063Y-54123817D01*
X141721116Y-54201305D01*
X141682114Y-54295467D01*
X141657029Y-54409649D01*
X141648011Y-54547944D01*
X140801221Y-54547944D01*
X140801221Y-54514483D01*
X140810103Y-54430901D01*
X140834805Y-54364757D01*
X140874249Y-54312128D01*
X140927270Y-54273069D01*
X140994488Y-54248471D01*
X141080024Y-54239588D01*
X141150940Y-54245681D01*
X141209717Y-54262791D01*
X141261211Y-54291631D01*
X141302651Y-54331057D01*
X141484368Y-54084860D01*
X141420973Y-54036908D01*
X141346981Y-54001939D01*
X141265494Y-53981140D01*
X141171493Y-53973852D01*
X141089880Y-53981772D01*
X141013639Y-54005256D01*
X140941294Y-54044804D01*
X140877036Y-54097226D01*
X140820877Y-54162165D01*
X140801221Y-54194282D01*
X140801221Y-53995345D01*
X140522540Y-53995345D01*
X139721421Y-53995345D01*
X139673788Y-53983603D01*
X139540561Y-53973852D01*
X139384361Y-53987793D01*
X139247348Y-54027951D01*
X139163496Y-54069738D01*
X139093243Y-54120062D01*
X139034979Y-54179016D01*
X139238555Y-54318478D01*
X139306507Y-54276520D01*
X139384002Y-54245327D01*
X139466060Y-54226336D01*
X139548743Y-54220048D01*
X139636592Y-54229459D01*
X139705494Y-54255543D01*
X139759769Y-54297107D01*
X139799823Y-54352723D01*
X139825118Y-54423298D01*
X139834263Y-54513140D01*
X139834263Y-54575666D01*
X139443475Y-54575666D01*
X139287150Y-54589101D01*
X139170703Y-54625131D01*
X139084804Y-54679836D01*
X139034573Y-54735622D01*
X138997546Y-54804637D01*
X138973892Y-54889736D01*
X138965369Y-54994787D01*
X138609874Y-54994787D01*
X138609874Y-54550753D01*
X138600765Y-54411830D01*
X138575424Y-54297106D01*
X138536009Y-54202465D01*
X138483478Y-54124549D01*
X138415278Y-54059720D01*
X138334829Y-54013146D01*
X138239676Y-53984115D01*
X138126273Y-53973852D01*
X138042704Y-53981669D01*
X137965078Y-54004765D01*
X137891922Y-54043461D01*
X137826977Y-54095195D01*
X137769916Y-54160499D01*
X137749162Y-54194357D01*
X137749162Y-53995345D01*
X137470481Y-53995345D01*
X137075230Y-53995345D01*
X137019577Y-53981140D01*
X136925575Y-53973852D01*
X136843963Y-53981772D01*
X136767721Y-54005256D01*
X136695376Y-54044804D01*
X136631118Y-54097226D01*
X136574959Y-54162165D01*
X136555303Y-54194282D01*
X136555303Y-53995345D01*
X136276622Y-53995345D01*
X135486846Y-53995345D01*
X135462042Y-53986933D01*
X135332013Y-53973852D01*
X135191668Y-53985792D01*
X135074105Y-54019472D01*
X134975046Y-54073173D01*
X134891399Y-54147264D01*
X134825958Y-54237590D01*
X134777254Y-54346678D01*
X134746118Y-54478306D01*
X134738185Y-54591297D01*
X134734961Y-54637215D01*
X134331893Y-54637215D01*
X134283600Y-54556615D01*
X134207545Y-54479293D01*
X134113516Y-54425407D01*
X133997348Y-54394316D01*
X134115694Y-54359620D01*
X134205332Y-54306809D01*
X134271999Y-54236413D01*
X134320821Y-54150506D01*
X134349711Y-54060176D01*
X134359438Y-53963593D01*
X134349643Y-53841765D01*
X134321834Y-53737707D01*
X134277321Y-53648272D01*
X134215945Y-53571095D01*
X134140338Y-53510467D01*
X134045350Y-53464958D01*
X133926664Y-53435493D01*
X133778750Y-53424794D01*
X133273290Y-53424794D01*
X132995952Y-53424794D01*
X132995952Y-54266943D01*
X132773730Y-54266943D01*
X132773730Y-53202572D01*
X147425536Y-53202572D01*
X147425536Y-55653715D01*
G37*
D12*
G36*
X133723307Y-48965596D02*
G01*
X133723307Y-48301256D01*
X135311802Y-48301256D01*
X135528824Y-48274126D01*
X135708567Y-48196522D01*
X135859822Y-48067698D01*
X135972019Y-47900982D01*
X136041753Y-47699717D01*
X136066512Y-47454649D01*
X136041598Y-47205052D01*
X135971721Y-47001841D01*
X135859822Y-46835188D01*
X135708544Y-46706182D01*
X135528802Y-46628484D01*
X135311802Y-46601325D01*
X133723307Y-46601325D01*
X133723307Y-45936985D01*
X135287683Y-45936985D01*
X135583368Y-45959223D01*
X135843243Y-46023021D01*
X136073229Y-46125968D01*
X136280207Y-46268825D01*
X136452894Y-46444146D01*
X136594077Y-46655059D01*
X136695377Y-46888493D01*
X136758330Y-47153024D01*
X136780312Y-47454649D01*
X136758390Y-47754011D01*
X136695492Y-48017594D01*
X136594077Y-48251186D01*
X136452856Y-48461803D01*
X136280173Y-48636499D01*
X136073229Y-48778445D01*
X135843350Y-48880357D01*
X135583466Y-48943558D01*
X135287683Y-48965596D01*
X133723307Y-48965596D01*
G37*
G36*
X133364881Y-50900000D02*
G01*
X133364881Y-45936985D01*
X134061584Y-45936985D01*
X134061584Y-50900000D01*
X133364881Y-50900000D01*
G37*
G36*
X139051393Y-47337440D02*
G01*
X139340006Y-47415609D01*
X139581868Y-47539480D01*
X139784804Y-47708967D01*
X139945811Y-47918436D01*
X140064731Y-48169890D01*
X140140340Y-48471768D01*
X140167349Y-48834926D01*
X140167349Y-49421720D01*
X140140321Y-49786677D01*
X140064674Y-50089986D01*
X139945741Y-50342553D01*
X139784804Y-50552869D01*
X139581769Y-50723070D01*
X139339869Y-50847402D01*
X139051290Y-50925834D01*
X138705556Y-50953733D01*
X138359883Y-50925635D01*
X138071281Y-50846617D01*
X137829254Y-50721270D01*
X137626003Y-50549511D01*
X137465072Y-50337472D01*
X137346122Y-50083139D01*
X137270476Y-49778044D01*
X137243457Y-49411339D01*
X137243457Y-48835537D01*
X137940465Y-48835537D01*
X137940465Y-49421109D01*
X137965515Y-49688867D01*
X138034341Y-49897985D01*
X138141966Y-50061331D01*
X138290145Y-50185629D01*
X138474377Y-50262131D01*
X138705556Y-50289392D01*
X138938942Y-50262002D01*
X139123522Y-50185394D01*
X139270673Y-50061331D01*
X139377425Y-49898105D01*
X139445762Y-49688989D01*
X139470647Y-49421109D01*
X139470647Y-48835537D01*
X139445683Y-48567691D01*
X139377294Y-48359833D01*
X139270673Y-48198674D01*
X139123784Y-48076594D01*
X138939212Y-48001026D01*
X138705556Y-47973970D01*
X138474111Y-48000897D01*
X138289885Y-48076362D01*
X138141966Y-48198674D01*
X138034472Y-48359954D01*
X137965594Y-48567815D01*
X137940465Y-48835537D01*
X137243457Y-48835537D01*
X137243457Y-48834926D01*
X137270466Y-48471768D01*
X137346075Y-48169890D01*
X137464996Y-47918436D01*
X137626003Y-47708967D01*
X137828937Y-47539493D01*
X138070841Y-47415621D01*
X138359552Y-47337445D01*
X138705556Y-47309630D01*
X139051393Y-47337440D01*
G37*
G36*
X141852930Y-45936985D02*
G01*
X141852930Y-49967297D01*
X141868190Y-50083650D01*
X141909106Y-50164523D01*
X141975831Y-50217296D01*
X142068169Y-50235659D01*
X142396065Y-50235659D01*
X142396065Y-50900000D01*
X141986348Y-50900000D01*
X141735275Y-50870677D01*
X141535382Y-50788471D01*
X141374825Y-50655146D01*
X141258113Y-50479539D01*
X141183434Y-50254050D01*
X141156228Y-49964549D01*
X141156228Y-45936985D01*
X141852930Y-45936985D01*
G37*
G36*
X145231420Y-47363363D02*
G01*
X145941861Y-47363363D01*
X144432135Y-51698368D01*
X144328614Y-51926806D01*
X144206567Y-52089956D01*
X144066687Y-52200898D01*
X143901103Y-52274571D01*
X143686546Y-52323333D01*
X143410894Y-52341338D01*
X143270760Y-52341338D01*
X143270760Y-51672112D01*
X143410894Y-51672112D01*
X143592168Y-51650890D01*
X143719862Y-51594260D01*
X143821732Y-51495832D01*
X143919836Y-51327424D01*
X145231420Y-47363363D01*
G37*
G36*
X144216896Y-51163782D02*
G01*
X142802730Y-47363363D01*
X143513171Y-47363363D01*
X144602800Y-50415788D01*
X144216896Y-51163782D01*
G37*
G36*
X148195846Y-47337440D02*
G01*
X148484458Y-47415609D01*
X148726320Y-47539480D01*
X148929256Y-47708967D01*
X149090263Y-47918436D01*
X149209184Y-48169890D01*
X149284793Y-48471768D01*
X149311802Y-48834926D01*
X149311802Y-49421720D01*
X149284773Y-49786677D01*
X149209127Y-50089986D01*
X149090193Y-50342553D01*
X148929256Y-50552869D01*
X148726221Y-50723070D01*
X148484321Y-50847402D01*
X148195742Y-50925834D01*
X147850008Y-50953733D01*
X147504335Y-50925635D01*
X147215733Y-50846617D01*
X146973706Y-50721270D01*
X146770455Y-50549511D01*
X146609524Y-50337472D01*
X146490575Y-50083139D01*
X146414929Y-49778044D01*
X146387909Y-49411339D01*
X146387909Y-48835537D01*
X147084918Y-48835537D01*
X147084918Y-49421109D01*
X147109968Y-49688867D01*
X147178793Y-49897985D01*
X147286418Y-50061331D01*
X147434597Y-50185629D01*
X147618829Y-50262131D01*
X147850008Y-50289392D01*
X148083394Y-50262002D01*
X148267974Y-50185394D01*
X148415125Y-50061331D01*
X148521877Y-49898105D01*
X148590214Y-49688989D01*
X148615099Y-49421109D01*
X148615099Y-48835537D01*
X148590136Y-48567691D01*
X148521746Y-48359833D01*
X148415125Y-48198674D01*
X148268237Y-48076594D01*
X148083664Y-48001026D01*
X147850008Y-47973970D01*
X147618563Y-48000897D01*
X147434337Y-48076362D01*
X147286418Y-48198674D01*
X147178924Y-48359954D01*
X147110046Y-48567815D01*
X147084918Y-48835537D01*
X146387909Y-48835537D01*
X146387909Y-48834926D01*
X146414919Y-48471768D01*
X146490527Y-48169890D01*
X146609448Y-47918436D01*
X146770455Y-47708967D01*
X146973389Y-47539493D01*
X147215293Y-47415621D01*
X147504004Y-47337445D01*
X147850008Y-47309630D01*
X148195846Y-47337440D01*
G37*
G36*
X151223002Y-50900000D02*
G01*
X150942092Y-50869442D01*
X150737255Y-50787167D01*
X150589192Y-50659115D01*
X150485511Y-50487441D01*
X150417849Y-50261569D01*
X150392882Y-49966076D01*
X150392882Y-46332658D01*
X151089584Y-46332658D01*
X151089584Y-49967908D01*
X151103636Y-50084374D01*
X151140875Y-50164523D01*
X151202863Y-50217296D01*
X151291085Y-50235659D01*
X151626003Y-50235659D01*
X151626003Y-50900000D01*
X151223002Y-50900000D01*
G37*
G36*
X150027433Y-47993510D02*
G01*
X150027433Y-47363363D01*
X151626003Y-47363363D01*
X151626003Y-47993510D01*
X150027433Y-47993510D01*
G37*
G36*
X152581908Y-46640404D02*
G01*
X152581908Y-45936985D01*
X153278611Y-45936985D01*
X153278611Y-46640404D01*
X152581908Y-46640404D01*
G37*
G36*
X152581908Y-50900000D02*
G01*
X152581908Y-47363363D01*
X153278611Y-47363363D01*
X153278611Y-50900000D01*
X152581908Y-50900000D01*
G37*
G36*
X156337142Y-50900000D02*
G01*
X156337142Y-48657850D01*
X156314279Y-48433246D01*
X156251042Y-48256809D01*
X156150907Y-48117768D01*
X156015218Y-48013859D01*
X155842963Y-47948648D01*
X155623342Y-47925122D01*
X155416635Y-47940842D01*
X155211488Y-47988319D01*
X155017751Y-48066302D01*
X154847871Y-48171196D01*
X154338930Y-47822540D01*
X154484591Y-47675156D01*
X154660223Y-47549346D01*
X154869853Y-47444879D01*
X155212385Y-47344482D01*
X155602887Y-47309630D01*
X155935953Y-47334009D01*
X156212595Y-47402204D01*
X156442752Y-47509305D01*
X156634202Y-47654012D01*
X156789556Y-47837088D01*
X156902867Y-48054999D01*
X156974267Y-48314751D01*
X156999651Y-48625793D01*
X156999651Y-50900000D01*
X156337142Y-50900000D01*
G37*
G36*
X155469469Y-50953733D02*
G01*
X155137055Y-50933643D01*
X154870719Y-50878606D01*
X154658635Y-50794651D01*
X154490971Y-50685066D01*
X154353407Y-50539871D01*
X154252449Y-50359804D01*
X154188090Y-50137324D01*
X154164907Y-49861967D01*
X154186213Y-49599341D01*
X154245349Y-49386594D01*
X154337916Y-49214056D01*
X154463494Y-49074590D01*
X154678241Y-48937828D01*
X154969359Y-48847753D01*
X155360170Y-48814166D01*
X156367978Y-48814166D01*
X156415605Y-49375924D01*
X155363529Y-49375924D01*
X155187500Y-49391307D01*
X155055443Y-49432719D01*
X154957170Y-49495908D01*
X154884257Y-49584920D01*
X154837778Y-49704026D01*
X154820699Y-49862883D01*
X154842535Y-50031717D01*
X154903133Y-50160293D01*
X155001744Y-50258557D01*
X155129389Y-50325154D01*
X155305510Y-50370118D01*
X155544574Y-50387090D01*
X155914957Y-50362134D01*
X156139000Y-50301605D01*
X156253143Y-50230320D01*
X156315980Y-50143201D01*
X156337142Y-50035075D01*
X156408888Y-50536383D01*
X156305112Y-50666654D01*
X156179911Y-50770551D01*
X156035472Y-50849832D01*
X155867280Y-50907937D01*
X155685026Y-50941685D01*
X155469469Y-50953733D01*
G37*
G36*
X161108731Y-50900000D02*
G01*
X159489706Y-45936985D01*
X160247775Y-45936985D01*
X161439986Y-49828079D01*
X162631891Y-45936985D01*
X163390265Y-45936985D01*
X161771240Y-50900000D01*
X161108731Y-50900000D01*
G37*
G36*
X165206516Y-45936985D02*
G01*
X165206516Y-50900000D01*
X164509813Y-50900000D01*
X164509813Y-46695054D01*
X163802730Y-47128890D01*
X163802730Y-46408374D01*
X164509813Y-45936985D01*
X165206516Y-45936985D01*
G37*
D13*
X110416666Y-112304819D02*
X110416666Y-113019104D01*
X110416666Y-113019104D02*
X110369047Y-113161961D01*
X110369047Y-113161961D02*
X110273809Y-113257200D01*
X110273809Y-113257200D02*
X110130952Y-113304819D01*
X110130952Y-113304819D02*
X110035714Y-113304819D01*
X110845238Y-112400057D02*
X110892857Y-112352438D01*
X110892857Y-112352438D02*
X110988095Y-112304819D01*
X110988095Y-112304819D02*
X111226190Y-112304819D01*
X111226190Y-112304819D02*
X111321428Y-112352438D01*
X111321428Y-112352438D02*
X111369047Y-112400057D01*
X111369047Y-112400057D02*
X111416666Y-112495295D01*
X111416666Y-112495295D02*
X111416666Y-112590533D01*
X111416666Y-112590533D02*
X111369047Y-112733390D01*
X111369047Y-112733390D02*
X110797619Y-113304819D01*
X110797619Y-113304819D02*
X111416666Y-113304819D01*
X156166666Y-134304819D02*
X156166666Y-135019104D01*
X156166666Y-135019104D02*
X156119047Y-135161961D01*
X156119047Y-135161961D02*
X156023809Y-135257200D01*
X156023809Y-135257200D02*
X155880952Y-135304819D01*
X155880952Y-135304819D02*
X155785714Y-135304819D01*
X157166666Y-135304819D02*
X156595238Y-135304819D01*
X156880952Y-135304819D02*
X156880952Y-134304819D01*
X156880952Y-134304819D02*
X156785714Y-134447676D01*
X156785714Y-134447676D02*
X156690476Y-134542914D01*
X156690476Y-134542914D02*
X156595238Y-134590533D01*
X135488719Y-86244900D02*
X135726814Y-86244900D01*
X135631576Y-86482995D02*
X135726814Y-86244900D01*
X135726814Y-86244900D02*
X135631576Y-86006805D01*
X135917290Y-86387757D02*
X135726814Y-86244900D01*
X135726814Y-86244900D02*
X135917290Y-86102043D01*
X136579080Y-86244901D02*
X136340985Y-86244901D01*
X136436223Y-86006806D02*
X136340985Y-86244901D01*
X136340985Y-86244901D02*
X136436223Y-86482996D01*
X136150509Y-86102044D02*
X136340985Y-86244901D01*
X136340985Y-86244901D02*
X136150509Y-86387758D01*
X135488719Y-96994900D02*
X135726814Y-96994900D01*
X135631576Y-97232995D02*
X135726814Y-96994900D01*
X135726814Y-96994900D02*
X135631576Y-96756805D01*
X135917290Y-97137757D02*
X135726814Y-96994900D01*
X135726814Y-96994900D02*
X135917290Y-96852043D01*
X136579080Y-96994901D02*
X136340985Y-96994901D01*
X136436223Y-96756806D02*
X136340985Y-96994901D01*
X136340985Y-96994901D02*
X136436223Y-97232996D01*
X136150509Y-96852044D02*
X136340985Y-96994901D01*
X136340985Y-96994901D02*
X136150509Y-97137758D01*
%TO.C,R69*%
D14*
X123346359Y-127870000D02*
X123653641Y-127870000D01*
X123346359Y-128630000D02*
X123653641Y-128630000D01*
%TO.C,R68*%
X123346359Y-129370000D02*
X123653641Y-129370000D01*
X123346359Y-130130000D02*
X123653641Y-130130000D01*
%TO.C,D5*%
D13*
X127490000Y-128980000D02*
X127490000Y-127520000D01*
X127490000Y-127520000D02*
X125200000Y-127520000D01*
X125200000Y-128980000D02*
X127490000Y-128980000D01*
%TO.C,D4*%
X127490000Y-130480000D02*
X127490000Y-129020000D01*
X127490000Y-129020000D02*
X125200000Y-129020000D01*
X125200000Y-130480000D02*
X127490000Y-130480000D01*
%TO.C,J2*%
D14*
X118400000Y-110450000D02*
X118400000Y-109110000D01*
X118400000Y-106390000D02*
X118400000Y-104650000D01*
X118400000Y-104650000D02*
X103100000Y-104650000D01*
X116910000Y-110450000D02*
X118400000Y-110450000D01*
X116910000Y-110450000D02*
X116910000Y-111650000D01*
X104590000Y-110450000D02*
X103100000Y-110450000D01*
X103100000Y-110450000D02*
X103100000Y-109110000D01*
X103100000Y-104650000D02*
X103100000Y-106390000D01*
%TO.C,J1*%
X168150000Y-132450000D02*
X168150000Y-131110000D01*
X168150000Y-128390000D02*
X168150000Y-126650000D01*
X168150000Y-126650000D02*
X144850000Y-126650000D01*
X166660000Y-132450000D02*
X168150000Y-132450000D01*
X166660000Y-132450000D02*
X166660000Y-133650000D01*
X146340000Y-132450000D02*
X144850000Y-132450000D01*
X144850000Y-132450000D02*
X144850000Y-131110000D01*
X144850000Y-126650000D02*
X144850000Y-128390000D01*
%TO.C,C5*%
X155760000Y-104109420D02*
X155760000Y-104390580D01*
X154740000Y-104109420D02*
X154740000Y-104390580D01*
%TO.C,C3*%
X152240000Y-84915580D02*
X152240000Y-84634420D01*
X153260000Y-84915580D02*
X153260000Y-84634420D01*
%TO.C,R26*%
X130630259Y-88586100D02*
X130937541Y-88586100D01*
X130630259Y-89346100D02*
X130937541Y-89346100D01*
%TO.C,R58*%
X174503641Y-102420000D02*
X174196359Y-102420000D01*
X174503641Y-103180000D02*
X174196359Y-103180000D01*
%TO.C,R53*%
X97346359Y-126870000D02*
X97653641Y-126870000D01*
X97346359Y-127630000D02*
X97653641Y-127630000D01*
%TO.C,R52*%
X117620000Y-120403641D02*
X117620000Y-120096359D01*
X118380000Y-120403641D02*
X118380000Y-120096359D01*
%TO.C,C85*%
X120240000Y-127003080D02*
X120240000Y-126721920D01*
X121260000Y-127003080D02*
X121260000Y-126721920D01*
%TO.C,M14*%
D11*
X121988169Y-100966360D02*
X122088169Y-100966360D01*
X121988169Y-104466360D02*
X121988169Y-100966360D01*
X122888169Y-100966360D02*
X123688169Y-100966360D01*
X122988169Y-104466360D02*
X121988169Y-104466360D01*
X124488169Y-100966360D02*
X124588169Y-100966360D01*
X124588169Y-100966360D02*
X124588169Y-104366360D01*
X124588169Y-104466360D02*
X123588169Y-104466360D01*
D15*
X122613169Y-100766360D02*
G75*
G02*
X122363169Y-100766360I-125000J0D01*
G01*
X122363169Y-100766360D02*
G75*
G02*
X122613169Y-100766360I125000J0D01*
G01*
%TO.C,C39*%
D14*
X141140000Y-94142164D02*
X141140000Y-94357836D01*
X141860000Y-94142164D02*
X141860000Y-94357836D01*
%TO.C,U9*%
X98890000Y-128052500D02*
X99115000Y-128052500D01*
X98890000Y-131272500D02*
X98890000Y-128052500D01*
X99115000Y-131272500D02*
X98890000Y-131272500D01*
X101885000Y-128052500D02*
X102110000Y-128052500D01*
X102110000Y-128052500D02*
X102110000Y-131272500D01*
X102110000Y-131272500D02*
X101885000Y-131272500D01*
X101500000Y-127542500D02*
X101260000Y-127212500D01*
X101740000Y-127212500D01*
X101500000Y-127542500D01*
G36*
X101500000Y-127542500D02*
G01*
X101260000Y-127212500D01*
X101740000Y-127212500D01*
X101500000Y-127542500D01*
G37*
%TO.C,R13*%
X176620000Y-61346359D02*
X176620000Y-61653641D01*
X177380000Y-61346359D02*
X177380000Y-61653641D01*
%TO.C,L3*%
X124390000Y-118140000D02*
X129610000Y-118140000D01*
X124390000Y-118390000D02*
X124390000Y-118140000D01*
X124390000Y-123360000D02*
X124390000Y-123110000D01*
X129610000Y-118140000D02*
X129610000Y-118390000D01*
X129610000Y-123110000D02*
X129610000Y-123360000D01*
X129610000Y-123360000D02*
X124390000Y-123360000D01*
%TO.C,C50*%
X133640000Y-78412164D02*
X133640000Y-78627836D01*
X134360000Y-78412164D02*
X134360000Y-78627836D01*
%TO.C,R35*%
X174120000Y-137346359D02*
X174120000Y-137653641D01*
X174880000Y-137346359D02*
X174880000Y-137653641D01*
%TO.C,C1*%
X141607836Y-91890000D02*
X141392164Y-91890000D01*
X141607836Y-92610000D02*
X141392164Y-92610000D01*
%TO.C,M7*%
D11*
X109284860Y-72893044D02*
X110284860Y-72893044D01*
X109284860Y-76393044D02*
X109284860Y-72993044D01*
X109384860Y-76393044D02*
X109284860Y-76393044D01*
X110884860Y-72893044D02*
X111884860Y-72893044D01*
X110984860Y-76393044D02*
X110184860Y-76393044D01*
X111884860Y-72893044D02*
X111884860Y-76393044D01*
X111884860Y-76393044D02*
X111784860Y-76393044D01*
D15*
X111509860Y-76593044D02*
G75*
G02*
X111259860Y-76593044I-125000J0D01*
G01*
X111259860Y-76593044D02*
G75*
G02*
X111509860Y-76593044I125000J0D01*
G01*
%TO.C,R36*%
D14*
X173120000Y-137346359D02*
X173120000Y-137653641D01*
X173880000Y-137346359D02*
X173880000Y-137653641D01*
%TO.C,C90*%
D11*
X105750000Y-87250000D02*
X115750000Y-87250000D01*
X115750000Y-97250000D01*
X105750000Y-97250000D01*
X105750000Y-87250000D01*
%TO.C,R21*%
D14*
X130903900Y-97846359D02*
X130903900Y-98153641D01*
X131663900Y-97846359D02*
X131663900Y-98153641D01*
%TO.C,S1*%
D16*
X151050000Y-78250000D02*
X151280000Y-78250000D01*
X151050000Y-82250000D02*
X151050000Y-78250000D01*
X151280000Y-82250000D02*
X151050000Y-82250000D01*
X153950000Y-78250000D02*
X153720000Y-78250000D01*
X153950000Y-78250000D02*
X153950000Y-82250000D01*
X153950000Y-82250000D02*
X153720000Y-82250000D01*
%TO.C,U10*%
D14*
X116740000Y-125340000D02*
X116790000Y-125340000D01*
X116740000Y-127160000D02*
X116740000Y-125340000D01*
X116790000Y-127160000D02*
X116740000Y-127160000D01*
X118690000Y-127160000D02*
X117910000Y-127160000D01*
X119810000Y-125340000D02*
X119860000Y-125340000D01*
X119860000Y-125340000D02*
X119860000Y-127160000D01*
X119860000Y-127160000D02*
X119810000Y-127160000D01*
X119810000Y-124800000D02*
X120140000Y-124560000D01*
X120140000Y-125040000D01*
X119810000Y-124800000D01*
G36*
X120140000Y-125040000D02*
G01*
X119810000Y-124800000D01*
X120140000Y-124560000D01*
X120140000Y-125040000D01*
G37*
%TO.C,R5*%
X146370000Y-72346359D02*
X146370000Y-72653641D01*
X147130000Y-72346359D02*
X147130000Y-72653641D01*
%TO.C,C63*%
X138176064Y-90856100D02*
X138391736Y-90856100D01*
X138176064Y-91576100D02*
X138391736Y-91576100D01*
%TO.C,TH1*%
X87640000Y-132360000D02*
X87640000Y-133610000D01*
X87640000Y-133610000D02*
X88890000Y-133610000D01*
X87740000Y-131550000D02*
X87740000Y-131850000D01*
X87740000Y-131850000D02*
X87940000Y-131850000D01*
X87840000Y-131550000D02*
X87840000Y-131850000D01*
X87940000Y-130750000D02*
X88550000Y-130750000D01*
X87940000Y-131550000D02*
X87740000Y-131550000D01*
X88550000Y-127800000D02*
X88550000Y-129750000D01*
X88550000Y-129750000D02*
X87940000Y-129750000D01*
X88550000Y-130750000D02*
X88550000Y-132700000D01*
X88550000Y-132700000D02*
X92050000Y-132700000D01*
X89250000Y-127190000D02*
X89250000Y-127800000D01*
X89250000Y-133310000D02*
X89250000Y-132700000D01*
X90550000Y-127190000D02*
X90550000Y-127800000D01*
X90550000Y-133310000D02*
X90550000Y-132700000D01*
X91550000Y-130150000D02*
X92050000Y-130150000D01*
X91550000Y-130350000D02*
X91550000Y-130150000D01*
X92050000Y-127800000D02*
X88550000Y-127800000D01*
X92050000Y-130250000D02*
X91550000Y-130250000D01*
X92050000Y-130350000D02*
X91550000Y-130350000D01*
X92050000Y-132700000D02*
X92050000Y-127800000D01*
X87940000Y-127190000D02*
X92660000Y-127190000D01*
X92660000Y-133310000D01*
X87940000Y-133310000D01*
X87940000Y-127190000D01*
%TO.C,C37*%
X163109420Y-97890000D02*
X163390580Y-97890000D01*
X163109420Y-98910000D02*
X163390580Y-98910000D01*
%TO.C,C73*%
X110890000Y-113142164D02*
X110890000Y-113357836D01*
X111610000Y-113142164D02*
X111610000Y-113357836D01*
%TO.C,M6*%
D11*
X108194452Y-41667852D02*
X109194452Y-41667852D01*
X108194452Y-45167852D02*
X108194452Y-41767852D01*
X108294452Y-45167852D02*
X108194452Y-45167852D01*
X109794452Y-41667852D02*
X110794452Y-41667852D01*
X109894452Y-45167852D02*
X109094452Y-45167852D01*
X110794452Y-41667852D02*
X110794452Y-45167852D01*
X110794452Y-45167852D02*
X110694452Y-45167852D01*
D15*
X110419452Y-45367852D02*
G75*
G02*
X110169452Y-45367852I-125000J0D01*
G01*
X110169452Y-45367852D02*
G75*
G02*
X110419452Y-45367852I125000J0D01*
G01*
%TO.C,C69*%
D14*
X153359420Y-134490000D02*
X153640580Y-134490000D01*
X153359420Y-135510000D02*
X153640580Y-135510000D01*
%TO.C,J4*%
X179050000Y-97900000D02*
X181050000Y-97900000D01*
X179050000Y-107300000D02*
X181050000Y-107300000D01*
X182950000Y-97900000D02*
X184850000Y-97900000D01*
X182950000Y-107300000D02*
X184850000Y-107300000D01*
X184850000Y-107300000D02*
X184850000Y-97900000D01*
%TO.C,R37*%
X168153641Y-136870000D02*
X167846359Y-136870000D01*
X168153641Y-137630000D02*
X167846359Y-137630000D01*
%TO.C,R31*%
X138130259Y-87836100D02*
X138437541Y-87836100D01*
X138130259Y-88596100D02*
X138437541Y-88596100D01*
%TO.C,U3*%
D17*
X132336800Y-87052900D02*
X132336800Y-87539860D01*
X132336800Y-90960140D02*
X132336800Y-91447100D01*
X132336800Y-91447100D02*
X132823760Y-91447100D01*
X132823760Y-87052900D02*
X132336800Y-87052900D01*
X136244040Y-91447100D02*
X136731000Y-91447100D01*
X136731000Y-87052900D02*
X136244040Y-87052900D01*
X136731000Y-87539860D02*
X136731000Y-87052900D01*
X136731000Y-91447100D02*
X136731000Y-90960140D01*
D18*
G36*
X131909801Y-89690500D02*
G01*
X131655801Y-89690500D01*
X131655801Y-89309499D01*
X131909801Y-89309499D01*
X131909801Y-89690500D01*
G37*
G36*
X137411999Y-90190501D02*
G01*
X137157999Y-90190501D01*
X137157999Y-89809501D01*
X137411999Y-89809501D01*
X137411999Y-90190501D01*
G37*
%TO.C,R39*%
D14*
X164596359Y-134370000D02*
X164903641Y-134370000D01*
X164596359Y-135130000D02*
X164903641Y-135130000D01*
%TO.C,M5*%
D11*
X108895447Y-61741736D02*
X109895447Y-61741736D01*
X108895447Y-65241736D02*
X108895447Y-61841736D01*
X108995447Y-65241736D02*
X108895447Y-65241736D01*
X110495447Y-61741736D02*
X111495447Y-61741736D01*
X110595447Y-65241736D02*
X109795447Y-65241736D01*
X111495447Y-61741736D02*
X111495447Y-65241736D01*
X111495447Y-65241736D02*
X111395447Y-65241736D01*
D15*
X111120447Y-65441736D02*
G75*
G02*
X110870447Y-65441736I-125000J0D01*
G01*
X110870447Y-65441736D02*
G75*
G02*
X111120447Y-65441736I125000J0D01*
G01*
%TO.C,C62*%
D14*
X138176064Y-97856100D02*
X138391736Y-97856100D01*
X138176064Y-98576100D02*
X138391736Y-98576100D01*
%TO.C,U2*%
D13*
X144250000Y-104440000D02*
X142300000Y-104440000D01*
X144250000Y-104440000D02*
X146200000Y-104440000D01*
X144250000Y-109560000D02*
X142300000Y-109560000D01*
X144250000Y-109560000D02*
X146200000Y-109560000D01*
D14*
X146950000Y-109465000D02*
X147190000Y-109795000D01*
X146710000Y-109795000D01*
X146950000Y-109465000D01*
G36*
X147190000Y-109795000D02*
G01*
X146710000Y-109795000D01*
X146950000Y-109465000D01*
X147190000Y-109795000D01*
G37*
%TO.C,R27*%
X130640259Y-89836100D02*
X130947541Y-89836100D01*
X130640259Y-90596100D02*
X130947541Y-90596100D01*
%TO.C,R2*%
X139620000Y-104346359D02*
X139620000Y-104653641D01*
X140380000Y-104346359D02*
X140380000Y-104653641D01*
%TO.C,M13*%
D11*
X99906250Y-99955685D02*
X100006250Y-99955685D01*
X99906250Y-103455685D02*
X99906250Y-99955685D01*
X100806250Y-99955685D02*
X101606250Y-99955685D01*
X100906250Y-103455685D02*
X99906250Y-103455685D01*
X102406250Y-99955685D02*
X102506250Y-99955685D01*
X102506250Y-99955685D02*
X102506250Y-103355685D01*
X102506250Y-103455685D02*
X101506250Y-103455685D01*
D15*
X100531250Y-99755685D02*
G75*
G02*
X100281250Y-99755685I-125000J0D01*
G01*
X100281250Y-99755685D02*
G75*
G02*
X100531250Y-99755685I125000J0D01*
G01*
%TO.C,R34*%
D14*
X133870000Y-104153641D02*
X133870000Y-103846359D01*
X134630000Y-104153641D02*
X134630000Y-103846359D01*
%TO.C,R48*%
X113653641Y-117610000D02*
X113346359Y-117610000D01*
X113653641Y-118370000D02*
X113346359Y-118370000D01*
%TO.C,C81*%
X123357836Y-119140000D02*
X123142164Y-119140000D01*
X123357836Y-119860000D02*
X123142164Y-119860000D01*
%TO.C,R20*%
X130653641Y-113370000D02*
X130346359Y-113370000D01*
X130653641Y-114130000D02*
X130346359Y-114130000D01*
%TO.C,R51*%
X116620000Y-120086359D02*
X116620000Y-120393641D01*
X117380000Y-120086359D02*
X117380000Y-120393641D01*
%TO.C,Q1*%
X169200000Y-135450000D02*
X169200000Y-139050000D01*
X169200000Y-139050000D02*
X172800000Y-139050000D01*
X172800000Y-135450000D02*
X169200000Y-135450000D01*
X172800000Y-139050000D02*
X172800000Y-135450000D01*
%TO.C,C83*%
X126261252Y-125765000D02*
X125738748Y-125765000D01*
X126261252Y-127235000D02*
X125738748Y-127235000D01*
%TO.C,C72*%
X111890000Y-113142164D02*
X111890000Y-113357836D01*
X112610000Y-113142164D02*
X112610000Y-113357836D01*
%TO.C,U11*%
X170302500Y-100790000D02*
X172122500Y-100790000D01*
X170302500Y-100840000D02*
X170302500Y-100790000D01*
X170302500Y-103910000D02*
X170302500Y-103860000D01*
X172122500Y-100790000D02*
X172122500Y-100840000D01*
X172122500Y-103860000D02*
X172122500Y-103910000D01*
X172122500Y-103910000D02*
X170302500Y-103910000D01*
X172662500Y-103860000D02*
X172902500Y-104190000D01*
X172422500Y-104190000D01*
X172662500Y-103860000D01*
G36*
X172902500Y-104190000D02*
G01*
X172422500Y-104190000D01*
X172662500Y-103860000D01*
X172902500Y-104190000D01*
G37*
%TO.C,C70*%
X114640000Y-113142164D02*
X114640000Y-113357836D01*
X115360000Y-113142164D02*
X115360000Y-113357836D01*
%TO.C,C71*%
X115740000Y-113609420D02*
X115740000Y-113890580D01*
X116760000Y-113609420D02*
X116760000Y-113890580D01*
%TO.C,C84*%
X115240000Y-125721920D02*
X115240000Y-126003080D01*
X116260000Y-125721920D02*
X116260000Y-126003080D01*
%TO.C,C40*%
X139587836Y-108640000D02*
X139372164Y-108640000D01*
X139587836Y-109360000D02*
X139372164Y-109360000D01*
%TO.C,R12*%
X148120000Y-135913641D02*
X148120000Y-135606359D01*
X148880000Y-135913641D02*
X148880000Y-135606359D01*
%TO.C,M3*%
D11*
X130744336Y-77696317D02*
X130844336Y-77696317D01*
X130744336Y-81196317D02*
X130744336Y-77696317D01*
X131644336Y-77696317D02*
X132444336Y-77696317D01*
X131744336Y-81196317D02*
X130744336Y-81196317D01*
X133244336Y-77696317D02*
X133344336Y-77696317D01*
X133344336Y-77696317D02*
X133344336Y-81096317D01*
X133344336Y-81196317D02*
X132344336Y-81196317D01*
D15*
X131369336Y-77496317D02*
G75*
G02*
X131119336Y-77496317I-125000J0D01*
G01*
X131119336Y-77496317D02*
G75*
G02*
X131369336Y-77496317I125000J0D01*
G01*
%TO.C,R9*%
D14*
X85620000Y-82596359D02*
X85620000Y-82903641D01*
X86380000Y-82596359D02*
X86380000Y-82903641D01*
%TO.C,C67*%
X150892164Y-134390000D02*
X151107836Y-134390000D01*
X150892164Y-135110000D02*
X151107836Y-135110000D01*
%TO.C,C48*%
X152390000Y-136892164D02*
X152390000Y-137107836D01*
X153110000Y-136892164D02*
X153110000Y-137107836D01*
%TO.C,R16*%
X112370000Y-76346359D02*
X112370000Y-76653641D01*
X113130000Y-76346359D02*
X113130000Y-76653641D01*
%TO.C,M2*%
D11*
X147525449Y-71588491D02*
X147625449Y-71588491D01*
X147525449Y-75088491D02*
X147525449Y-71588491D01*
X148425449Y-71588491D02*
X149225449Y-71588491D01*
X148525449Y-75088491D02*
X147525449Y-75088491D01*
X150025449Y-71588491D02*
X150125449Y-71588491D01*
X150125449Y-71588491D02*
X150125449Y-74988491D01*
X150125449Y-75088491D02*
X149125449Y-75088491D01*
D15*
X148150449Y-71388491D02*
G75*
G02*
X147900449Y-71388491I-125000J0D01*
G01*
X147900449Y-71388491D02*
G75*
G02*
X148150449Y-71388491I125000J0D01*
G01*
%TO.C,C4*%
D14*
X144140580Y-91740000D02*
X143859420Y-91740000D01*
X144140580Y-92760000D02*
X143859420Y-92760000D01*
%TO.C,C44*%
X93640000Y-85107836D02*
X93640000Y-84892164D01*
X94360000Y-85107836D02*
X94360000Y-84892164D01*
%TO.C,C78*%
X111236509Y-122205000D02*
X111759013Y-122205000D01*
X111236509Y-123675000D02*
X111759013Y-123675000D01*
%TO.C,M16*%
D11*
X149359449Y-136000000D02*
X149459449Y-136000000D01*
X149359449Y-139500000D02*
X149359449Y-136000000D01*
X150259449Y-136000000D02*
X151059449Y-136000000D01*
X150359449Y-139500000D02*
X149359449Y-139500000D01*
X151859449Y-136000000D02*
X151959449Y-136000000D01*
X151959449Y-136000000D02*
X151959449Y-139400000D01*
X151959449Y-139500000D02*
X150959449Y-139500000D01*
D15*
X149984449Y-135800000D02*
G75*
G02*
X149734449Y-135800000I-125000J0D01*
G01*
X149734449Y-135800000D02*
G75*
G02*
X149984449Y-135800000I125000J0D01*
G01*
%TO.C,C7*%
D14*
X142988748Y-84765000D02*
X143511252Y-84765000D01*
X142988748Y-86235000D02*
X143511252Y-86235000D01*
%TO.C,R10*%
X90870000Y-111653641D02*
X90870000Y-111346359D01*
X91630000Y-111653641D02*
X91630000Y-111346359D01*
%TO.C,R11*%
X120870000Y-100893641D02*
X120870000Y-100586359D01*
X121630000Y-100893641D02*
X121630000Y-100586359D01*
%TO.C,R55*%
X96870000Y-130596359D02*
X96870000Y-130903641D01*
X97630000Y-130596359D02*
X97630000Y-130903641D01*
%TO.C,D3*%
D13*
X94200000Y-127980000D02*
X96490000Y-127980000D01*
X96490000Y-126520000D02*
X94200000Y-126520000D01*
X96490000Y-127980000D02*
X96490000Y-126520000D01*
%TO.C,R28*%
D14*
X132630259Y-92086100D02*
X132937541Y-92086100D01*
X132630259Y-92846100D02*
X132937541Y-92846100D01*
%TO.C,M1*%
D11*
X177733753Y-60593568D02*
X177833753Y-60593568D01*
X177733753Y-64093568D02*
X177733753Y-60593568D01*
X178633753Y-60593568D02*
X179433753Y-60593568D01*
X178733753Y-64093568D02*
X177733753Y-64093568D01*
X180233753Y-60593568D02*
X180333753Y-60593568D01*
X180333753Y-60593568D02*
X180333753Y-63993568D01*
X180333753Y-64093568D02*
X179333753Y-64093568D01*
D15*
X178358753Y-60393568D02*
G75*
G02*
X178108753Y-60393568I-125000J0D01*
G01*
X178108753Y-60393568D02*
G75*
G02*
X178358753Y-60393568I125000J0D01*
G01*
%TO.C,C65*%
D14*
X136673900Y-85823936D02*
X136673900Y-85608264D01*
X137393900Y-85823936D02*
X137393900Y-85608264D01*
%TO.C,C42*%
X124390000Y-81892164D02*
X124390000Y-82107836D01*
X125110000Y-81892164D02*
X125110000Y-82107836D01*
%TO.C,C58*%
X135173900Y-96573936D02*
X135173900Y-96358264D01*
X135893900Y-96573936D02*
X135893900Y-96358264D01*
%TO.C,C87*%
X102490000Y-130365580D02*
X102490000Y-130084420D01*
X103510000Y-130365580D02*
X103510000Y-130084420D01*
%TO.C,C59*%
X134173900Y-85823936D02*
X134173900Y-85608264D01*
X134893900Y-85823936D02*
X134893900Y-85608264D01*
%TO.C,R25*%
X131903900Y-85562459D02*
X131903900Y-85869741D01*
X132663900Y-85562459D02*
X132663900Y-85869741D01*
%TO.C,C53*%
X59890000Y-75607836D02*
X59890000Y-75392164D01*
X60610000Y-75607836D02*
X60610000Y-75392164D01*
%TO.C,C64*%
X138176064Y-100856100D02*
X138391736Y-100856100D01*
X138176064Y-101576100D02*
X138391736Y-101576100D01*
%TO.C,U4*%
D17*
X132336800Y-97802900D02*
X132336800Y-98289860D01*
X132336800Y-101710140D02*
X132336800Y-102197100D01*
X132336800Y-102197100D02*
X132823760Y-102197100D01*
X132823760Y-97802900D02*
X132336800Y-97802900D01*
X136244040Y-102197100D02*
X136731000Y-102197100D01*
X136731000Y-97802900D02*
X136244040Y-97802900D01*
X136731000Y-98289860D02*
X136731000Y-97802900D01*
X136731000Y-102197100D02*
X136731000Y-101710140D01*
D18*
G36*
X131909801Y-100440500D02*
G01*
X131655801Y-100440500D01*
X131655801Y-100059499D01*
X131909801Y-100059499D01*
X131909801Y-100440500D01*
G37*
G36*
X137411999Y-100940501D02*
G01*
X137157999Y-100940501D01*
X137157999Y-100559501D01*
X137411999Y-100559501D01*
X137411999Y-100940501D01*
G37*
%TO.C,C60*%
D14*
X134173900Y-96573936D02*
X134173900Y-96358264D01*
X134893900Y-96573936D02*
X134893900Y-96358264D01*
%TO.C,C79*%
X111236509Y-124205000D02*
X111759013Y-124205000D01*
X111236509Y-125675000D02*
X111759013Y-125675000D01*
%TO.C,M12*%
D11*
X92012665Y-111658407D02*
X92112665Y-111658407D01*
X92012665Y-115158407D02*
X92012665Y-111658407D01*
X92912665Y-111658407D02*
X93712665Y-111658407D01*
X93012665Y-115158407D02*
X92012665Y-115158407D01*
X94512665Y-111658407D02*
X94612665Y-111658407D01*
X94612665Y-111658407D02*
X94612665Y-115058407D01*
X94612665Y-115158407D02*
X93612665Y-115158407D01*
D15*
X92637665Y-111458407D02*
G75*
G02*
X92387665Y-111458407I-125000J0D01*
G01*
X92387665Y-111458407D02*
G75*
G02*
X92637665Y-111458407I125000J0D01*
G01*
%TO.C,M8*%
D11*
X94694061Y-82506392D02*
X95694061Y-82506392D01*
X94694061Y-86006392D02*
X94694061Y-82606392D01*
X94794061Y-86006392D02*
X94694061Y-86006392D01*
X96294061Y-82506392D02*
X97294061Y-82506392D01*
X96394061Y-86006392D02*
X95594061Y-86006392D01*
X97294061Y-82506392D02*
X97294061Y-86006392D01*
X97294061Y-86006392D02*
X97194061Y-86006392D01*
D15*
X96919061Y-86206392D02*
G75*
G02*
X96669061Y-86206392I-125000J0D01*
G01*
X96669061Y-86206392D02*
G75*
G02*
X96919061Y-86206392I125000J0D01*
G01*
%TO.C,R24*%
D14*
X132903900Y-104153641D02*
X132903900Y-103846359D01*
X133663900Y-104153641D02*
X133663900Y-103846359D01*
%TO.C,C82*%
X126261252Y-123765000D02*
X125738748Y-123765000D01*
X126261252Y-125235000D02*
X125738748Y-125235000D01*
%TO.C,R4*%
X148653641Y-83620000D02*
X148346359Y-83620000D01*
X148653641Y-84380000D02*
X148346359Y-84380000D01*
%TO.C,C41*%
X150640000Y-72392164D02*
X150640000Y-72607836D01*
X151360000Y-72392164D02*
X151360000Y-72607836D01*
%TO.C,C57*%
X135173900Y-85823936D02*
X135173900Y-85608264D01*
X135893900Y-85823936D02*
X135893900Y-85608264D01*
%TO.C,L1*%
X141130000Y-90990000D02*
X141130000Y-87010000D01*
X145370000Y-90990000D02*
X145370000Y-87010000D01*
%TO.C,R8*%
X98346359Y-85120000D02*
X98653641Y-85120000D01*
X98346359Y-85880000D02*
X98653641Y-85880000D01*
%TO.C,R38*%
X168153641Y-137870000D02*
X167846359Y-137870000D01*
X168153641Y-138630000D02*
X167846359Y-138630000D01*
%TO.C,R23*%
X130630259Y-100620000D02*
X130937541Y-100620000D01*
X130630259Y-101380000D02*
X130937541Y-101380000D01*
%TO.C,C46*%
X95140000Y-112392164D02*
X95140000Y-112607836D01*
X95860000Y-112392164D02*
X95860000Y-112607836D01*
%TO.C,M11*%
D11*
X77803127Y-132724913D02*
X77903127Y-132724913D01*
X77803127Y-136224913D02*
X77803127Y-132724913D01*
X78703127Y-132724913D02*
X79503127Y-132724913D01*
X78803127Y-136224913D02*
X77803127Y-136224913D01*
X80303127Y-132724913D02*
X80403127Y-132724913D01*
X80403127Y-132724913D02*
X80403127Y-136124913D01*
X80403127Y-136224913D02*
X79403127Y-136224913D01*
D15*
X78428127Y-132524913D02*
G75*
G02*
X78178127Y-132524913I-125000J0D01*
G01*
X78178127Y-132524913D02*
G75*
G02*
X78428127Y-132524913I125000J0D01*
G01*
%TO.C,C74*%
D14*
X112990000Y-114609420D02*
X112990000Y-114890580D01*
X114010000Y-114609420D02*
X114010000Y-114890580D01*
%TO.C,C55*%
X102890000Y-100642164D02*
X102890000Y-100857836D01*
X103610000Y-100642164D02*
X103610000Y-100857836D01*
%TO.C,C15*%
X144140580Y-96290000D02*
X143859420Y-96290000D01*
X144140580Y-97310000D02*
X143859420Y-97310000D01*
%TO.C,M10*%
D11*
X82630009Y-79047080D02*
X83630009Y-79047080D01*
X82630009Y-82547080D02*
X82630009Y-79147080D01*
X82730009Y-82547080D02*
X82630009Y-82547080D01*
X84230009Y-79047080D02*
X85230009Y-79047080D01*
X84330009Y-82547080D02*
X83530009Y-82547080D01*
X85230009Y-79047080D02*
X85230009Y-82547080D01*
X85230009Y-82547080D02*
X85130009Y-82547080D01*
D15*
X84855009Y-82747080D02*
G75*
G02*
X84605009Y-82747080I-125000J0D01*
G01*
X84605009Y-82747080D02*
G75*
G02*
X84855009Y-82747080I125000J0D01*
G01*
%TO.C,C54*%
D14*
X80890000Y-132607836D02*
X80890000Y-132392164D01*
X81610000Y-132607836D02*
X81610000Y-132392164D01*
%TO.C,C86*%
X100740000Y-126115580D02*
X100740000Y-125834420D01*
X101760000Y-126115580D02*
X101760000Y-125834420D01*
%TO.C,R32*%
X138130259Y-88836100D02*
X138437541Y-88836100D01*
X138130259Y-89596100D02*
X138437541Y-89596100D01*
%TO.C,R33*%
X133903900Y-93119741D02*
X133903900Y-92812459D01*
X134663900Y-93119741D02*
X134663900Y-92812459D01*
%TO.C,R18*%
X76620000Y-132653641D02*
X76620000Y-132346359D01*
X77380000Y-132653641D02*
X77380000Y-132346359D01*
%TO.C,U8*%
X121202500Y-120140000D02*
X123022500Y-120140000D01*
X121202500Y-120190000D02*
X121202500Y-120140000D01*
X121202500Y-123260000D02*
X121202500Y-123210000D01*
X123022500Y-120140000D02*
X123022500Y-120190000D01*
X123022500Y-123210000D02*
X123022500Y-123260000D01*
X123022500Y-123260000D02*
X121202500Y-123260000D01*
X120662500Y-120190000D02*
X120422500Y-119860000D01*
X120902500Y-119860000D01*
X120662500Y-120190000D01*
G36*
X120662500Y-120190000D02*
G01*
X120422500Y-119860000D01*
X120902500Y-119860000D01*
X120662500Y-120190000D01*
G37*
%TO.C,C75*%
X111486509Y-130205000D02*
X112009013Y-130205000D01*
X111486509Y-131675000D02*
X112009013Y-131675000D01*
%TO.C,C61*%
X138176064Y-86856100D02*
X138391736Y-86856100D01*
X138176064Y-87576100D02*
X138391736Y-87576100D01*
%TO.C,C43*%
X107140000Y-44357836D02*
X107140000Y-44142164D01*
X107860000Y-44357836D02*
X107860000Y-44142164D01*
%TO.C,C2*%
X163109420Y-96240000D02*
X163390580Y-96240000D01*
X163109420Y-97260000D02*
X163390580Y-97260000D01*
%TO.C,C56*%
X134890000Y-113357836D02*
X134890000Y-113142164D01*
X135610000Y-113357836D02*
X135610000Y-113142164D01*
%TO.C,R30*%
X138130259Y-89836100D02*
X138437541Y-89836100D01*
X138130259Y-90596100D02*
X138437541Y-90596100D01*
%TO.C,J5*%
X119840000Y-134640000D02*
X119840000Y-135890000D01*
X120140000Y-136250000D02*
X120750000Y-136250000D01*
X120140000Y-137550000D02*
X120750000Y-137550000D01*
X120750000Y-135550000D02*
X120750000Y-139050000D01*
X120750000Y-139050000D02*
X125650000Y-139050000D01*
X121090000Y-134640000D02*
X119840000Y-134640000D01*
X121600000Y-134740000D02*
X121600000Y-134940000D01*
X121900000Y-134740000D02*
X121600000Y-134740000D01*
X121900000Y-134840000D02*
X121600000Y-134840000D01*
X121900000Y-134940000D02*
X121900000Y-134740000D01*
X122700000Y-134940000D02*
X122700000Y-135550000D01*
X122700000Y-135550000D02*
X120750000Y-135550000D01*
X123100000Y-138550000D02*
X123300000Y-138550000D01*
X123100000Y-139050000D02*
X123100000Y-138550000D01*
X123200000Y-139050000D02*
X123200000Y-138550000D01*
X123300000Y-138550000D02*
X123300000Y-139050000D01*
X123700000Y-135550000D02*
X123700000Y-134940000D01*
X125650000Y-135550000D02*
X123700000Y-135550000D01*
X125650000Y-139050000D02*
X125650000Y-135550000D01*
X126260000Y-136250000D02*
X125650000Y-136250000D01*
X126260000Y-137550000D02*
X125650000Y-137550000D01*
X120140000Y-134940000D02*
X126260000Y-134940000D01*
X126260000Y-139660000D01*
X120140000Y-139660000D01*
X120140000Y-134940000D01*
%TO.C,R15*%
X111870000Y-65346359D02*
X111870000Y-65653641D01*
X112630000Y-65346359D02*
X112630000Y-65653641D01*
%TO.C,R60*%
X97870000Y-130878641D02*
X97870000Y-130571359D01*
X98630000Y-130878641D02*
X98630000Y-130571359D01*
%TO.C,C80*%
X121609420Y-123740000D02*
X121890580Y-123740000D01*
X121609420Y-124760000D02*
X121890580Y-124760000D01*
%TO.C,R22*%
X130630259Y-99370000D02*
X130937541Y-99370000D01*
X130630259Y-100130000D02*
X130937541Y-100130000D01*
%TO.C,C38*%
X150690000Y-84940580D02*
X150690000Y-84659420D01*
X151710000Y-84940580D02*
X151710000Y-84659420D01*
%TO.C,Y1*%
X142115000Y-95935000D02*
X142115000Y-93325000D01*
X142655000Y-95935000D02*
X142115000Y-95935000D01*
X145535000Y-93335000D02*
X145535000Y-95615000D01*
%TO.C,U7*%
X113840000Y-120640000D02*
X113840000Y-119340000D01*
X116160000Y-120640000D02*
X116160000Y-119590000D01*
X116160000Y-119230000D02*
X116160000Y-118950000D01*
X116440000Y-119230000D01*
X116160000Y-119230000D01*
G36*
X116440000Y-119230000D02*
G01*
X116160000Y-119230000D01*
X116160000Y-118950000D01*
X116440000Y-119230000D01*
G37*
%TO.C,R49*%
X112620000Y-119336359D02*
X112620000Y-119643641D01*
X113380000Y-119336359D02*
X113380000Y-119643641D01*
%TO.C,M15*%
D11*
X131763147Y-113477762D02*
X131863147Y-113477762D01*
X131763147Y-116977762D02*
X131763147Y-113477762D01*
X132663147Y-113477762D02*
X133463147Y-113477762D01*
X132763147Y-116977762D02*
X131763147Y-116977762D01*
X134263147Y-113477762D02*
X134363147Y-113477762D01*
X134363147Y-113477762D02*
X134363147Y-116877762D01*
X134363147Y-116977762D02*
X133363147Y-116977762D01*
D15*
X132388147Y-113277762D02*
G75*
G02*
X132138147Y-113277762I-125000J0D01*
G01*
X132138147Y-113277762D02*
G75*
G02*
X132388147Y-113277762I125000J0D01*
G01*
%TO.C,U5*%
D14*
X167150000Y-87920000D02*
X165925000Y-87920000D01*
X167150000Y-90680000D02*
X165600000Y-90680000D01*
X165600000Y-87920000D02*
X165320000Y-87920000D01*
X165600000Y-87640000D01*
X165600000Y-87920000D01*
G36*
X165600000Y-87920000D02*
G01*
X165320000Y-87920000D01*
X165600000Y-87640000D01*
X165600000Y-87920000D01*
G37*
%TO.C,U6*%
X110137761Y-129350000D02*
X110137761Y-129580000D01*
X110137761Y-129580000D02*
X111112761Y-129580000D01*
X110427761Y-126360000D02*
X111112761Y-126360000D01*
X112382761Y-126360000D02*
X113357761Y-126360000D01*
X112382761Y-129580000D02*
X113357761Y-129580000D01*
X113357761Y-126360000D02*
X113357761Y-126590000D01*
X113357761Y-129350000D02*
X113357761Y-129580000D01*
X110107761Y-126360000D02*
X109827761Y-126360000D01*
X110107761Y-126080000D01*
X110107761Y-126360000D01*
G36*
X110107761Y-126360000D02*
G01*
X109827761Y-126360000D01*
X110107761Y-126080000D01*
X110107761Y-126360000D01*
G37*
%TO.C,R29*%
X138646359Y-99820000D02*
X138953641Y-99820000D01*
X138646359Y-100580000D02*
X138953641Y-100580000D01*
%TO.C,R40*%
X117120000Y-113413641D02*
X117120000Y-113106359D01*
X117880000Y-113413641D02*
X117880000Y-113106359D01*
%TO.C,R50*%
X113867761Y-130093641D02*
X113867761Y-129786359D01*
X114627761Y-130093641D02*
X114627761Y-129786359D01*
%TO.C,R6*%
X120370000Y-81846359D02*
X120370000Y-82153641D01*
X121130000Y-81846359D02*
X121130000Y-82153641D01*
%TO.C,J6*%
X127890000Y-134640000D02*
X127890000Y-135890000D01*
X128190000Y-136250000D02*
X128800000Y-136250000D01*
X128190000Y-137550000D02*
X128800000Y-137550000D01*
X128800000Y-135550000D02*
X128800000Y-139050000D01*
X128800000Y-139050000D02*
X141700000Y-139050000D01*
X129140000Y-134640000D02*
X127890000Y-134640000D01*
X129650000Y-134740000D02*
X129650000Y-134940000D01*
X129950000Y-134740000D02*
X129650000Y-134740000D01*
X129950000Y-134840000D02*
X129650000Y-134840000D01*
X129950000Y-134940000D02*
X129950000Y-134740000D01*
X130750000Y-134940000D02*
X130750000Y-135550000D01*
X130750000Y-135550000D02*
X128800000Y-135550000D01*
X131150000Y-138550000D02*
X131350000Y-138550000D01*
X131150000Y-139050000D02*
X131150000Y-138550000D01*
X131250000Y-139050000D02*
X131250000Y-138550000D01*
X131350000Y-138550000D02*
X131350000Y-139050000D01*
X133150000Y-138550000D02*
X133350000Y-138550000D01*
X133150000Y-139050000D02*
X133150000Y-138550000D01*
X133250000Y-139050000D02*
X133250000Y-138550000D01*
X133350000Y-138550000D02*
X133350000Y-139050000D01*
X135150000Y-138550000D02*
X135350000Y-138550000D01*
X135150000Y-139050000D02*
X135150000Y-138550000D01*
X135250000Y-139050000D02*
X135250000Y-138550000D01*
X135350000Y-138550000D02*
X135350000Y-139050000D01*
X137150000Y-138550000D02*
X137350000Y-138550000D01*
X137150000Y-139050000D02*
X137150000Y-138550000D01*
X137250000Y-139050000D02*
X137250000Y-138550000D01*
X137350000Y-138550000D02*
X137350000Y-139050000D01*
X139150000Y-138550000D02*
X139350000Y-138550000D01*
X139150000Y-139050000D02*
X139150000Y-138550000D01*
X139250000Y-139050000D02*
X139250000Y-138550000D01*
X139350000Y-138550000D02*
X139350000Y-139050000D01*
X139750000Y-135550000D02*
X139750000Y-134940000D01*
X141700000Y-135550000D02*
X139750000Y-135550000D01*
X141700000Y-139050000D02*
X141700000Y-135550000D01*
X142310000Y-136250000D02*
X141700000Y-136250000D01*
X142310000Y-137550000D02*
X141700000Y-137550000D01*
X128190000Y-134940000D02*
X142310000Y-134940000D01*
X142310000Y-139660000D01*
X128190000Y-139660000D01*
X128190000Y-134940000D01*
%TO.C,C76*%
X113887761Y-128047836D02*
X113887761Y-127832164D01*
X114607761Y-128047836D02*
X114607761Y-127832164D01*
%TO.C,R59*%
X174503641Y-101420000D02*
X174196359Y-101420000D01*
X174503641Y-102180000D02*
X174196359Y-102180000D01*
%TO.C,J3*%
D13*
X169225000Y-82700000D02*
X171225000Y-82700000D01*
X169225000Y-85450000D02*
X169225000Y-82700000D01*
X171225000Y-80200000D02*
X178475000Y-80200000D01*
X171225000Y-82700000D02*
X171225000Y-80200000D01*
X171225000Y-95450000D02*
X178475000Y-95450000D01*
X181225000Y-80200000D02*
X183725000Y-80200000D01*
X181225000Y-95450000D02*
X183725000Y-95450000D01*
D15*
X168600000Y-84950000D02*
G75*
G02*
X168350000Y-84950000I-125000J0D01*
G01*
X168350000Y-84950000D02*
G75*
G02*
X168600000Y-84950000I125000J0D01*
G01*
%TO.C,R54*%
D14*
X97346359Y-128370000D02*
X97653641Y-128370000D01*
X97346359Y-129130000D02*
X97653641Y-129130000D01*
%TO.C,D1*%
D13*
X94200000Y-130980000D02*
X96490000Y-130980000D01*
X96490000Y-129520000D02*
X94200000Y-129520000D01*
X96490000Y-130980000D02*
X96490000Y-129520000D01*
%TO.C,C52*%
D14*
X108140000Y-75607836D02*
X108140000Y-75392164D01*
X108860000Y-75607836D02*
X108860000Y-75392164D01*
%TO.C,S2*%
D16*
X147550000Y-78250000D02*
X147780000Y-78250000D01*
X147550000Y-82250000D02*
X147550000Y-78250000D01*
X147550000Y-82250000D02*
X147780000Y-82250000D01*
X150220000Y-78250000D02*
X150450000Y-78250000D01*
X150450000Y-78250000D02*
X150450000Y-82250000D01*
X150450000Y-82250000D02*
X150220000Y-82250000D01*
%TO.C,R56*%
D14*
X174770000Y-104246359D02*
X174770000Y-104553641D01*
X175530000Y-104246359D02*
X175530000Y-104553641D01*
%TO.C,U1*%
X146490000Y-101510000D02*
X146490000Y-88290000D01*
X147490000Y-87290000D02*
X160710000Y-87290000D01*
X160710000Y-87290000D02*
X160710000Y-101510000D01*
X160710000Y-101510000D02*
X146490000Y-101510000D01*
X146490000Y-87290000D02*
X145990000Y-87290000D01*
X146490000Y-86790000D01*
X146490000Y-87290000D01*
G36*
X146490000Y-87290000D02*
G01*
X145990000Y-87290000D01*
X146490000Y-86790000D01*
X146490000Y-87290000D01*
G37*
%TO.C,C49*%
X180640000Y-61392164D02*
X180640000Y-61607836D01*
X181360000Y-61392164D02*
X181360000Y-61607836D01*
%TO.C,D2*%
D13*
X94200000Y-129480000D02*
X96490000Y-129480000D01*
X96490000Y-128020000D02*
X94200000Y-128020000D01*
X96490000Y-129480000D02*
X96490000Y-128020000D01*
%TO.C,R17*%
D14*
X64596359Y-75620000D02*
X64903641Y-75620000D01*
X64596359Y-76380000D02*
X64903641Y-76380000D01*
%TO.C,Q2*%
X163200000Y-135450000D02*
X163200000Y-139050000D01*
X163200000Y-139050000D02*
X166800000Y-139050000D01*
X166800000Y-135450000D02*
X163200000Y-135450000D01*
X166800000Y-139050000D02*
X166800000Y-135450000D01*
%TO.C,J7*%
X154675000Y-79635000D02*
X154675000Y-83265000D01*
X154740000Y-79635000D02*
X154675000Y-79635000D01*
X154740000Y-83265000D02*
X154675000Y-83265000D01*
X161180000Y-78360000D02*
X161180000Y-79635000D01*
X161245000Y-79635000D02*
X161180000Y-79635000D01*
X161245000Y-79635000D02*
X161245000Y-83265000D01*
X161245000Y-83265000D02*
X161180000Y-83265000D01*
%TO.C,M9*%
D11*
X60913060Y-72819845D02*
X61913060Y-72819845D01*
X60913060Y-76319845D02*
X60913060Y-72919845D01*
X61013060Y-76319845D02*
X60913060Y-76319845D01*
X62513060Y-72819845D02*
X63513060Y-72819845D01*
X62613060Y-76319845D02*
X61813060Y-76319845D01*
X63513060Y-72819845D02*
X63513060Y-76319845D01*
X63513060Y-76319845D02*
X63413060Y-76319845D01*
D15*
X63138060Y-76519845D02*
G75*
G02*
X62888060Y-76519845I-125000J0D01*
G01*
X62888060Y-76519845D02*
G75*
G02*
X63138060Y-76519845I125000J0D01*
G01*
%TO.C,R57*%
D14*
X174770000Y-100353641D02*
X174770000Y-100046359D01*
X175530000Y-100353641D02*
X175530000Y-100046359D01*
%TO.C,R19*%
X98620000Y-100153641D02*
X98620000Y-99846359D01*
X99380000Y-100153641D02*
X99380000Y-99846359D01*
%TO.C,C47*%
X124890000Y-101642164D02*
X124890000Y-101857836D01*
X125610000Y-101642164D02*
X125610000Y-101857836D01*
%TO.C,C77*%
X115392164Y-117630000D02*
X115607836Y-117630000D01*
X115392164Y-118350000D02*
X115607836Y-118350000D01*
%TO.C,C51*%
X107640000Y-64357836D02*
X107640000Y-64142164D01*
X108360000Y-64357836D02*
X108360000Y-64142164D01*
%TO.C,R14*%
X129620000Y-78346359D02*
X129620000Y-78653641D01*
X130380000Y-78346359D02*
X130380000Y-78653641D01*
%TO.C,L2*%
X105377761Y-125950000D02*
X105377761Y-129930000D01*
X109617761Y-125950000D02*
X109617761Y-129930000D01*
%TO.C,C45*%
X81390000Y-81607836D02*
X81390000Y-81392164D01*
X82110000Y-81607836D02*
X82110000Y-81392164D01*
%TO.C,C6*%
X142988748Y-82765000D02*
X143511252Y-82765000D01*
X142988748Y-84235000D02*
X143511252Y-84235000D01*
%TO.C,R7*%
X111120000Y-45096359D02*
X111120000Y-45403641D01*
X111880000Y-45096359D02*
X111880000Y-45403641D01*
%TO.C,M4*%
D11*
X121422206Y-81089294D02*
X121522206Y-81089294D01*
X121422206Y-84589294D02*
X121422206Y-81089294D01*
X122322206Y-81089294D02*
X123122206Y-81089294D01*
X122422206Y-84589294D02*
X121422206Y-84589294D01*
X123922206Y-81089294D02*
X124022206Y-81089294D01*
X124022206Y-81089294D02*
X124022206Y-84489294D01*
X124022206Y-84589294D02*
X123022206Y-84589294D01*
D15*
X122047206Y-80889294D02*
G75*
G02*
X121797206Y-80889294I-125000J0D01*
G01*
X121797206Y-80889294D02*
G75*
G02*
X122047206Y-80889294I125000J0D01*
G01*
%TO.C,R3*%
D14*
X139620000Y-107153641D02*
X139620000Y-106846359D01*
X140380000Y-107153641D02*
X140380000Y-106846359D01*
%TO.C,C66*%
X136923900Y-96823936D02*
X136923900Y-96608264D01*
X137643900Y-96823936D02*
X137643900Y-96608264D01*
%TD*%
%LPC*%
D19*
%TO.C,R69*%
X122990000Y-128250000D03*
X124010000Y-128250000D03*
%TD*%
%TO.C,R68*%
X122990000Y-129750000D03*
X124010000Y-129750000D03*
%TD*%
D20*
%TO.C,D5*%
X126790000Y-128250000D03*
X125210000Y-128250000D03*
%TD*%
%TO.C,D4*%
X126790000Y-129750000D03*
X125210000Y-129750000D03*
%TD*%
D21*
%TO.C,J2*%
X116500000Y-111000000D03*
X116000000Y-111000000D03*
X115500000Y-111000000D03*
X115000000Y-111000000D03*
X114500000Y-111000000D03*
X114000000Y-111000000D03*
X113500000Y-111000000D03*
X113000000Y-111000000D03*
X112500000Y-111000000D03*
X112000000Y-111000000D03*
X111500000Y-111000000D03*
X111000000Y-111000000D03*
X110500000Y-111000000D03*
X110000000Y-111000000D03*
X109500000Y-111000000D03*
X109000000Y-111000000D03*
X108500000Y-111000000D03*
X108000000Y-111000000D03*
X107500000Y-111000000D03*
X107000000Y-111000000D03*
X106500000Y-111000000D03*
X106000000Y-111000000D03*
X105500000Y-111000000D03*
X105000000Y-111000000D03*
D22*
X118400000Y-107750000D03*
X103100000Y-107750000D03*
%TD*%
D21*
%TO.C,J1*%
X166250000Y-133000000D03*
X165750000Y-133000000D03*
X165250000Y-133000000D03*
X164750000Y-133000000D03*
X164250000Y-133000000D03*
X163750000Y-133000000D03*
X163250000Y-133000000D03*
X162750000Y-133000000D03*
X162250000Y-133000000D03*
X161750000Y-133000000D03*
X161250000Y-133000000D03*
X160750000Y-133000000D03*
X160250000Y-133000000D03*
X159750000Y-133000000D03*
X159250000Y-133000000D03*
X158750000Y-133000000D03*
X158250000Y-133000000D03*
X157750000Y-133000000D03*
X157250000Y-133000000D03*
X156750000Y-133000000D03*
X156250000Y-133000000D03*
X155750000Y-133000000D03*
X155250000Y-133000000D03*
X154750000Y-133000000D03*
X154250000Y-133000000D03*
X153750000Y-133000000D03*
X153250000Y-133000000D03*
X152750000Y-133000000D03*
X152250000Y-133000000D03*
X151750000Y-133000000D03*
X151250000Y-133000000D03*
X150750000Y-133000000D03*
X150250000Y-133000000D03*
X149750000Y-133000000D03*
X149250000Y-133000000D03*
X148750000Y-133000000D03*
X148250000Y-133000000D03*
X147750000Y-133000000D03*
X147250000Y-133000000D03*
X146750000Y-133000000D03*
D22*
X168150000Y-129750000D03*
X144850000Y-129750000D03*
%TD*%
D23*
%TO.C,C5*%
X155250000Y-103475000D03*
X155250000Y-105025000D03*
%TD*%
D24*
%TO.C,C3*%
X152750000Y-85550000D03*
X152750000Y-84000000D03*
%TD*%
D19*
%TO.C,R26*%
X130273900Y-88966100D03*
X131293900Y-88966100D03*
%TD*%
D25*
%TO.C,R58*%
X174860000Y-102800000D03*
X173840000Y-102800000D03*
%TD*%
D19*
%TO.C,R53*%
X96990000Y-127250000D03*
X98010000Y-127250000D03*
%TD*%
D26*
%TO.C,R52*%
X118000000Y-120760000D03*
X118000000Y-119740000D03*
%TD*%
D27*
%TO.C,H2*%
X62800000Y-137000000D03*
%TD*%
D24*
%TO.C,C85*%
X120750000Y-127637500D03*
X120750000Y-126087500D03*
%TD*%
D28*
%TO.C,M14*%
X123288169Y-103466360D03*
D29*
X122450669Y-101392360D03*
X122450669Y-102214360D03*
D30*
X122788169Y-103006911D03*
D31*
X122828720Y-103966360D03*
D32*
X123747618Y-102966360D03*
D33*
X123788169Y-103925809D03*
D29*
X124125669Y-102214360D03*
X124125669Y-101392360D03*
%TD*%
D34*
%TO.C,C39*%
X141500000Y-93770000D03*
X141500000Y-94730000D03*
%TD*%
D35*
%TO.C,U9*%
X101500000Y-128225000D03*
X101000000Y-128225000D03*
X100500000Y-128225000D03*
X100000000Y-128225000D03*
X99500000Y-128225000D03*
X99500000Y-131100000D03*
X100000000Y-131100000D03*
X100500000Y-131100000D03*
X101000000Y-131100000D03*
X101500000Y-131100000D03*
D36*
X100500000Y-129662500D03*
%TD*%
D37*
%TO.C,R13*%
X177000000Y-60990000D03*
X177000000Y-62010000D03*
%TD*%
D38*
%TO.C,L3*%
X125150000Y-120750000D03*
X128850000Y-120750000D03*
%TD*%
D34*
%TO.C,C50*%
X134000000Y-78040000D03*
X134000000Y-79000000D03*
%TD*%
D37*
%TO.C,R35*%
X174500000Y-136990000D03*
X174500000Y-138010000D03*
%TD*%
D39*
%TO.C,C1*%
X141980000Y-92250000D03*
X141020000Y-92250000D03*
%TD*%
D28*
%TO.C,M7*%
X110584860Y-73893044D03*
D29*
X111422360Y-75967044D03*
X111422360Y-75145044D03*
D33*
X111084860Y-74352493D03*
D32*
X111044309Y-73393044D03*
D31*
X110125411Y-74393044D03*
D30*
X110084860Y-73433595D03*
D29*
X109747360Y-75145044D03*
X109747360Y-75967044D03*
%TD*%
D37*
%TO.C,R36*%
X173500000Y-136990000D03*
X173500000Y-138010000D03*
%TD*%
%TO.C,R21*%
X131283900Y-97490000D03*
X131283900Y-98510000D03*
%TD*%
D40*
%TO.C,S1*%
X152500000Y-82325000D03*
X152500000Y-78175000D03*
%TD*%
D41*
%TO.C,U10*%
X119250000Y-125112500D03*
X118300000Y-125112500D03*
X117350000Y-125112500D03*
X117350000Y-127387500D03*
X119250000Y-127387500D03*
%TD*%
D37*
%TO.C,R5*%
X146750000Y-71990000D03*
X146750000Y-73010000D03*
%TD*%
D42*
%TO.C,C63*%
X137803900Y-91216100D03*
X138763900Y-91216100D03*
%TD*%
D43*
%TO.C,TH1*%
X89750000Y-131250000D03*
D44*
X89750000Y-129250000D03*
%TD*%
D45*
%TO.C,C37*%
X162475000Y-98400000D03*
X164025000Y-98400000D03*
%TD*%
D34*
%TO.C,C73*%
X111250000Y-112770000D03*
X111250000Y-113730000D03*
%TD*%
D28*
%TO.C,M6*%
X109494452Y-42667852D03*
D29*
X110331952Y-44741852D03*
X110331952Y-43919852D03*
D33*
X109994452Y-43127301D03*
D32*
X109953901Y-42167852D03*
D31*
X109035003Y-43167852D03*
D30*
X108994452Y-42208403D03*
D29*
X108656952Y-43919852D03*
X108656952Y-44741852D03*
%TD*%
D45*
%TO.C,C69*%
X152725000Y-135000000D03*
X154275000Y-135000000D03*
%TD*%
D46*
%TO.C,J4*%
X178350000Y-105490000D03*
X178350000Y-99710000D03*
D47*
X176905000Y-105850000D03*
X176905000Y-105050000D03*
D48*
X176905000Y-103850000D03*
X176905000Y-102850000D03*
X176905000Y-102350000D03*
X176905000Y-101350000D03*
D47*
X176905000Y-100150000D03*
X176905000Y-99350000D03*
X176905000Y-99350000D03*
X176905000Y-100150000D03*
D48*
X176905000Y-100850000D03*
X176905000Y-101850000D03*
X176905000Y-103350000D03*
X176905000Y-104350000D03*
D47*
X176905000Y-105050000D03*
X176905000Y-105850000D03*
D49*
X177820000Y-106920000D03*
D50*
X182000000Y-106920000D03*
D49*
X177820000Y-98280000D03*
D50*
X182000000Y-98280000D03*
%TD*%
D25*
%TO.C,R37*%
X168510000Y-137250000D03*
X167490000Y-137250000D03*
%TD*%
D19*
%TO.C,R31*%
X137773900Y-88216100D03*
X138793900Y-88216100D03*
%TD*%
D51*
%TO.C,U3*%
X135783900Y-87283900D03*
X135283901Y-87283900D03*
X134783900Y-87283900D03*
X134283900Y-87283900D03*
X133783899Y-87283900D03*
X133283900Y-87283900D03*
D52*
X132567800Y-88000000D03*
X132567800Y-88499999D03*
X132567800Y-89000000D03*
X132567800Y-89500000D03*
X132567800Y-90000001D03*
X132567800Y-90500000D03*
D51*
X133283900Y-91216100D03*
X133783899Y-91216100D03*
X134283900Y-91216100D03*
X134783900Y-91216100D03*
X135283901Y-91216100D03*
X135783900Y-91216100D03*
D52*
X136500000Y-90500000D03*
X136500000Y-90000001D03*
X136500000Y-89500000D03*
X136500000Y-89000000D03*
X136500000Y-88499999D03*
X136500000Y-88000000D03*
D53*
X134533900Y-89250000D03*
%TD*%
D19*
%TO.C,R39*%
X164240000Y-134750000D03*
X165260000Y-134750000D03*
%TD*%
D28*
%TO.C,M5*%
X110195447Y-62741736D03*
D29*
X111032947Y-64815736D03*
X111032947Y-63993736D03*
D33*
X110695447Y-63201185D03*
D32*
X110654896Y-62241736D03*
D31*
X109735998Y-63241736D03*
D30*
X109695447Y-62282287D03*
D29*
X109357947Y-63993736D03*
X109357947Y-64815736D03*
%TD*%
D42*
%TO.C,C62*%
X137803900Y-98216100D03*
X138763900Y-98216100D03*
%TD*%
D54*
%TO.C,U2*%
X146870000Y-108910000D03*
X146870000Y-107640000D03*
X146870000Y-106360000D03*
X146870000Y-105090000D03*
X141630000Y-105090000D03*
X141630000Y-106360000D03*
X141630000Y-107640000D03*
X141630000Y-108910000D03*
%TD*%
D19*
%TO.C,R27*%
X130283900Y-90216100D03*
X131303900Y-90216100D03*
%TD*%
D37*
%TO.C,R2*%
X140000000Y-103990000D03*
X140000000Y-105010000D03*
%TD*%
D28*
%TO.C,M13*%
X101206250Y-102455685D03*
D29*
X100368750Y-100381685D03*
X100368750Y-101203685D03*
D30*
X100706250Y-101996236D03*
D31*
X100746801Y-102955685D03*
D32*
X101665699Y-101955685D03*
D33*
X101706250Y-102915134D03*
D29*
X102043750Y-101203685D03*
X102043750Y-100381685D03*
%TD*%
D26*
%TO.C,R34*%
X134250000Y-104510000D03*
X134250000Y-103490000D03*
%TD*%
D25*
%TO.C,R48*%
X114010000Y-117990000D03*
X112990000Y-117990000D03*
%TD*%
D39*
%TO.C,C81*%
X123730000Y-119500000D03*
X122770000Y-119500000D03*
%TD*%
D25*
%TO.C,R20*%
X131010000Y-113750000D03*
X129990000Y-113750000D03*
%TD*%
D37*
%TO.C,R51*%
X117000000Y-119730000D03*
X117000000Y-120750000D03*
%TD*%
D27*
%TO.C,H1*%
X62800000Y-42800000D03*
%TD*%
D55*
%TO.C,Q1*%
X172000000Y-138200000D03*
X172000000Y-136300000D03*
X170000000Y-137250000D03*
%TD*%
D56*
%TO.C,C83*%
X126950000Y-126500000D03*
X125050000Y-126500000D03*
%TD*%
D34*
%TO.C,C72*%
X112250000Y-112770000D03*
X112250000Y-113730000D03*
%TD*%
D57*
%TO.C,U11*%
X172350000Y-103300000D03*
X172350000Y-102350000D03*
X172350000Y-101400000D03*
X170075000Y-101400000D03*
X170075000Y-102350000D03*
X170075000Y-103300000D03*
%TD*%
D34*
%TO.C,C70*%
X115000000Y-112770000D03*
X115000000Y-113730000D03*
%TD*%
D58*
%TO.C,BT1*%
X106250000Y-135750000D03*
D59*
X100250000Y-135750000D03*
%TD*%
D23*
%TO.C,C71*%
X116250000Y-112975000D03*
X116250000Y-114525000D03*
%TD*%
%TO.C,C84*%
X115750000Y-125087500D03*
X115750000Y-126637500D03*
%TD*%
D39*
%TO.C,C40*%
X139960000Y-109000000D03*
X139000000Y-109000000D03*
%TD*%
D26*
%TO.C,R12*%
X148500000Y-136270000D03*
X148500000Y-135250000D03*
%TD*%
D28*
%TO.C,M3*%
X132044336Y-80196317D03*
D29*
X131206836Y-78122317D03*
X131206836Y-78944317D03*
D30*
X131544336Y-79736868D03*
D31*
X131584887Y-80696317D03*
D32*
X132503785Y-79696317D03*
D33*
X132544336Y-80655766D03*
D29*
X132881836Y-78944317D03*
X132881836Y-78122317D03*
%TD*%
D37*
%TO.C,R9*%
X86000000Y-82240000D03*
X86000000Y-83260000D03*
%TD*%
D42*
%TO.C,C67*%
X150520000Y-134750000D03*
X151480000Y-134750000D03*
%TD*%
D34*
%TO.C,C48*%
X152750000Y-136520000D03*
X152750000Y-137480000D03*
%TD*%
D37*
%TO.C,R16*%
X112750000Y-75990000D03*
X112750000Y-77010000D03*
%TD*%
D28*
%TO.C,M2*%
X148825449Y-74088491D03*
D29*
X147987949Y-72014491D03*
X147987949Y-72836491D03*
D30*
X148325449Y-73629042D03*
D31*
X148366000Y-74588491D03*
D32*
X149284898Y-73588491D03*
D33*
X149325449Y-74547940D03*
D29*
X149662949Y-72836491D03*
X149662949Y-72014491D03*
%TD*%
D60*
%TO.C,C4*%
X144775000Y-92250000D03*
X143225000Y-92250000D03*
%TD*%
D61*
%TO.C,C44*%
X94000000Y-85480000D03*
X94000000Y-84520000D03*
%TD*%
D62*
%TO.C,C78*%
X110547761Y-122940000D03*
X112447761Y-122940000D03*
%TD*%
D28*
%TO.C,M16*%
X150659449Y-138500000D03*
D29*
X149821949Y-136426000D03*
X149821949Y-137248000D03*
D30*
X150159449Y-138040551D03*
D31*
X150200000Y-139000000D03*
D32*
X151118898Y-138000000D03*
D33*
X151159449Y-138959449D03*
D29*
X151496949Y-137248000D03*
X151496949Y-136426000D03*
%TD*%
D62*
%TO.C,C7*%
X142300000Y-85500000D03*
X144200000Y-85500000D03*
%TD*%
D26*
%TO.C,R10*%
X91250000Y-112010000D03*
X91250000Y-110990000D03*
%TD*%
%TO.C,R11*%
X121250000Y-101250000D03*
X121250000Y-100230000D03*
%TD*%
D37*
%TO.C,R55*%
X97250000Y-130240000D03*
X97250000Y-131260000D03*
%TD*%
D20*
%TO.C,D3*%
X95790000Y-127250000D03*
X94210000Y-127250000D03*
%TD*%
D19*
%TO.C,R28*%
X132273900Y-92466100D03*
X133293900Y-92466100D03*
%TD*%
D28*
%TO.C,M1*%
X179033753Y-63093568D03*
D29*
X178196253Y-61019568D03*
X178196253Y-61841568D03*
D30*
X178533753Y-62634119D03*
D31*
X178574304Y-63593568D03*
D32*
X179493202Y-62593568D03*
D33*
X179533753Y-63553017D03*
D29*
X179871253Y-61841568D03*
X179871253Y-61019568D03*
%TD*%
D61*
%TO.C,C65*%
X137033900Y-86196100D03*
X137033900Y-85236100D03*
%TD*%
D34*
%TO.C,C42*%
X124750000Y-81520000D03*
X124750000Y-82480000D03*
%TD*%
D61*
%TO.C,C58*%
X135533900Y-96946100D03*
X135533900Y-95986100D03*
%TD*%
D24*
%TO.C,C87*%
X103000000Y-131000000D03*
X103000000Y-129450000D03*
%TD*%
D61*
%TO.C,C59*%
X134533900Y-86196100D03*
X134533900Y-85236100D03*
%TD*%
D37*
%TO.C,R25*%
X132283900Y-85206100D03*
X132283900Y-86226100D03*
%TD*%
D61*
%TO.C,C53*%
X60250000Y-75980000D03*
X60250000Y-75020000D03*
%TD*%
D42*
%TO.C,C64*%
X137803900Y-101216100D03*
X138763900Y-101216100D03*
%TD*%
D51*
%TO.C,U4*%
X135783900Y-98033900D03*
X135283901Y-98033900D03*
X134783900Y-98033900D03*
X134283900Y-98033900D03*
X133783899Y-98033900D03*
X133283900Y-98033900D03*
D52*
X132567800Y-98750000D03*
X132567800Y-99249999D03*
X132567800Y-99750000D03*
X132567800Y-100250000D03*
X132567800Y-100750001D03*
X132567800Y-101250000D03*
D51*
X133283900Y-101966100D03*
X133783899Y-101966100D03*
X134283900Y-101966100D03*
X134783900Y-101966100D03*
X135283901Y-101966100D03*
X135783900Y-101966100D03*
D52*
X136500000Y-101250000D03*
X136500000Y-100750001D03*
X136500000Y-100250000D03*
X136500000Y-99750000D03*
X136500000Y-99249999D03*
X136500000Y-98750000D03*
D53*
X134533900Y-100000000D03*
%TD*%
D61*
%TO.C,C60*%
X134533900Y-96946100D03*
X134533900Y-95986100D03*
%TD*%
D62*
%TO.C,C79*%
X110547761Y-124940000D03*
X112447761Y-124940000D03*
%TD*%
D28*
%TO.C,M12*%
X93312665Y-114158407D03*
D29*
X92475165Y-112084407D03*
X92475165Y-112906407D03*
D30*
X92812665Y-113698958D03*
D31*
X92853216Y-114658407D03*
D32*
X93772114Y-113658407D03*
D33*
X93812665Y-114617856D03*
D29*
X94150165Y-112906407D03*
X94150165Y-112084407D03*
%TD*%
D28*
%TO.C,M8*%
X95994061Y-83506392D03*
D29*
X96831561Y-85580392D03*
X96831561Y-84758392D03*
D33*
X96494061Y-83965841D03*
D32*
X96453510Y-83006392D03*
D31*
X95534612Y-84006392D03*
D30*
X95494061Y-83046943D03*
D29*
X95156561Y-84758392D03*
X95156561Y-85580392D03*
%TD*%
D26*
%TO.C,R24*%
X133283900Y-104510000D03*
X133283900Y-103490000D03*
%TD*%
D56*
%TO.C,C82*%
X126950000Y-124500000D03*
X125050000Y-124500000D03*
%TD*%
D25*
%TO.C,R4*%
X149010000Y-84000000D03*
X147990000Y-84000000D03*
%TD*%
D34*
%TO.C,C41*%
X151000000Y-72020000D03*
X151000000Y-72980000D03*
%TD*%
D61*
%TO.C,C57*%
X135533900Y-86196100D03*
X135533900Y-85236100D03*
%TD*%
D63*
%TO.C,L1*%
X143250000Y-90500000D03*
X143250000Y-87500000D03*
%TD*%
D19*
%TO.C,R8*%
X97990000Y-85500000D03*
X99010000Y-85500000D03*
%TD*%
D25*
%TO.C,R38*%
X168510000Y-138250000D03*
X167490000Y-138250000D03*
%TD*%
D19*
%TO.C,R23*%
X130273900Y-101000000D03*
X131293900Y-101000000D03*
%TD*%
D34*
%TO.C,C46*%
X95500000Y-112020000D03*
X95500000Y-112980000D03*
%TD*%
D28*
%TO.C,M11*%
X79103127Y-135224913D03*
D29*
X78265627Y-133150913D03*
X78265627Y-133972913D03*
D30*
X78603127Y-134765464D03*
D31*
X78643678Y-135724913D03*
D32*
X79562576Y-134724913D03*
D33*
X79603127Y-135684362D03*
D29*
X79940627Y-133972913D03*
X79940627Y-133150913D03*
%TD*%
D23*
%TO.C,C74*%
X113500000Y-113975000D03*
X113500000Y-115525000D03*
%TD*%
D34*
%TO.C,C55*%
X103250000Y-100270000D03*
X103250000Y-101230000D03*
%TD*%
D60*
%TO.C,C15*%
X144775000Y-96800000D03*
X143225000Y-96800000D03*
%TD*%
D28*
%TO.C,M10*%
X83930009Y-80047080D03*
D29*
X84767509Y-82121080D03*
X84767509Y-81299080D03*
D33*
X84430009Y-80506529D03*
D32*
X84389458Y-79547080D03*
D31*
X83470560Y-80547080D03*
D30*
X83430009Y-79587631D03*
D29*
X83092509Y-81299080D03*
X83092509Y-82121080D03*
%TD*%
D61*
%TO.C,C54*%
X81250000Y-132980000D03*
X81250000Y-132020000D03*
%TD*%
D24*
%TO.C,C86*%
X101250000Y-126750000D03*
X101250000Y-125200000D03*
%TD*%
D19*
%TO.C,R32*%
X137773900Y-89216100D03*
X138793900Y-89216100D03*
%TD*%
D26*
%TO.C,R33*%
X134283900Y-93476100D03*
X134283900Y-92456100D03*
%TD*%
%TO.C,R18*%
X77000000Y-133010000D03*
X77000000Y-131990000D03*
%TD*%
D64*
%TO.C,U8*%
X120975000Y-120750000D03*
X120975000Y-121700000D03*
X120975000Y-122650000D03*
X123250000Y-122650000D03*
X123250000Y-121700000D03*
X123250000Y-120750000D03*
%TD*%
D62*
%TO.C,C75*%
X110797761Y-130940000D03*
X112697761Y-130940000D03*
%TD*%
D42*
%TO.C,C61*%
X137803900Y-87216100D03*
X138763900Y-87216100D03*
%TD*%
D61*
%TO.C,C43*%
X107500000Y-44730000D03*
X107500000Y-43770000D03*
%TD*%
D45*
%TO.C,C2*%
X162475000Y-96750000D03*
X164025000Y-96750000D03*
%TD*%
D61*
%TO.C,C56*%
X135250000Y-113730000D03*
X135250000Y-112770000D03*
%TD*%
D19*
%TO.C,R30*%
X137773900Y-90216100D03*
X138793900Y-90216100D03*
%TD*%
D65*
%TO.C,J5*%
X122200000Y-136750000D03*
D66*
X124200000Y-136750000D03*
%TD*%
D37*
%TO.C,R15*%
X112250000Y-64990000D03*
X112250000Y-66010000D03*
%TD*%
D26*
%TO.C,R60*%
X98250000Y-131235000D03*
X98250000Y-130215000D03*
%TD*%
D45*
%TO.C,C80*%
X120975000Y-124250000D03*
X122525000Y-124250000D03*
%TD*%
D19*
%TO.C,R22*%
X130273900Y-99750000D03*
X131293900Y-99750000D03*
%TD*%
D24*
%TO.C,C38*%
X151200000Y-85575000D03*
X151200000Y-84025000D03*
%TD*%
D67*
%TO.C,Y1*%
X142900000Y-95200000D03*
X144750000Y-95200000D03*
X144750000Y-93750000D03*
X142900000Y-93750000D03*
%TD*%
D68*
%TO.C,U7*%
X115750000Y-119250000D03*
X115250000Y-119250000D03*
X114750000Y-119250000D03*
X114250000Y-119250000D03*
X114250000Y-120730000D03*
X114750000Y-120730000D03*
X115250000Y-120730000D03*
X115750000Y-120730000D03*
%TD*%
D37*
%TO.C,R49*%
X113000000Y-118980000D03*
X113000000Y-120000000D03*
%TD*%
D28*
%TO.C,M15*%
X133063147Y-115977762D03*
D29*
X132225647Y-113903762D03*
X132225647Y-114725762D03*
D30*
X132563147Y-115518313D03*
D31*
X132603698Y-116477762D03*
D32*
X133522596Y-115477762D03*
D33*
X133563147Y-116437211D03*
D29*
X133900647Y-114725762D03*
X133900647Y-113903762D03*
%TD*%
D69*
%TO.C,U5*%
X165750000Y-88300000D03*
X165750000Y-88700000D03*
X165750000Y-89100000D03*
X165750000Y-89500000D03*
X165750000Y-89900000D03*
X165750000Y-90300000D03*
X167000000Y-90300000D03*
X167000000Y-89900000D03*
X167000000Y-89500000D03*
X167000000Y-89100000D03*
X167000000Y-88700000D03*
X167000000Y-88300000D03*
D70*
X166375000Y-89300000D03*
%TD*%
D71*
%TO.C,U6*%
X110347761Y-126970000D03*
X110347761Y-127470000D03*
X110347761Y-127970000D03*
X110347761Y-128470000D03*
X110347761Y-128970000D03*
X113147761Y-128970000D03*
X113147761Y-128470000D03*
X113147761Y-127970000D03*
X113147761Y-127470000D03*
X113147761Y-126970000D03*
D72*
X111747761Y-127970000D03*
%TD*%
D19*
%TO.C,R29*%
X138290000Y-100200000D03*
X139310000Y-100200000D03*
%TD*%
D26*
%TO.C,R40*%
X117500000Y-113770000D03*
X117500000Y-112750000D03*
%TD*%
%TO.C,R50*%
X114247761Y-130450000D03*
X114247761Y-129430000D03*
%TD*%
D37*
%TO.C,R6*%
X120750000Y-81490000D03*
X120750000Y-82510000D03*
%TD*%
D65*
%TO.C,J6*%
X130250000Y-136750000D03*
D66*
X132250000Y-136750000D03*
X134250000Y-136750000D03*
X136250000Y-136750000D03*
X138250000Y-136750000D03*
X140250000Y-136750000D03*
%TD*%
D61*
%TO.C,C76*%
X114247761Y-128420000D03*
X114247761Y-127460000D03*
%TD*%
D25*
%TO.C,R59*%
X174860000Y-101800000D03*
X173840000Y-101800000D03*
%TD*%
D73*
%TO.C,J3*%
X180225000Y-93200000D03*
X180225000Y-85200000D03*
D74*
X169175000Y-86000000D03*
X169175000Y-87100000D03*
X169175000Y-88200000D03*
X169175000Y-89300000D03*
X169175000Y-90400000D03*
X169175000Y-91500000D03*
X169175000Y-92600000D03*
X169175000Y-93700000D03*
X169175000Y-94800000D03*
D75*
X170225000Y-96000000D03*
D76*
X179825000Y-96000000D03*
D77*
X170225000Y-81400000D03*
D76*
X179825000Y-80500000D03*
%TD*%
D19*
%TO.C,R54*%
X96990000Y-128750000D03*
X98010000Y-128750000D03*
%TD*%
D20*
%TO.C,D1*%
X95790000Y-130250000D03*
X94210000Y-130250000D03*
%TD*%
D61*
%TO.C,C52*%
X108500000Y-75980000D03*
X108500000Y-75020000D03*
%TD*%
D78*
%TO.C,S2*%
X149000000Y-78175000D03*
X149000000Y-82325000D03*
%TD*%
D27*
%TO.C,H4*%
X180600000Y-42800000D03*
%TD*%
D37*
%TO.C,R56*%
X175150000Y-103890000D03*
X175150000Y-104910000D03*
%TD*%
D79*
%TO.C,U1*%
X147200000Y-88000000D03*
X148000000Y-88000000D03*
X148800000Y-88000000D03*
X149600000Y-88000000D03*
X150400000Y-88000000D03*
X151200000Y-88000000D03*
X152000000Y-88000000D03*
X152800000Y-88000000D03*
X153600000Y-88000000D03*
X154400000Y-88000000D03*
X155200000Y-88000000D03*
X156000000Y-88000000D03*
X156800000Y-88000000D03*
X157600000Y-88000000D03*
X158400000Y-88000000D03*
X159200000Y-88000000D03*
X160000000Y-88000000D03*
X147200000Y-88800000D03*
X148000000Y-88800000D03*
X148800000Y-88800000D03*
X149600000Y-88800000D03*
X150400000Y-88800000D03*
X151200000Y-88800000D03*
X152000000Y-88800000D03*
X152800000Y-88800000D03*
X153600000Y-88800000D03*
X154400000Y-88800000D03*
X155200000Y-88800000D03*
X156000000Y-88800000D03*
X156800000Y-88800000D03*
X157600000Y-88800000D03*
X158400000Y-88800000D03*
X159200000Y-88800000D03*
X160000000Y-88800000D03*
X147200000Y-89600000D03*
X148000000Y-89600000D03*
X148800000Y-89600000D03*
X149600000Y-89600000D03*
X150400000Y-89600000D03*
X151200000Y-89600000D03*
X152000000Y-89600000D03*
X152800000Y-89600000D03*
X153600000Y-89600000D03*
X154400000Y-89600000D03*
X155200000Y-89600000D03*
X156000000Y-89600000D03*
X156800000Y-89600000D03*
X157600000Y-89600000D03*
X158400000Y-89600000D03*
X159200000Y-89600000D03*
X160000000Y-89600000D03*
X147200000Y-90400000D03*
X148000000Y-90400000D03*
X148800000Y-90400000D03*
X149600000Y-90400000D03*
X150400000Y-90400000D03*
X151200000Y-90400000D03*
X152000000Y-90400000D03*
X152800000Y-90400000D03*
X153600000Y-90400000D03*
X154400000Y-90400000D03*
X155200000Y-90400000D03*
X156000000Y-90400000D03*
X156800000Y-90400000D03*
X157600000Y-90400000D03*
X158400000Y-90400000D03*
X159200000Y-90400000D03*
X160000000Y-90400000D03*
X147200000Y-91200000D03*
X148000000Y-91200000D03*
X148800000Y-91200000D03*
X149600000Y-91200000D03*
X150400000Y-91200000D03*
X151200000Y-91200000D03*
X152000000Y-91200000D03*
X152800000Y-91200000D03*
X153600000Y-91200000D03*
X154400000Y-91200000D03*
X155200000Y-91200000D03*
X156000000Y-91200000D03*
X156800000Y-91200000D03*
X157600000Y-91200000D03*
X158400000Y-91200000D03*
X159200000Y-91200000D03*
X160000000Y-91200000D03*
X147200000Y-92000000D03*
X148000000Y-92000000D03*
X148800000Y-92000000D03*
X149600000Y-92000000D03*
X150400000Y-92000000D03*
X156800000Y-92000000D03*
X157600000Y-92000000D03*
X158400000Y-92000000D03*
X159200000Y-92000000D03*
X160000000Y-92000000D03*
X147200000Y-92800000D03*
X148000000Y-92800000D03*
X148800000Y-92800000D03*
X149600000Y-92800000D03*
X150400000Y-92800000D03*
X152000000Y-92800000D03*
X152800000Y-92800000D03*
X153600000Y-92800000D03*
X154400000Y-92800000D03*
X155200000Y-92800000D03*
X156800000Y-92800000D03*
X157600000Y-92800000D03*
X158400000Y-92800000D03*
X159200000Y-92800000D03*
X160000000Y-92800000D03*
X147200000Y-93600000D03*
X148000000Y-93600000D03*
X148800000Y-93600000D03*
X149600000Y-93600000D03*
X150400000Y-93600000D03*
X152000000Y-93600000D03*
X152800000Y-93600000D03*
X153600000Y-93600000D03*
X154400000Y-93600000D03*
X155200000Y-93600000D03*
X156800000Y-93600000D03*
X157600000Y-93600000D03*
X158400000Y-93600000D03*
X159200000Y-93600000D03*
X160000000Y-93600000D03*
X147200000Y-94400000D03*
X148000000Y-94400000D03*
X148800000Y-94400000D03*
X149600000Y-94400000D03*
X150400000Y-94400000D03*
X152000000Y-94400000D03*
X152800000Y-94400000D03*
X153600000Y-94400000D03*
X154400000Y-94400000D03*
X155200000Y-94400000D03*
X156800000Y-94400000D03*
X157600000Y-94400000D03*
X158400000Y-94400000D03*
X159200000Y-94400000D03*
X160000000Y-94400000D03*
X147200000Y-95200000D03*
X148000000Y-95200000D03*
X148800000Y-95200000D03*
X149600000Y-95200000D03*
X150400000Y-95200000D03*
X152000000Y-95200000D03*
X152800000Y-95200000D03*
X153600000Y-95200000D03*
X154400000Y-95200000D03*
X155200000Y-95200000D03*
X156800000Y-95200000D03*
X157600000Y-95200000D03*
X158400000Y-95200000D03*
X159200000Y-95200000D03*
X160000000Y-95200000D03*
X147200000Y-96000000D03*
X148000000Y-96000000D03*
X148800000Y-96000000D03*
X149600000Y-96000000D03*
X150400000Y-96000000D03*
X152000000Y-96000000D03*
X152800000Y-96000000D03*
X153600000Y-96000000D03*
X154400000Y-96000000D03*
X155200000Y-96000000D03*
X156800000Y-96000000D03*
X157600000Y-96000000D03*
X158400000Y-96000000D03*
X159200000Y-96000000D03*
X160000000Y-96000000D03*
X147200000Y-96800000D03*
X148000000Y-96800000D03*
X148800000Y-96800000D03*
X149600000Y-96800000D03*
X150400000Y-96800000D03*
X156800000Y-96800000D03*
X157600000Y-96800000D03*
X158400000Y-96800000D03*
X159200000Y-96800000D03*
X160000000Y-96800000D03*
X147200000Y-97600000D03*
X148000000Y-97600000D03*
X148800000Y-97600000D03*
X149600000Y-97600000D03*
X150400000Y-97600000D03*
X151200000Y-97600000D03*
X152000000Y-97600000D03*
X152800000Y-97600000D03*
X153600000Y-97600000D03*
X154400000Y-97600000D03*
X155200000Y-97600000D03*
X156000000Y-97600000D03*
X156800000Y-97600000D03*
X157600000Y-97600000D03*
X158400000Y-97600000D03*
X159200000Y-97600000D03*
X160000000Y-97600000D03*
X147200000Y-98400000D03*
X148000000Y-98400000D03*
X148800000Y-98400000D03*
X149600000Y-98400000D03*
X150400000Y-98400000D03*
X151200000Y-98400000D03*
X152000000Y-98400000D03*
X152800000Y-98400000D03*
X153600000Y-98400000D03*
X154400000Y-98400000D03*
X155200000Y-98400000D03*
X156000000Y-98400000D03*
X156800000Y-98400000D03*
X157600000Y-98400000D03*
X158400000Y-98400000D03*
X159200000Y-98400000D03*
X160000000Y-98400000D03*
X147200000Y-99200000D03*
X148000000Y-99200000D03*
X148800000Y-99200000D03*
X149600000Y-99200000D03*
X150400000Y-99200000D03*
X151200000Y-99200000D03*
X152000000Y-99200000D03*
X152800000Y-99200000D03*
X153600000Y-99200000D03*
X154400000Y-99200000D03*
X155200000Y-99200000D03*
X156000000Y-99200000D03*
X156800000Y-99200000D03*
X157600000Y-99200000D03*
X158400000Y-99200000D03*
X159200000Y-99200000D03*
X160000000Y-99200000D03*
X147200000Y-100000000D03*
X148000000Y-100000000D03*
X148800000Y-100000000D03*
X149600000Y-100000000D03*
X150400000Y-100000000D03*
X151200000Y-100000000D03*
X152000000Y-100000000D03*
X152800000Y-100000000D03*
X153600000Y-100000000D03*
X154400000Y-100000000D03*
X155200000Y-100000000D03*
X156000000Y-100000000D03*
X156800000Y-100000000D03*
X157600000Y-100000000D03*
X158400000Y-100000000D03*
X159200000Y-100000000D03*
X160000000Y-100000000D03*
X147200000Y-100800000D03*
X148000000Y-100800000D03*
X148800000Y-100800000D03*
X149600000Y-100800000D03*
X150400000Y-100800000D03*
X151200000Y-100800000D03*
X152000000Y-100800000D03*
X152800000Y-100800000D03*
X153600000Y-100800000D03*
X154400000Y-100800000D03*
X155200000Y-100800000D03*
X156000000Y-100800000D03*
X156800000Y-100800000D03*
X157600000Y-100800000D03*
X158400000Y-100800000D03*
X159200000Y-100800000D03*
X160000000Y-100800000D03*
%TD*%
D34*
%TO.C,C49*%
X181000000Y-61020000D03*
X181000000Y-61980000D03*
%TD*%
D20*
%TO.C,D2*%
X95790000Y-128750000D03*
X94210000Y-128750000D03*
%TD*%
D19*
%TO.C,R17*%
X64240000Y-76000000D03*
X65260000Y-76000000D03*
%TD*%
D55*
%TO.C,Q2*%
X166000000Y-138200000D03*
X166000000Y-136300000D03*
X164000000Y-137250000D03*
%TD*%
D80*
%TO.C,J7*%
X160500000Y-79500000D03*
X160500000Y-83400000D03*
X159230000Y-79500000D03*
X159230000Y-83400000D03*
X157960000Y-79500000D03*
X157960000Y-83400000D03*
X156690000Y-79500000D03*
X156690000Y-83400000D03*
X155420000Y-79500000D03*
X155420000Y-83400000D03*
%TD*%
D27*
%TO.C,H3*%
X180600000Y-137000000D03*
%TD*%
D28*
%TO.C,M9*%
X62213060Y-73819845D03*
D29*
X63050560Y-75893845D03*
X63050560Y-75071845D03*
D33*
X62713060Y-74279294D03*
D32*
X62672509Y-73319845D03*
D31*
X61753611Y-74319845D03*
D30*
X61713060Y-73360396D03*
D29*
X61375560Y-75071845D03*
X61375560Y-75893845D03*
%TD*%
D26*
%TO.C,R57*%
X175150000Y-100710000D03*
X175150000Y-99690000D03*
%TD*%
%TO.C,R19*%
X99000000Y-100510000D03*
X99000000Y-99490000D03*
%TD*%
D34*
%TO.C,C47*%
X125250000Y-101270000D03*
X125250000Y-102230000D03*
%TD*%
D42*
%TO.C,C77*%
X115020000Y-117990000D03*
X115980000Y-117990000D03*
%TD*%
D61*
%TO.C,C51*%
X108000000Y-64730000D03*
X108000000Y-63770000D03*
%TD*%
D37*
%TO.C,R14*%
X130000000Y-77990000D03*
X130000000Y-79010000D03*
%TD*%
D81*
%TO.C,L2*%
X107497761Y-126440000D03*
X107497761Y-129440000D03*
%TD*%
D61*
%TO.C,C45*%
X81750000Y-81980000D03*
X81750000Y-81020000D03*
%TD*%
D62*
%TO.C,C6*%
X142300000Y-83500000D03*
X144200000Y-83500000D03*
%TD*%
D37*
%TO.C,R7*%
X111500000Y-44740000D03*
X111500000Y-45760000D03*
%TD*%
D28*
%TO.C,M4*%
X122722206Y-83589294D03*
D29*
X121884706Y-81515294D03*
X121884706Y-82337294D03*
D30*
X122222206Y-83129845D03*
D31*
X122262757Y-84089294D03*
D32*
X123181655Y-83089294D03*
D33*
X123222206Y-84048743D03*
D29*
X123559706Y-82337294D03*
X123559706Y-81515294D03*
%TD*%
D26*
%TO.C,R3*%
X140000000Y-107510000D03*
X140000000Y-106490000D03*
%TD*%
D61*
%TO.C,C66*%
X137283900Y-97196100D03*
X137283900Y-96236100D03*
%TD*%
%LPD*%
M02*
