%TF.GenerationSoftware,KiCad,Pcbnew,10.0.3*%
%TF.CreationDate,2026-06-10T17:59:36-04:00*%
%TF.ProjectId,Microphone board,4d696372-6f70-4686-9f6e-6520626f6172,rev?*%
%TF.SameCoordinates,Original*%
%TF.FileFunction,Paste,Top*%
%TF.FilePolarity,Positive*%
%FSLAX46Y46*%
G04 Gerber Fmt 4.6, Leading zero omitted, Abs format (unit mm)*
G04 Created by KiCad (PCBNEW 10.0.3) date 2026-06-10 17:59:36*
%MOMM*%
%LPD*%
G01*
G04 APERTURE LIST*
G04 Aperture macros list*
%AMRoundRect*
0 Rectangle with rounded corners*
0 $1 Rounding radius*
0 $2 $3 $4 $5 $6 $7 $8 $9 X,Y pos of 4 corners*
0 Add a 4 corners polygon primitive as box body*
4,1,4,$2,$3,$4,$5,$6,$7,$8,$9,$2,$3,0*
0 Add four circle primitives for the rounded corners*
1,1,$1+$1,$2,$3*
1,1,$1+$1,$4,$5*
1,1,$1+$1,$6,$7*
1,1,$1+$1,$8,$9*
0 Add four rect primitives between the rounded corners*
20,1,$1+$1,$2,$3,$4,$5,0*
20,1,$1+$1,$4,$5,$6,$7,0*
20,1,$1+$1,$6,$7,$8,$9,0*
20,1,$1+$1,$8,$9,$2,$3,0*%
%AMFreePoly0*
4,1,32,0.305191,0.347130,0.291393,0.273315,0.270843,0.201089,0.243716,0.131066,0.210244,0.063846,0.170713,0.000000,0.125459,-0.059925,0.074869,-0.115420,0.019374,-0.166010,-0.040551,-0.211264,-0.104397,-0.250795,-0.171617,-0.284267,-0.241640,-0.311394,-0.313866,-0.331944,-0.387681,-0.345742,-0.450001,-0.351517,-0.450000,-0.037764,-0.416168,-0.033952,-0.361452,-0.021463,-0.308478,-0.002927,
-0.257912,0.021424,-0.210391,0.051284,-0.166512,0.086276,-0.126827,0.125961,-0.091835,0.169840,-0.061975,0.217361,-0.037624,0.267927,-0.019088,0.320901,-0.006599,0.375617,-0.002787,0.409449,0.310966,0.409449,0.305191,0.347130,0.305191,0.347130,$1*%
G04 Aperture macros list end*
%ADD10C,0.000000*%
%ADD11RoundRect,0.135000X-0.135000X-0.185000X0.135000X-0.185000X0.135000X0.185000X-0.135000X0.185000X0*%
%ADD12RoundRect,0.220000X0.220000X0.255000X-0.220000X0.255000X-0.220000X-0.255000X0.220000X-0.255000X0*%
%ADD13R,0.300000X1.300000*%
%ADD14R,1.800000X2.200000*%
%ADD15RoundRect,0.225000X-0.250000X0.225000X-0.250000X-0.225000X0.250000X-0.225000X0.250000X0.225000X0*%
%ADD16RoundRect,0.225000X0.250000X-0.225000X0.250000X0.225000X-0.250000X0.225000X-0.250000X-0.225000X0*%
%ADD17RoundRect,0.135000X0.135000X0.185000X-0.135000X0.185000X-0.135000X-0.185000X0.135000X-0.185000X0*%
%ADD18RoundRect,0.135000X0.185000X-0.135000X0.185000X0.135000X-0.185000X0.135000X-0.185000X-0.135000X0*%
%ADD19R,0.725000X0.522000*%
%ADD20FreePoly0,180.000000*%
%ADD21FreePoly0,270.000000*%
%ADD22FreePoly0,90.000000*%
%ADD23FreePoly0,0.000000*%
%ADD24RoundRect,0.140000X-0.170000X0.140000X-0.170000X-0.140000X0.170000X-0.140000X0.170000X0.140000X0*%
%ADD25RoundRect,0.160000X-0.315000X0.160000X-0.315000X-0.160000X0.315000X-0.160000X0.315000X0.160000X0*%
%ADD26RoundRect,0.062500X-0.062500X0.350000X-0.062500X-0.350000X0.062500X-0.350000X0.062500X0.350000X0*%
%ADD27RoundRect,0.135000X-0.185000X0.135000X-0.185000X-0.135000X0.185000X-0.135000X0.185000X0.135000X0*%
%ADD28RoundRect,0.249999X-0.450001X-1.850001X0.450001X-1.850001X0.450001X1.850001X-0.450001X1.850001X0*%
%ADD29RoundRect,0.140000X0.140000X0.170000X-0.140000X0.170000X-0.140000X-0.170000X0.140000X-0.170000X0*%
%ADD30RoundRect,0.250000X0.650000X-0.425000X0.650000X0.425000X-0.650000X0.425000X-0.650000X-0.425000X0*%
%ADD31RoundRect,0.150000X-0.150000X0.512500X-0.150000X-0.512500X0.150000X-0.512500X0.150000X0.512500X0*%
%ADD32RoundRect,0.140000X-0.140000X-0.170000X0.140000X-0.170000X0.140000X0.170000X-0.140000X0.170000X0*%
%ADD33RoundRect,0.225000X-0.225000X-0.250000X0.225000X-0.250000X0.225000X0.250000X-0.225000X0.250000X0*%
%ADD34RoundRect,0.150000X0.575000X-0.150000X0.575000X0.150000X-0.575000X0.150000X-0.575000X-0.150000X0*%
%ADD35RoundRect,0.075000X0.650000X-0.075000X0.650000X0.075000X-0.650000X0.075000X-0.650000X-0.075000X0*%
%ADD36R,0.254800X0.807999*%
%ADD37R,0.807999X0.254800*%
%ADD38R,2.794000X2.794000*%
%ADD39RoundRect,0.150000X0.675000X0.150000X-0.675000X0.150000X-0.675000X-0.150000X0.675000X-0.150000X0*%
%ADD40RoundRect,0.200000X0.250000X0.200000X-0.250000X0.200000X-0.250000X-0.200000X0.250000X-0.200000X0*%
%ADD41RoundRect,0.250000X0.250000X0.475000X-0.250000X0.475000X-0.250000X-0.475000X0.250000X-0.475000X0*%
%ADD42RoundRect,0.150000X0.512500X0.150000X-0.512500X0.150000X-0.512500X-0.150000X0.512500X-0.150000X0*%
%ADD43RoundRect,0.225000X0.225000X0.250000X-0.225000X0.250000X-0.225000X-0.250000X0.225000X-0.250000X0*%
%ADD44RoundRect,0.140000X0.170000X-0.140000X0.170000X0.140000X-0.170000X0.140000X-0.170000X-0.140000X0*%
%ADD45RoundRect,0.250000X-0.250000X-0.475000X0.250000X-0.475000X0.250000X0.475000X-0.250000X0.475000X0*%
%ADD46RoundRect,0.110000X1.590000X-0.440000X1.590000X0.440000X-1.590000X0.440000X-1.590000X-0.440000X0*%
%ADD47RoundRect,0.150000X-0.512500X-0.150000X0.512500X-0.150000X0.512500X0.150000X-0.512500X0.150000X0*%
%ADD48R,1.050000X0.950000*%
%ADD49RoundRect,0.050000X-0.100000X0.285000X-0.100000X-0.285000X0.100000X-0.285000X0.100000X0.285000X0*%
%ADD50RoundRect,0.075000X-0.075000X-0.200000X0.075000X-0.200000X0.075000X0.200000X-0.075000X0.200000X0*%
%ADD51RoundRect,0.050000X0.200000X-0.050000X0.200000X0.050000X-0.200000X0.050000X-0.200000X-0.050000X0*%
%ADD52RoundRect,0.025000X-0.100000X-0.145000X0.100000X-0.145000X0.100000X0.145000X-0.100000X0.145000X0*%
%ADD53RoundRect,0.106000X-0.644000X-0.424000X0.644000X-0.424000X0.644000X0.424000X-0.644000X0.424000X0*%
%ADD54RoundRect,0.060000X-0.240000X-0.060000X0.240000X-0.060000X0.240000X0.060000X-0.240000X0.060000X0*%
%ADD55R,1.600000X0.700000*%
%ADD56R,1.500000X1.200000*%
%ADD57R,2.200000X1.200000*%
%ADD58R,1.500000X1.600000*%
%ADD59RoundRect,0.250000X-0.650000X0.425000X-0.650000X-0.425000X0.650000X-0.425000X0.650000X0.425000X0*%
%ADD60C,0.333126*%
%ADD61R,0.740000X2.400000*%
%ADD62RoundRect,0.110000X-1.590000X0.440000X-1.590000X-0.440000X1.590000X-0.440000X1.590000X0.440000X0*%
G04 APERTURE END LIST*
D10*
%TO.C,U3*%
G36*
X134433900Y-89150000D02*
G01*
X133236900Y-89150000D01*
X133236900Y-87953000D01*
X134433900Y-87953000D01*
X134433900Y-89150000D01*
G37*
G36*
X134433900Y-90547000D02*
G01*
X133236900Y-90547000D01*
X133236900Y-89350000D01*
X134433900Y-89350000D01*
X134433900Y-90547000D01*
G37*
G36*
X135830900Y-89150000D02*
G01*
X134633900Y-89150000D01*
X134633900Y-87953000D01*
X135830900Y-87953000D01*
X135830900Y-89150000D01*
G37*
G36*
X135830900Y-90547000D02*
G01*
X134633900Y-90547000D01*
X134633900Y-89350000D01*
X135830900Y-89350000D01*
X135830900Y-90547000D01*
G37*
%TO.C,U4*%
G36*
X134433900Y-99900000D02*
G01*
X133236900Y-99900000D01*
X133236900Y-98703000D01*
X134433900Y-98703000D01*
X134433900Y-99900000D01*
G37*
G36*
X134433900Y-101297000D02*
G01*
X133236900Y-101297000D01*
X133236900Y-100100000D01*
X134433900Y-100100000D01*
X134433900Y-101297000D01*
G37*
G36*
X135830900Y-99900000D02*
G01*
X134633900Y-99900000D01*
X134633900Y-98703000D01*
X135830900Y-98703000D01*
X135830900Y-99900000D01*
G37*
G36*
X135830900Y-101297000D02*
G01*
X134633900Y-101297000D01*
X134633900Y-100100000D01*
X135830900Y-100100000D01*
X135830900Y-101297000D01*
G37*
%TD*%
D11*
%TO.C,R69*%
X122990000Y-128250000D03*
X124010000Y-128250000D03*
%TD*%
%TO.C,R68*%
X122990000Y-129750000D03*
X124010000Y-129750000D03*
%TD*%
D12*
%TO.C,D5*%
X126790000Y-128250000D03*
X125210000Y-128250000D03*
%TD*%
%TO.C,D4*%
X126790000Y-129750000D03*
X125210000Y-129750000D03*
%TD*%
D13*
%TO.C,J2*%
X116500000Y-111000000D03*
X116000000Y-111000000D03*
X115500000Y-111000000D03*
X115000000Y-111000000D03*
X114500000Y-111000000D03*
X114000000Y-111000000D03*
X113500000Y-111000000D03*
X113000000Y-111000000D03*
X112500000Y-111000000D03*
X112000000Y-111000000D03*
X111500000Y-111000000D03*
X111000000Y-111000000D03*
X110500000Y-111000000D03*
X110000000Y-111000000D03*
X109500000Y-111000000D03*
X109000000Y-111000000D03*
X108500000Y-111000000D03*
X108000000Y-111000000D03*
X107500000Y-111000000D03*
X107000000Y-111000000D03*
X106500000Y-111000000D03*
X106000000Y-111000000D03*
X105500000Y-111000000D03*
X105000000Y-111000000D03*
D14*
X118400000Y-107750000D03*
X103100000Y-107750000D03*
%TD*%
D13*
%TO.C,J1*%
X166250000Y-133000000D03*
X165750000Y-133000000D03*
X165250000Y-133000000D03*
X164750000Y-133000000D03*
X164250000Y-133000000D03*
X163750000Y-133000000D03*
X163250000Y-133000000D03*
X162750000Y-133000000D03*
X162250000Y-133000000D03*
X161750000Y-133000000D03*
X161250000Y-133000000D03*
X160750000Y-133000000D03*
X160250000Y-133000000D03*
X159750000Y-133000000D03*
X159250000Y-133000000D03*
X158750000Y-133000000D03*
X158250000Y-133000000D03*
X157750000Y-133000000D03*
X157250000Y-133000000D03*
X156750000Y-133000000D03*
X156250000Y-133000000D03*
X155750000Y-133000000D03*
X155250000Y-133000000D03*
X154750000Y-133000000D03*
X154250000Y-133000000D03*
X153750000Y-133000000D03*
X153250000Y-133000000D03*
X152750000Y-133000000D03*
X152250000Y-133000000D03*
X151750000Y-133000000D03*
X151250000Y-133000000D03*
X150750000Y-133000000D03*
X150250000Y-133000000D03*
X149750000Y-133000000D03*
X149250000Y-133000000D03*
X148750000Y-133000000D03*
X148250000Y-133000000D03*
X147750000Y-133000000D03*
X147250000Y-133000000D03*
X146750000Y-133000000D03*
D14*
X168150000Y-129750000D03*
X144850000Y-129750000D03*
%TD*%
D15*
%TO.C,C5*%
X155250000Y-103475000D03*
X155250000Y-105025000D03*
%TD*%
D16*
%TO.C,C3*%
X152750000Y-85550000D03*
X152750000Y-84000000D03*
%TD*%
D11*
%TO.C,R26*%
X130273900Y-88966100D03*
X131293900Y-88966100D03*
%TD*%
D17*
%TO.C,R58*%
X174860000Y-102800000D03*
X173840000Y-102800000D03*
%TD*%
D11*
%TO.C,R53*%
X96990000Y-127250000D03*
X98010000Y-127250000D03*
%TD*%
D18*
%TO.C,R52*%
X118000000Y-120760000D03*
X118000000Y-119740000D03*
%TD*%
D16*
%TO.C,C85*%
X120750000Y-127637500D03*
X120750000Y-126087500D03*
%TD*%
D19*
%TO.C,M14*%
X122450669Y-101392360D03*
X122450669Y-102214360D03*
D20*
X122788169Y-103006911D03*
D21*
X122828720Y-103966360D03*
D22*
X123747618Y-102966360D03*
D23*
X123788169Y-103925809D03*
D19*
X124125669Y-102214360D03*
X124125669Y-101392360D03*
%TD*%
D24*
%TO.C,C39*%
X141500000Y-93770000D03*
X141500000Y-94730000D03*
%TD*%
D25*
%TO.C,U9*%
X101090000Y-129267500D03*
X99910000Y-129267500D03*
X101090000Y-130057500D03*
X99910000Y-130057500D03*
D26*
X101500000Y-128225000D03*
X101000000Y-128225000D03*
X100500000Y-128225000D03*
X100000000Y-128225000D03*
X99500000Y-128225000D03*
X99500000Y-131100000D03*
X100000000Y-131100000D03*
X100500000Y-131100000D03*
X101000000Y-131100000D03*
X101500000Y-131100000D03*
%TD*%
D27*
%TO.C,R13*%
X177000000Y-60990000D03*
X177000000Y-62010000D03*
%TD*%
D28*
%TO.C,L3*%
X125150000Y-120750000D03*
X128850000Y-120750000D03*
%TD*%
D24*
%TO.C,C50*%
X134000000Y-78040000D03*
X134000000Y-79000000D03*
%TD*%
D27*
%TO.C,R35*%
X174500000Y-136990000D03*
X174500000Y-138010000D03*
%TD*%
D29*
%TO.C,C1*%
X141980000Y-92250000D03*
X141020000Y-92250000D03*
%TD*%
D19*
%TO.C,M7*%
X111422360Y-75967044D03*
X111422360Y-75145044D03*
D23*
X111084860Y-74352493D03*
D22*
X111044309Y-73393044D03*
D21*
X110125411Y-74393044D03*
D20*
X110084860Y-73433595D03*
D19*
X109747360Y-75145044D03*
X109747360Y-75967044D03*
%TD*%
D27*
%TO.C,R36*%
X173500000Y-136990000D03*
X173500000Y-138010000D03*
%TD*%
%TO.C,R21*%
X131283900Y-97490000D03*
X131283900Y-98510000D03*
%TD*%
D30*
%TO.C,S1*%
X152500000Y-82325000D03*
X152500000Y-78175000D03*
%TD*%
D31*
%TO.C,U10*%
X119250000Y-125112500D03*
X118300000Y-125112500D03*
X117350000Y-125112500D03*
X117350000Y-127387500D03*
X119250000Y-127387500D03*
%TD*%
D27*
%TO.C,R5*%
X146750000Y-71990000D03*
X146750000Y-73010000D03*
%TD*%
D32*
%TO.C,C63*%
X137803900Y-91216100D03*
X138763900Y-91216100D03*
%TD*%
D33*
%TO.C,C37*%
X162475000Y-98400000D03*
X164025000Y-98400000D03*
%TD*%
D24*
%TO.C,C73*%
X111250000Y-112770000D03*
X111250000Y-113730000D03*
%TD*%
D19*
%TO.C,M6*%
X110331952Y-44741852D03*
X110331952Y-43919852D03*
D23*
X109994452Y-43127301D03*
D22*
X109953901Y-42167852D03*
D21*
X109035003Y-43167852D03*
D20*
X108994452Y-42208403D03*
D19*
X108656952Y-43919852D03*
X108656952Y-44741852D03*
%TD*%
D33*
%TO.C,C69*%
X152725000Y-135000000D03*
X154275000Y-135000000D03*
%TD*%
D34*
%TO.C,J4*%
X176905000Y-105850000D03*
X176905000Y-105050000D03*
D35*
X176905000Y-103850000D03*
X176905000Y-102850000D03*
X176905000Y-102350000D03*
X176905000Y-101350000D03*
D34*
X176905000Y-100150000D03*
X176905000Y-99350000D03*
X176905000Y-99350000D03*
X176905000Y-100150000D03*
D35*
X176905000Y-100850000D03*
X176905000Y-101850000D03*
X176905000Y-103350000D03*
X176905000Y-104350000D03*
D34*
X176905000Y-105050000D03*
X176905000Y-105850000D03*
%TD*%
D17*
%TO.C,R37*%
X168510000Y-137250000D03*
X167490000Y-137250000D03*
%TD*%
D11*
%TO.C,R31*%
X137773900Y-88216100D03*
X138793900Y-88216100D03*
%TD*%
D36*
%TO.C,U3*%
X135783900Y-87283900D03*
X135283901Y-87283900D03*
X134783900Y-87283900D03*
X134283900Y-87283900D03*
X133783899Y-87283900D03*
X133283900Y-87283900D03*
D37*
X132567800Y-88000000D03*
X132567800Y-88499999D03*
X132567800Y-89000000D03*
X132567800Y-89500000D03*
X132567800Y-90000001D03*
X132567800Y-90500000D03*
D36*
X133283900Y-91216100D03*
X133783899Y-91216100D03*
X134283900Y-91216100D03*
X134783900Y-91216100D03*
X135283901Y-91216100D03*
X135783900Y-91216100D03*
D37*
X136500000Y-90500000D03*
X136500000Y-90000001D03*
X136500000Y-89500000D03*
X136500000Y-89000000D03*
X136500000Y-88499999D03*
X136500000Y-88000000D03*
D38*
X134533900Y-89250000D03*
%TD*%
D11*
%TO.C,R39*%
X164240000Y-134750000D03*
X165260000Y-134750000D03*
%TD*%
D19*
%TO.C,M5*%
X111032947Y-64815736D03*
X111032947Y-63993736D03*
D23*
X110695447Y-63201185D03*
D22*
X110654896Y-62241736D03*
D21*
X109735998Y-63241736D03*
D20*
X109695447Y-62282287D03*
D19*
X109357947Y-63993736D03*
X109357947Y-64815736D03*
%TD*%
D32*
%TO.C,C62*%
X137803900Y-98216100D03*
X138763900Y-98216100D03*
%TD*%
D39*
%TO.C,U2*%
X146870000Y-108910000D03*
X146870000Y-107640000D03*
X146870000Y-106360000D03*
X146870000Y-105090000D03*
X141630000Y-105090000D03*
X141630000Y-106360000D03*
X141630000Y-107640000D03*
X141630000Y-108910000D03*
%TD*%
D11*
%TO.C,R27*%
X130283900Y-90216100D03*
X131303900Y-90216100D03*
%TD*%
D27*
%TO.C,R2*%
X140000000Y-103990000D03*
X140000000Y-105010000D03*
%TD*%
D19*
%TO.C,M13*%
X100368750Y-100381685D03*
X100368750Y-101203685D03*
D20*
X100706250Y-101996236D03*
D21*
X100746801Y-102955685D03*
D22*
X101665699Y-101955685D03*
D23*
X101706250Y-102915134D03*
D19*
X102043750Y-101203685D03*
X102043750Y-100381685D03*
%TD*%
D18*
%TO.C,R34*%
X134250000Y-104510000D03*
X134250000Y-103490000D03*
%TD*%
D17*
%TO.C,R48*%
X114010000Y-117990000D03*
X112990000Y-117990000D03*
%TD*%
D29*
%TO.C,C81*%
X123730000Y-119500000D03*
X122770000Y-119500000D03*
%TD*%
D17*
%TO.C,R20*%
X131010000Y-113750000D03*
X129990000Y-113750000D03*
%TD*%
D27*
%TO.C,R51*%
X117000000Y-119730000D03*
X117000000Y-120750000D03*
%TD*%
D40*
%TO.C,Q1*%
X172000000Y-138200000D03*
X172000000Y-136300000D03*
X170000000Y-137250000D03*
%TD*%
D41*
%TO.C,C83*%
X126950000Y-126500000D03*
X125050000Y-126500000D03*
%TD*%
D24*
%TO.C,C72*%
X112250000Y-112770000D03*
X112250000Y-113730000D03*
%TD*%
D42*
%TO.C,U11*%
X172350000Y-103300000D03*
X172350000Y-102350000D03*
X172350000Y-101400000D03*
X170075000Y-101400000D03*
X170075000Y-102350000D03*
X170075000Y-103300000D03*
%TD*%
D24*
%TO.C,C70*%
X115000000Y-112770000D03*
X115000000Y-113730000D03*
%TD*%
D15*
%TO.C,C71*%
X116250000Y-112975000D03*
X116250000Y-114525000D03*
%TD*%
%TO.C,C84*%
X115750000Y-125087500D03*
X115750000Y-126637500D03*
%TD*%
D29*
%TO.C,C40*%
X139960000Y-109000000D03*
X139000000Y-109000000D03*
%TD*%
D18*
%TO.C,R12*%
X148500000Y-136270000D03*
X148500000Y-135250000D03*
%TD*%
D19*
%TO.C,M3*%
X131206836Y-78122317D03*
X131206836Y-78944317D03*
D20*
X131544336Y-79736868D03*
D21*
X131584887Y-80696317D03*
D22*
X132503785Y-79696317D03*
D23*
X132544336Y-80655766D03*
D19*
X132881836Y-78944317D03*
X132881836Y-78122317D03*
%TD*%
D27*
%TO.C,R9*%
X86000000Y-82240000D03*
X86000000Y-83260000D03*
%TD*%
D32*
%TO.C,C67*%
X150520000Y-134750000D03*
X151480000Y-134750000D03*
%TD*%
D24*
%TO.C,C48*%
X152750000Y-136520000D03*
X152750000Y-137480000D03*
%TD*%
D27*
%TO.C,R16*%
X112750000Y-75990000D03*
X112750000Y-77010000D03*
%TD*%
D19*
%TO.C,M2*%
X147987949Y-72014491D03*
X147987949Y-72836491D03*
D20*
X148325449Y-73629042D03*
D21*
X148366000Y-74588491D03*
D22*
X149284898Y-73588491D03*
D23*
X149325449Y-74547940D03*
D19*
X149662949Y-72836491D03*
X149662949Y-72014491D03*
%TD*%
D43*
%TO.C,C4*%
X144775000Y-92250000D03*
X143225000Y-92250000D03*
%TD*%
D44*
%TO.C,C44*%
X94000000Y-85480000D03*
X94000000Y-84520000D03*
%TD*%
D45*
%TO.C,C78*%
X110547761Y-122940000D03*
X112447761Y-122940000D03*
%TD*%
D19*
%TO.C,M16*%
X149821949Y-136426000D03*
X149821949Y-137248000D03*
D20*
X150159449Y-138040551D03*
D21*
X150200000Y-139000000D03*
D22*
X151118898Y-138000000D03*
D23*
X151159449Y-138959449D03*
D19*
X151496949Y-137248000D03*
X151496949Y-136426000D03*
%TD*%
D45*
%TO.C,C7*%
X142300000Y-85500000D03*
X144200000Y-85500000D03*
%TD*%
D18*
%TO.C,R10*%
X91250000Y-112010000D03*
X91250000Y-110990000D03*
%TD*%
%TO.C,R11*%
X121250000Y-101250000D03*
X121250000Y-100230000D03*
%TD*%
D27*
%TO.C,R55*%
X97250000Y-130240000D03*
X97250000Y-131260000D03*
%TD*%
D12*
%TO.C,D3*%
X95790000Y-127250000D03*
X94210000Y-127250000D03*
%TD*%
D11*
%TO.C,R28*%
X132273900Y-92466100D03*
X133293900Y-92466100D03*
%TD*%
D19*
%TO.C,M1*%
X178196253Y-61019568D03*
X178196253Y-61841568D03*
D20*
X178533753Y-62634119D03*
D21*
X178574304Y-63593568D03*
D22*
X179493202Y-62593568D03*
D23*
X179533753Y-63553017D03*
D19*
X179871253Y-61841568D03*
X179871253Y-61019568D03*
%TD*%
D44*
%TO.C,C65*%
X137033900Y-86196100D03*
X137033900Y-85236100D03*
%TD*%
D24*
%TO.C,C42*%
X124750000Y-81520000D03*
X124750000Y-82480000D03*
%TD*%
D44*
%TO.C,C58*%
X135533900Y-96946100D03*
X135533900Y-95986100D03*
%TD*%
D16*
%TO.C,C87*%
X103000000Y-131000000D03*
X103000000Y-129450000D03*
%TD*%
D44*
%TO.C,C59*%
X134533900Y-86196100D03*
X134533900Y-85236100D03*
%TD*%
D27*
%TO.C,R25*%
X132283900Y-85206100D03*
X132283900Y-86226100D03*
%TD*%
D44*
%TO.C,C53*%
X60250000Y-75980000D03*
X60250000Y-75020000D03*
%TD*%
D32*
%TO.C,C64*%
X137803900Y-101216100D03*
X138763900Y-101216100D03*
%TD*%
D36*
%TO.C,U4*%
X135783900Y-98033900D03*
X135283901Y-98033900D03*
X134783900Y-98033900D03*
X134283900Y-98033900D03*
X133783899Y-98033900D03*
X133283900Y-98033900D03*
D37*
X132567800Y-98750000D03*
X132567800Y-99249999D03*
X132567800Y-99750000D03*
X132567800Y-100250000D03*
X132567800Y-100750001D03*
X132567800Y-101250000D03*
D36*
X133283900Y-101966100D03*
X133783899Y-101966100D03*
X134283900Y-101966100D03*
X134783900Y-101966100D03*
X135283901Y-101966100D03*
X135783900Y-101966100D03*
D37*
X136500000Y-101250000D03*
X136500000Y-100750001D03*
X136500000Y-100250000D03*
X136500000Y-99750000D03*
X136500000Y-99249999D03*
X136500000Y-98750000D03*
D38*
X134533900Y-100000000D03*
%TD*%
D44*
%TO.C,C60*%
X134533900Y-96946100D03*
X134533900Y-95986100D03*
%TD*%
D45*
%TO.C,C79*%
X110547761Y-124940000D03*
X112447761Y-124940000D03*
%TD*%
D19*
%TO.C,M12*%
X92475165Y-112084407D03*
X92475165Y-112906407D03*
D20*
X92812665Y-113698958D03*
D21*
X92853216Y-114658407D03*
D22*
X93772114Y-113658407D03*
D23*
X93812665Y-114617856D03*
D19*
X94150165Y-112906407D03*
X94150165Y-112084407D03*
%TD*%
%TO.C,M8*%
X96831561Y-85580392D03*
X96831561Y-84758392D03*
D23*
X96494061Y-83965841D03*
D22*
X96453510Y-83006392D03*
D21*
X95534612Y-84006392D03*
D20*
X95494061Y-83046943D03*
D19*
X95156561Y-84758392D03*
X95156561Y-85580392D03*
%TD*%
D18*
%TO.C,R24*%
X133283900Y-104510000D03*
X133283900Y-103490000D03*
%TD*%
D41*
%TO.C,C82*%
X126950000Y-124500000D03*
X125050000Y-124500000D03*
%TD*%
D17*
%TO.C,R4*%
X149010000Y-84000000D03*
X147990000Y-84000000D03*
%TD*%
D24*
%TO.C,C41*%
X151000000Y-72020000D03*
X151000000Y-72980000D03*
%TD*%
D44*
%TO.C,C57*%
X135533900Y-86196100D03*
X135533900Y-85236100D03*
%TD*%
D46*
%TO.C,L1*%
X143250000Y-90500000D03*
X143250000Y-87500000D03*
%TD*%
D11*
%TO.C,R8*%
X97990000Y-85500000D03*
X99010000Y-85500000D03*
%TD*%
D17*
%TO.C,R38*%
X168510000Y-138250000D03*
X167490000Y-138250000D03*
%TD*%
D11*
%TO.C,R23*%
X130273900Y-101000000D03*
X131293900Y-101000000D03*
%TD*%
D24*
%TO.C,C46*%
X95500000Y-112020000D03*
X95500000Y-112980000D03*
%TD*%
D19*
%TO.C,M11*%
X78265627Y-133150913D03*
X78265627Y-133972913D03*
D20*
X78603127Y-134765464D03*
D21*
X78643678Y-135724913D03*
D22*
X79562576Y-134724913D03*
D23*
X79603127Y-135684362D03*
D19*
X79940627Y-133972913D03*
X79940627Y-133150913D03*
%TD*%
D15*
%TO.C,C74*%
X113500000Y-113975000D03*
X113500000Y-115525000D03*
%TD*%
D24*
%TO.C,C55*%
X103250000Y-100270000D03*
X103250000Y-101230000D03*
%TD*%
D43*
%TO.C,C15*%
X144775000Y-96800000D03*
X143225000Y-96800000D03*
%TD*%
D19*
%TO.C,M10*%
X84767509Y-82121080D03*
X84767509Y-81299080D03*
D23*
X84430009Y-80506529D03*
D22*
X84389458Y-79547080D03*
D21*
X83470560Y-80547080D03*
D20*
X83430009Y-79587631D03*
D19*
X83092509Y-81299080D03*
X83092509Y-82121080D03*
%TD*%
D44*
%TO.C,C54*%
X81250000Y-132980000D03*
X81250000Y-132020000D03*
%TD*%
D16*
%TO.C,C86*%
X101250000Y-126750000D03*
X101250000Y-125200000D03*
%TD*%
D11*
%TO.C,R32*%
X137773900Y-89216100D03*
X138793900Y-89216100D03*
%TD*%
D18*
%TO.C,R33*%
X134283900Y-93476100D03*
X134283900Y-92456100D03*
%TD*%
%TO.C,R18*%
X77000000Y-133010000D03*
X77000000Y-131990000D03*
%TD*%
D47*
%TO.C,U8*%
X120975000Y-120750000D03*
X120975000Y-121700000D03*
X120975000Y-122650000D03*
X123250000Y-122650000D03*
X123250000Y-121700000D03*
X123250000Y-120750000D03*
%TD*%
D45*
%TO.C,C75*%
X110797761Y-130940000D03*
X112697761Y-130940000D03*
%TD*%
D32*
%TO.C,C61*%
X137803900Y-87216100D03*
X138763900Y-87216100D03*
%TD*%
D44*
%TO.C,C43*%
X107500000Y-44730000D03*
X107500000Y-43770000D03*
%TD*%
D33*
%TO.C,C2*%
X162475000Y-96750000D03*
X164025000Y-96750000D03*
%TD*%
D44*
%TO.C,C56*%
X135250000Y-113730000D03*
X135250000Y-112770000D03*
%TD*%
D11*
%TO.C,R30*%
X137773900Y-90216100D03*
X138793900Y-90216100D03*
%TD*%
D27*
%TO.C,R15*%
X112250000Y-64990000D03*
X112250000Y-66010000D03*
%TD*%
D18*
%TO.C,R60*%
X98250000Y-131235000D03*
X98250000Y-130215000D03*
%TD*%
D33*
%TO.C,C80*%
X120975000Y-124250000D03*
X122525000Y-124250000D03*
%TD*%
D11*
%TO.C,R22*%
X130273900Y-99750000D03*
X131293900Y-99750000D03*
%TD*%
D16*
%TO.C,C38*%
X151200000Y-85575000D03*
X151200000Y-84025000D03*
%TD*%
D48*
%TO.C,Y1*%
X142900000Y-95200000D03*
X144750000Y-95200000D03*
X144750000Y-93750000D03*
X142900000Y-93750000D03*
%TD*%
D49*
%TO.C,U7*%
X115750000Y-119250000D03*
X115250000Y-119250000D03*
X114750000Y-119250000D03*
X114250000Y-119250000D03*
X114250000Y-120730000D03*
X114750000Y-120730000D03*
X115250000Y-120730000D03*
X115750000Y-120730000D03*
%TD*%
D27*
%TO.C,R49*%
X113000000Y-118980000D03*
X113000000Y-120000000D03*
%TD*%
D19*
%TO.C,M15*%
X132225647Y-113903762D03*
X132225647Y-114725762D03*
D20*
X132563147Y-115518313D03*
D21*
X132603698Y-116477762D03*
D22*
X133522596Y-115477762D03*
D23*
X133563147Y-116437211D03*
D19*
X133900647Y-114725762D03*
X133900647Y-113903762D03*
%TD*%
D50*
%TO.C,U5*%
X166375000Y-88620000D03*
X166375000Y-89300000D03*
X166375000Y-89980000D03*
D51*
X165750000Y-88300000D03*
X165750000Y-88700000D03*
X165750000Y-89100000D03*
X165750000Y-89500000D03*
X165750000Y-89900000D03*
X165750000Y-90300000D03*
X167000000Y-90300000D03*
X167000000Y-89900000D03*
X167000000Y-89500000D03*
X167000000Y-89100000D03*
X167000000Y-88700000D03*
X167000000Y-88300000D03*
%TD*%
D52*
%TO.C,U6*%
X111497761Y-126440000D03*
X111497761Y-129500000D03*
D53*
X111747761Y-127340000D03*
X111747761Y-128600000D03*
D52*
X111997761Y-126440000D03*
X111997761Y-129500000D03*
D54*
X110347761Y-126970000D03*
X110347761Y-127470000D03*
X110347761Y-127970000D03*
X110347761Y-128470000D03*
X110347761Y-128970000D03*
X113147761Y-128970000D03*
X113147761Y-128470000D03*
X113147761Y-127970000D03*
X113147761Y-127470000D03*
X113147761Y-126970000D03*
%TD*%
D11*
%TO.C,R29*%
X138290000Y-100200000D03*
X139310000Y-100200000D03*
%TD*%
D18*
%TO.C,R40*%
X117500000Y-113770000D03*
X117500000Y-112750000D03*
%TD*%
%TO.C,R50*%
X114247761Y-130450000D03*
X114247761Y-129430000D03*
%TD*%
D27*
%TO.C,R6*%
X120750000Y-81490000D03*
X120750000Y-82510000D03*
%TD*%
D44*
%TO.C,C76*%
X114247761Y-128420000D03*
X114247761Y-127460000D03*
%TD*%
D17*
%TO.C,R59*%
X174860000Y-101800000D03*
X173840000Y-101800000D03*
%TD*%
D55*
%TO.C,J3*%
X169175000Y-86000000D03*
X169175000Y-87100000D03*
X169175000Y-88200000D03*
X169175000Y-89300000D03*
X169175000Y-90400000D03*
X169175000Y-91500000D03*
X169175000Y-92600000D03*
X169175000Y-93700000D03*
X169175000Y-94800000D03*
D56*
X170225000Y-96000000D03*
D57*
X179825000Y-96000000D03*
D58*
X170225000Y-81400000D03*
D57*
X179825000Y-80500000D03*
%TD*%
D11*
%TO.C,R54*%
X96990000Y-128750000D03*
X98010000Y-128750000D03*
%TD*%
D12*
%TO.C,D1*%
X95790000Y-130250000D03*
X94210000Y-130250000D03*
%TD*%
D44*
%TO.C,C52*%
X108500000Y-75980000D03*
X108500000Y-75020000D03*
%TD*%
D59*
%TO.C,S2*%
X149000000Y-78175000D03*
X149000000Y-82325000D03*
%TD*%
D27*
%TO.C,R56*%
X175150000Y-103890000D03*
X175150000Y-104910000D03*
%TD*%
D60*
%TO.C,U1*%
X147200000Y-88000000D03*
X148000000Y-88000000D03*
X148800000Y-88000000D03*
X149600000Y-88000000D03*
X150400000Y-88000000D03*
X151200000Y-88000000D03*
X152000000Y-88000000D03*
X152800000Y-88000000D03*
X153600000Y-88000000D03*
X154400000Y-88000000D03*
X155200000Y-88000000D03*
X156000000Y-88000000D03*
X156800000Y-88000000D03*
X157600000Y-88000000D03*
X158400000Y-88000000D03*
X159200000Y-88000000D03*
X160000000Y-88000000D03*
X147200000Y-88800000D03*
X148000000Y-88800000D03*
X148800000Y-88800000D03*
X149600000Y-88800000D03*
X150400000Y-88800000D03*
X151200000Y-88800000D03*
X152000000Y-88800000D03*
X152800000Y-88800000D03*
X153600000Y-88800000D03*
X154400000Y-88800000D03*
X155200000Y-88800000D03*
X156000000Y-88800000D03*
X156800000Y-88800000D03*
X157600000Y-88800000D03*
X158400000Y-88800000D03*
X159200000Y-88800000D03*
X160000000Y-88800000D03*
X147200000Y-89600000D03*
X148000000Y-89600000D03*
X148800000Y-89600000D03*
X149600000Y-89600000D03*
X150400000Y-89600000D03*
X151200000Y-89600000D03*
X152000000Y-89600000D03*
X152800000Y-89600000D03*
X153600000Y-89600000D03*
X154400000Y-89600000D03*
X155200000Y-89600000D03*
X156000000Y-89600000D03*
X156800000Y-89600000D03*
X157600000Y-89600000D03*
X158400000Y-89600000D03*
X159200000Y-89600000D03*
X160000000Y-89600000D03*
X147200000Y-90400000D03*
X148000000Y-90400000D03*
X148800000Y-90400000D03*
X149600000Y-90400000D03*
X150400000Y-90400000D03*
X151200000Y-90400000D03*
X152000000Y-90400000D03*
X152800000Y-90400000D03*
X153600000Y-90400000D03*
X154400000Y-90400000D03*
X155200000Y-90400000D03*
X156000000Y-90400000D03*
X156800000Y-90400000D03*
X157600000Y-90400000D03*
X158400000Y-90400000D03*
X159200000Y-90400000D03*
X160000000Y-90400000D03*
X147200000Y-91200000D03*
X148000000Y-91200000D03*
X148800000Y-91200000D03*
X149600000Y-91200000D03*
X150400000Y-91200000D03*
X151200000Y-91200000D03*
X152000000Y-91200000D03*
X152800000Y-91200000D03*
X153600000Y-91200000D03*
X154400000Y-91200000D03*
X155200000Y-91200000D03*
X156000000Y-91200000D03*
X156800000Y-91200000D03*
X157600000Y-91200000D03*
X158400000Y-91200000D03*
X159200000Y-91200000D03*
X160000000Y-91200000D03*
X147200000Y-92000000D03*
X148000000Y-92000000D03*
X148800000Y-92000000D03*
X149600000Y-92000000D03*
X150400000Y-92000000D03*
X156800000Y-92000000D03*
X157600000Y-92000000D03*
X158400000Y-92000000D03*
X159200000Y-92000000D03*
X160000000Y-92000000D03*
X147200000Y-92800000D03*
X148000000Y-92800000D03*
X148800000Y-92800000D03*
X149600000Y-92800000D03*
X150400000Y-92800000D03*
X152000000Y-92800000D03*
X152800000Y-92800000D03*
X153600000Y-92800000D03*
X154400000Y-92800000D03*
X155200000Y-92800000D03*
X156800000Y-92800000D03*
X157600000Y-92800000D03*
X158400000Y-92800000D03*
X159200000Y-92800000D03*
X160000000Y-92800000D03*
X147200000Y-93600000D03*
X148000000Y-93600000D03*
X148800000Y-93600000D03*
X149600000Y-93600000D03*
X150400000Y-93600000D03*
X152000000Y-93600000D03*
X152800000Y-93600000D03*
X153600000Y-93600000D03*
X154400000Y-93600000D03*
X155200000Y-93600000D03*
X156800000Y-93600000D03*
X157600000Y-93600000D03*
X158400000Y-93600000D03*
X159200000Y-93600000D03*
X160000000Y-93600000D03*
X147200000Y-94400000D03*
X148000000Y-94400000D03*
X148800000Y-94400000D03*
X149600000Y-94400000D03*
X150400000Y-94400000D03*
X152000000Y-94400000D03*
X152800000Y-94400000D03*
X153600000Y-94400000D03*
X154400000Y-94400000D03*
X155200000Y-94400000D03*
X156800000Y-94400000D03*
X157600000Y-94400000D03*
X158400000Y-94400000D03*
X159200000Y-94400000D03*
X160000000Y-94400000D03*
X147200000Y-95200000D03*
X148000000Y-95200000D03*
X148800000Y-95200000D03*
X149600000Y-95200000D03*
X150400000Y-95200000D03*
X152000000Y-95200000D03*
X152800000Y-95200000D03*
X153600000Y-95200000D03*
X154400000Y-95200000D03*
X155200000Y-95200000D03*
X156800000Y-95200000D03*
X157600000Y-95200000D03*
X158400000Y-95200000D03*
X159200000Y-95200000D03*
X160000000Y-95200000D03*
X147200000Y-96000000D03*
X148000000Y-96000000D03*
X148800000Y-96000000D03*
X149600000Y-96000000D03*
X150400000Y-96000000D03*
X152000000Y-96000000D03*
X152800000Y-96000000D03*
X153600000Y-96000000D03*
X154400000Y-96000000D03*
X155200000Y-96000000D03*
X156800000Y-96000000D03*
X157600000Y-96000000D03*
X158400000Y-96000000D03*
X159200000Y-96000000D03*
X160000000Y-96000000D03*
X147200000Y-96800000D03*
X148000000Y-96800000D03*
X148800000Y-96800000D03*
X149600000Y-96800000D03*
X150400000Y-96800000D03*
X156800000Y-96800000D03*
X157600000Y-96800000D03*
X158400000Y-96800000D03*
X159200000Y-96800000D03*
X160000000Y-96800000D03*
X147200000Y-97600000D03*
X148000000Y-97600000D03*
X148800000Y-97600000D03*
X149600000Y-97600000D03*
X150400000Y-97600000D03*
X151200000Y-97600000D03*
X152000000Y-97600000D03*
X152800000Y-97600000D03*
X153600000Y-97600000D03*
X154400000Y-97600000D03*
X155200000Y-97600000D03*
X156000000Y-97600000D03*
X156800000Y-97600000D03*
X157600000Y-97600000D03*
X158400000Y-97600000D03*
X159200000Y-97600000D03*
X160000000Y-97600000D03*
X147200000Y-98400000D03*
X148000000Y-98400000D03*
X148800000Y-98400000D03*
X149600000Y-98400000D03*
X150400000Y-98400000D03*
X151200000Y-98400000D03*
X152000000Y-98400000D03*
X152800000Y-98400000D03*
X153600000Y-98400000D03*
X154400000Y-98400000D03*
X155200000Y-98400000D03*
X156000000Y-98400000D03*
X156800000Y-98400000D03*
X157600000Y-98400000D03*
X158400000Y-98400000D03*
X159200000Y-98400000D03*
X160000000Y-98400000D03*
X147200000Y-99200000D03*
X148000000Y-99200000D03*
X148800000Y-99200000D03*
X149600000Y-99200000D03*
X150400000Y-99200000D03*
X151200000Y-99200000D03*
X152000000Y-99200000D03*
X152800000Y-99200000D03*
X153600000Y-99200000D03*
X154400000Y-99200000D03*
X155200000Y-99200000D03*
X156000000Y-99200000D03*
X156800000Y-99200000D03*
X157600000Y-99200000D03*
X158400000Y-99200000D03*
X159200000Y-99200000D03*
X160000000Y-99200000D03*
X147200000Y-100000000D03*
X148000000Y-100000000D03*
X148800000Y-100000000D03*
X149600000Y-100000000D03*
X150400000Y-100000000D03*
X151200000Y-100000000D03*
X152000000Y-100000000D03*
X152800000Y-100000000D03*
X153600000Y-100000000D03*
X154400000Y-100000000D03*
X155200000Y-100000000D03*
X156000000Y-100000000D03*
X156800000Y-100000000D03*
X157600000Y-100000000D03*
X158400000Y-100000000D03*
X159200000Y-100000000D03*
X160000000Y-100000000D03*
X147200000Y-100800000D03*
X148000000Y-100800000D03*
X148800000Y-100800000D03*
X149600000Y-100800000D03*
X150400000Y-100800000D03*
X151200000Y-100800000D03*
X152000000Y-100800000D03*
X152800000Y-100800000D03*
X153600000Y-100800000D03*
X154400000Y-100800000D03*
X155200000Y-100800000D03*
X156000000Y-100800000D03*
X156800000Y-100800000D03*
X157600000Y-100800000D03*
X158400000Y-100800000D03*
X159200000Y-100800000D03*
X160000000Y-100800000D03*
%TD*%
D24*
%TO.C,C49*%
X181000000Y-61020000D03*
X181000000Y-61980000D03*
%TD*%
D12*
%TO.C,D2*%
X95790000Y-128750000D03*
X94210000Y-128750000D03*
%TD*%
D11*
%TO.C,R17*%
X64240000Y-76000000D03*
X65260000Y-76000000D03*
%TD*%
D40*
%TO.C,Q2*%
X166000000Y-138200000D03*
X166000000Y-136300000D03*
X164000000Y-137250000D03*
%TD*%
D61*
%TO.C,J7*%
X160500000Y-79500000D03*
X160500000Y-83400000D03*
X159230000Y-79500000D03*
X159230000Y-83400000D03*
X157960000Y-79500000D03*
X157960000Y-83400000D03*
X156690000Y-79500000D03*
X156690000Y-83400000D03*
X155420000Y-79500000D03*
X155420000Y-83400000D03*
%TD*%
D19*
%TO.C,M9*%
X63050560Y-75893845D03*
X63050560Y-75071845D03*
D23*
X62713060Y-74279294D03*
D22*
X62672509Y-73319845D03*
D21*
X61753611Y-74319845D03*
D20*
X61713060Y-73360396D03*
D19*
X61375560Y-75071845D03*
X61375560Y-75893845D03*
%TD*%
D18*
%TO.C,R57*%
X175150000Y-100710000D03*
X175150000Y-99690000D03*
%TD*%
%TO.C,R19*%
X99000000Y-100510000D03*
X99000000Y-99490000D03*
%TD*%
D24*
%TO.C,C47*%
X125250000Y-101270000D03*
X125250000Y-102230000D03*
%TD*%
D32*
%TO.C,C77*%
X115020000Y-117990000D03*
X115980000Y-117990000D03*
%TD*%
D44*
%TO.C,C51*%
X108000000Y-64730000D03*
X108000000Y-63770000D03*
%TD*%
D27*
%TO.C,R14*%
X130000000Y-77990000D03*
X130000000Y-79010000D03*
%TD*%
D62*
%TO.C,L2*%
X107497761Y-126440000D03*
X107497761Y-129440000D03*
%TD*%
D44*
%TO.C,C45*%
X81750000Y-81980000D03*
X81750000Y-81020000D03*
%TD*%
D45*
%TO.C,C6*%
X142300000Y-83500000D03*
X144200000Y-83500000D03*
%TD*%
D27*
%TO.C,R7*%
X111500000Y-44740000D03*
X111500000Y-45760000D03*
%TD*%
D19*
%TO.C,M4*%
X121884706Y-81515294D03*
X121884706Y-82337294D03*
D20*
X122222206Y-83129845D03*
D21*
X122262757Y-84089294D03*
D22*
X123181655Y-83089294D03*
D23*
X123222206Y-84048743D03*
D19*
X123559706Y-82337294D03*
X123559706Y-81515294D03*
%TD*%
D18*
%TO.C,R3*%
X140000000Y-107510000D03*
X140000000Y-106490000D03*
%TD*%
D44*
%TO.C,C66*%
X137283900Y-97196100D03*
X137283900Y-96236100D03*
%TD*%
M02*
