M48
; DRILL file KiCad 10.0.3 date 2026-06-17T22:06:16
; FORMAT={-:-/ absolute / inch / decimal}
; #@! TF.CreationDate,2026-06-17T22:06:16-04:00
; #@! TF.GenerationSoftware,Kicad,Pcbnew,10.0.3
; #@! TF.FileFunction,Plated,1,4,PTH
FMAT,2
INCH
; #@! TA.AperFunction,Plated,PTH,ViaDrill
T1C0.0079
; #@! TA.AperFunction,Plated,PTH,ComponentDrill
T2C0.0079
; #@! TA.AperFunction,Plated,PTH,ViaDrill
T3C0.0118
; #@! TA.AperFunction,Plated,PTH,ComponentDrill
T4C0.0236
; #@! TA.AperFunction,Plated,PTH,ComponentDrill
T5C0.0295
; #@! TA.AperFunction,Plated,PTH,ComponentDrill
T6C0.0846
; #@! TA.AperFunction,Plated,PTH,ComponentDrill
T7C0.1260
%
G90
G05
T1
X4.1969Y-3.1811
X4.1969Y-3.2362
X4.6457Y-4.7543
X4.811Y-4.2913
X4.9311Y-3.987
X5.1171Y-4.5679
X5.2677Y-4.0472
X5.3051Y-3.7008
X5.3248Y-3.622
X5.3261Y-4.0144
X5.3445Y-4.0059
X5.3455Y-3.622
X5.374Y-3.5433
X5.3937Y-3.7559
X5.4134Y-3.9075
X5.4134Y-3.9281
X5.4643Y-3.4731
X5.4643Y-3.5124
X5.4803Y-4.937
X5.6063Y-5.063
X5.6299Y-4.1831
X5.7382Y-4.1339
X5.7575Y-3.7402
X5.7953Y-3.4646
X5.7953Y-3.4961
X5.7953Y-3.748
X5.7953Y-3.7795
X5.7953Y-3.8425
X5.7953Y-3.874
X5.7953Y-3.9685
X5.8268Y-3.4646
X5.8268Y-3.4961
X5.8268Y-3.622
X5.8268Y-3.6535
X5.8268Y-4.6378
X5.8583Y-3.4646
X5.8583Y-3.4961
X5.8583Y-3.7165
X5.8583Y-3.9055
X5.8583Y-4.6378
X5.8705Y-3.3032
X5.876Y-3.5728
X5.876Y-3.6024
X5.8898Y-3.4646
X5.8898Y-3.4961
X5.8898Y-3.5276
X5.8898Y-3.9055
X5.8898Y-4.6378
X5.8957Y-5.1484
X5.8957Y-5.1862
X5.9213Y-3.4646
X5.9213Y-3.4961
X5.9213Y-3.622
X5.9213Y-3.6535
X5.9213Y-3.685
X5.9213Y-3.748
X5.9213Y-3.7795
X5.9213Y-3.811
X5.9213Y-4.6358
X5.935Y-3.5728
X5.9465Y-3.6535
X5.9465Y-3.685
X5.9465Y-3.748
X5.9465Y-3.7795
X5.9465Y-3.811
X5.9474Y-3.622
X5.9528Y-3.4646
X5.9528Y-3.4961
X5.9528Y-3.5906
X5.9528Y-4.6366
X5.9843Y-3.6535
X5.9843Y-3.685
X5.9843Y-3.7165
X5.9843Y-3.748
X5.9843Y-3.7795
X5.9843Y-3.8425
X5.9843Y-4.6358
X5.9843Y-4.6772
X5.9843Y-4.7323
X5.9843Y-4.7874
X5.9843Y-4.8504
X5.9843Y-4.9134
X5.9843Y-4.9764
X5.9843Y-5.0394
X5.9843Y-5.0945
X5.9843Y-5.1496
X5.9843Y-5.1772
X5.9862Y-5.199
X6.0157Y-3.5906
X6.0157Y-3.6535
X6.0157Y-3.685
X6.0157Y-3.7165
X6.0157Y-3.748
X6.0157Y-3.7795
X6.0157Y-3.8425
X6.0157Y-3.874
X6.0157Y-3.9055
X6.0187Y-4.0108
X6.031Y-3.4257
X6.0315Y-4.6693
X6.0315Y-4.7323
X6.0315Y-4.7953
X6.0315Y-4.8583
X6.0315Y-4.9213
X6.0315Y-4.9843
X6.0315Y-5.0472
X6.0472Y-3.5906
X6.0472Y-3.6535
X6.0472Y-3.685
X6.0472Y-3.7165
X6.0472Y-3.748
X6.0472Y-3.7795
X6.0472Y-3.8425
X6.0472Y-3.874
X6.0531Y-4.6161
X6.063Y-3.5521
X6.0728Y-4.5669
X6.0787Y-3.5276
X6.0787Y-3.6535
X6.0787Y-3.685
X6.0787Y-3.7165
X6.0787Y-3.748
X6.0787Y-3.7795
X6.0787Y-3.8425
X6.0787Y-3.937
X6.0787Y-3.9685
X6.0827Y-4.0354
X6.0904Y-3.9982
X6.0925Y-3.6319
X6.0925Y-4.5177
X6.0945Y-3.4331
X6.1024Y-4.1831
X6.1102Y-3.5276
X6.1102Y-3.5906
X6.1102Y-3.6535
X6.1102Y-3.685
X6.1102Y-3.7165
X6.1102Y-3.748
X6.1102Y-3.7795
X6.1102Y-3.8425
X6.1152Y-4.0738
X6.1181Y-4.3465
X6.1275Y-3.8907
X6.1329Y-4.0092
X6.1388Y-4.0285
X6.1417Y-3.5906
X6.1417Y-3.8425
X6.1417Y-3.937
X6.1417Y-3.9685
X6.148Y-3.6535
X6.1496Y-3.685
X6.1496Y-3.7165
X6.1496Y-3.748
X6.1496Y-3.7795
X6.1496Y-3.811
X6.1516Y-4.0453
X6.1709Y-3.3461
X6.1732Y-3.4961
X6.1732Y-3.5276
X6.1732Y-3.5591
X6.1732Y-3.6535
X6.1732Y-3.685
X6.1732Y-3.7165
X6.1732Y-3.748
X6.1732Y-3.7795
X6.1732Y-3.811
X6.1732Y-3.937
X6.1752Y-4.3465
X6.189Y-3.4094
X6.1909Y-3.3661
X6.1909Y-4.5177
X6.2047Y-3.4961
X6.2047Y-3.5591
X6.2047Y-4.0551
X6.2104Y-3.4254
X6.2341Y-3.3837
X6.2362Y-3.4252
X6.2362Y-3.4646
X6.2362Y-3.5276
X6.2362Y-3.5591
X6.2362Y-3.748
X6.2362Y-3.874
X6.2362Y-3.9685
X6.2402Y-4.0256
X6.2677Y-3.5276
X6.2677Y-3.6535
X6.2677Y-3.7165
X6.2677Y-3.8425
X6.2992Y-3.4646
X6.2992Y-3.4961
X6.2992Y-3.5276
X6.2992Y-3.5591
X6.2992Y-3.622
X6.2992Y-3.6535
X6.2992Y-3.685
X6.2992Y-3.7165
X6.2992Y-3.874
X6.2992Y-3.9685
X6.3061Y-3.4173
X6.3189Y-3.378
X6.3317Y-3.4331
X6.3661Y-4.0039
X6.3681Y-3.4941
X6.378Y-3.9606
X6.4222Y-4.0039
T2
X4.3769Y-5.0382
X4.3995Y-5.0008
X4.3995Y-5.0756
X4.4222Y-5.0382
T3
X2.372Y-2.9535
X2.3937Y-1.8031
X2.3937Y-2.0
X2.3937Y-2.1969
X2.3937Y-2.3937
X2.3937Y-2.5906
X2.3937Y-2.7874
X2.3937Y-3.1811
X2.3937Y-3.378
X2.3937Y-3.5748
X2.3937Y-3.7717
X2.3937Y-3.9685
X2.3937Y-4.1654
X2.3937Y-4.3622
X2.3937Y-4.5591
X2.3937Y-4.7559
X2.3937Y-4.9528
X2.3937Y-5.1496
X2.4164Y-2.9879
X2.4429Y-1.9016
X2.4429Y-2.0984
X2.4429Y-2.2953
X2.4429Y-2.4921
X2.4429Y-2.689
X2.4429Y-3.0827
X2.4429Y-3.2795
X2.4429Y-3.4764
X2.4429Y-3.6732
X2.4429Y-3.8701
X2.4429Y-4.0669
X2.4429Y-4.2638
X2.4429Y-4.4606
X2.4429Y-4.6575
X2.4429Y-4.8543
X2.4429Y-5.0512
X2.4429Y-5.248
X2.4823Y-2.9556
X2.4921Y-1.8031
X2.4921Y-2.0
X2.4921Y-2.1969
X2.4921Y-2.3937
X2.4921Y-2.5906
X2.4921Y-2.7874
X2.4921Y-3.1811
X2.4921Y-3.378
X2.4921Y-3.5748
X2.4921Y-3.7717
X2.4921Y-3.9685
X2.4921Y-4.1654
X2.4921Y-4.3622
X2.4921Y-4.5591
X2.4921Y-4.7559
X2.4921Y-4.9528
X2.4921Y-5.1496
X2.5413Y-1.9016
X2.5413Y-2.0984
X2.5413Y-2.2953
X2.5413Y-2.4921
X2.5413Y-2.689
X2.5413Y-2.8858
X2.5413Y-3.2795
X2.5413Y-3.4764
X2.5413Y-3.6732
X2.5413Y-3.8701
X2.5413Y-4.0669
X2.5413Y-4.2638
X2.5413Y-4.4606
X2.5413Y-4.6575
X2.5413Y-4.8543
X2.5413Y-5.0512
X2.5413Y-5.248
X2.5413Y-5.4449
X2.5906Y-1.6063
X2.5906Y-1.8031
X2.5906Y-2.0
X2.5906Y-2.1969
X2.5906Y-2.3937
X2.5906Y-2.5906
X2.5906Y-2.7874
X2.5906Y-3.378
X2.5906Y-3.5748
X2.5906Y-3.7717
X2.5906Y-3.9685
X2.5906Y-4.1654
X2.5906Y-4.3622
X2.5906Y-4.5591
X2.5906Y-4.7559
X2.5906Y-4.9528
X2.5906Y-5.1496
X2.5906Y-5.3465
X2.6398Y-1.7047
X2.6398Y-1.9016
X2.6398Y-2.0984
X2.6398Y-2.2953
X2.6398Y-2.4921
X2.6398Y-2.689
X2.6398Y-2.8858
X2.6398Y-3.0827
X2.6398Y-3.2795
X2.6398Y-3.4764
X2.6398Y-3.6732
X2.6398Y-3.8701
X2.6398Y-4.0669
X2.6398Y-4.2638
X2.6398Y-4.4606
X2.6398Y-4.6575
X2.6398Y-4.8543
X2.6398Y-5.0512
X2.6398Y-5.248
X2.6398Y-5.4449
X2.689Y-1.6063
X2.689Y-1.8031
X2.689Y-2.0
X2.689Y-2.1969
X2.689Y-2.3937
X2.689Y-2.5906
X2.689Y-2.7874
X2.689Y-3.1811
X2.689Y-3.378
X2.689Y-3.5748
X2.689Y-3.7717
X2.689Y-3.9685
X2.689Y-4.1654
X2.689Y-4.3622
X2.689Y-4.5591
X2.689Y-4.7559
X2.689Y-4.9528
X2.689Y-5.1496
X2.689Y-5.3465
X2.7382Y-1.7047
X2.7382Y-1.9016
X2.7382Y-2.0984
X2.7382Y-2.2953
X2.7382Y-2.4921
X2.7382Y-2.689
X2.7382Y-2.8858
X2.7382Y-3.0827
X2.7382Y-3.4764
X2.7382Y-3.6732
X2.7382Y-3.8701
X2.7382Y-4.0669
X2.7382Y-4.2638
X2.7382Y-4.4606
X2.7382Y-4.6575
X2.7382Y-4.8543
X2.7382Y-5.0512
X2.7382Y-5.248
X2.7382Y-5.4449
X2.7874Y-1.6063
X2.7874Y-1.8031
X2.7874Y-2.0
X2.7874Y-2.1969
X2.7874Y-2.3937
X2.7874Y-2.5906
X2.7874Y-2.7874
X2.7874Y-3.1811
X2.7874Y-3.378
X2.7874Y-3.5748
X2.7874Y-3.7717
X2.7874Y-3.9685
X2.7874Y-4.1654
X2.7874Y-4.3622
X2.7874Y-4.5591
X2.7874Y-4.7559
X2.7874Y-4.9528
X2.7874Y-5.1496
X2.7874Y-5.3465
X2.8366Y-1.7047
X2.8366Y-1.9016
X2.8366Y-2.0984
X2.8366Y-2.2953
X2.8366Y-2.4921
X2.8366Y-2.689
X2.8366Y-2.8858
X2.8366Y-3.0827
X2.8366Y-3.4764
X2.8366Y-3.6732
X2.8366Y-3.8701
X2.8366Y-4.0669
X2.8366Y-4.2638
X2.8366Y-4.4606
X2.8366Y-4.6575
X2.8366Y-4.8543
X2.8366Y-5.0512
X2.8366Y-5.248
X2.8366Y-5.4449
X2.8858Y-1.6063
X2.8858Y-1.8031
X2.8858Y-2.0
X2.8858Y-2.1969
X2.8858Y-2.3937
X2.8858Y-2.5906
X2.8858Y-2.7874
X2.8858Y-3.1811
X2.8858Y-3.378
X2.8858Y-3.5748
X2.8858Y-3.7717
X2.8858Y-3.9685
X2.8858Y-4.1654
X2.8858Y-4.3622
X2.8858Y-4.5591
X2.8858Y-4.7559
X2.8858Y-4.9528
X2.8858Y-5.1496
X2.8858Y-5.3465
X2.935Y-1.7047
X2.935Y-1.9016
X2.935Y-2.0984
X2.935Y-2.2953
X2.935Y-2.4921
X2.935Y-2.689
X2.935Y-2.8858
X2.935Y-3.0827
X2.935Y-3.4764
X2.935Y-3.6732
X2.935Y-3.8701
X2.935Y-4.0669
X2.935Y-4.2638
X2.935Y-4.4606
X2.935Y-4.6575
X2.935Y-4.8543
X2.935Y-5.0512
X2.935Y-5.248
X2.935Y-5.4449
X2.9843Y-1.6063
X2.9843Y-1.8031
X2.9843Y-2.0
X2.9843Y-2.1969
X2.9843Y-2.3937
X2.9843Y-2.5906
X2.9843Y-2.7874
X2.9843Y-3.1811
X2.9843Y-3.378
X2.9843Y-3.5748
X2.9843Y-3.7717
X2.9843Y-3.9685
X2.9843Y-4.1654
X2.9843Y-4.3622
X2.9843Y-4.5591
X2.9843Y-4.7559
X2.9843Y-4.9528
X2.9843Y-5.1496
X2.9843Y-5.3465
X3.0335Y-1.7047
X3.0335Y-1.9016
X3.0335Y-2.0984
X3.0335Y-2.2953
X3.0335Y-2.4921
X3.0335Y-2.689
X3.0335Y-2.8858
X3.0335Y-3.0827
X3.0335Y-3.4764
X3.0335Y-3.6732
X3.0335Y-3.8701
X3.0335Y-4.0669
X3.0335Y-4.2638
X3.0335Y-4.4606
X3.0335Y-4.6575
X3.0335Y-5.4449
X3.0827Y-1.6063
X3.0827Y-1.8031
X3.0827Y-2.0
X3.0827Y-2.1969
X3.0827Y-2.3937
X3.0827Y-2.5906
X3.0827Y-2.7874
X3.0827Y-3.1811
X3.0827Y-3.378
X3.0827Y-3.5748
X3.0827Y-3.7717
X3.0827Y-3.9685
X3.0827Y-4.1654
X3.0827Y-4.3622
X3.0827Y-4.5591
X3.0827Y-4.7559
X3.0827Y-4.9528
X3.0827Y-5.1496
X3.0827Y-5.3465
X3.1319Y-1.7047
X3.1319Y-1.9016
X3.1319Y-2.0984
X3.1319Y-2.2953
X3.1319Y-2.4921
X3.1319Y-2.689
X3.1319Y-2.8858
X3.1319Y-3.0827
X3.1319Y-3.4764
X3.1319Y-3.6732
X3.1319Y-3.8701
X3.1319Y-4.0669
X3.1319Y-4.2638
X3.1319Y-4.4606
X3.1319Y-4.8543
X3.1319Y-5.0512
X3.1319Y-5.4449
X3.1811Y-1.6063
X3.1811Y-1.8031
X3.1811Y-2.0
X3.1811Y-2.1969
X3.1811Y-2.3937
X3.1811Y-2.5906
X3.1811Y-2.7874
X3.1811Y-3.1811
X3.1811Y-3.378
X3.1811Y-3.5748
X3.1811Y-3.7717
X3.1811Y-3.9685
X3.1811Y-4.1654
X3.1811Y-4.3622
X3.1811Y-4.7559
X3.1811Y-4.9528
X3.1811Y-5.3465
X3.1988Y-5.2354
X3.2185Y-3.1898
X3.2303Y-1.7047
X3.2303Y-1.9016
X3.2303Y-2.0984
X3.2303Y-2.2953
X3.2303Y-2.4921
X3.2303Y-2.689
X3.2303Y-2.8858
X3.2303Y-3.0827
X3.2303Y-3.4764
X3.2303Y-3.6732
X3.2303Y-3.8701
X3.2303Y-4.0669
X3.2303Y-4.2638
X3.2303Y-4.4606
X3.2303Y-4.6575
X3.2303Y-4.8543
X3.2303Y-5.4449
X3.2711Y-3.2328
X3.2795Y-1.6063
X3.2795Y-1.8031
X3.2795Y-2.0
X3.2795Y-2.1969
X3.2795Y-2.3937
X3.2795Y-2.5906
X3.2795Y-2.7874
X3.2795Y-3.378
X3.2795Y-3.5748
X3.2795Y-3.7717
X3.2795Y-3.9685
X3.2795Y-4.1654
X3.2795Y-4.3622
X3.2795Y-4.5591
X3.2795Y-4.7559
X3.2795Y-4.9528
X3.2795Y-5.3465
X3.3287Y-1.7047
X3.3287Y-1.9016
X3.3287Y-2.0984
X3.3287Y-2.2953
X3.3287Y-2.4921
X3.3287Y-2.689
X3.3287Y-2.8858
X3.3287Y-3.4764
X3.3287Y-3.6732
X3.3287Y-3.8701
X3.3287Y-4.0669
X3.3287Y-4.2638
X3.3287Y-4.6575
X3.3287Y-4.8543
X3.3287Y-5.0512
X3.3287Y-5.248
X3.3287Y-5.4449
X3.3465Y-3.2047
X3.378Y-1.6063
X3.378Y-1.8031
X3.378Y-2.0
X3.378Y-2.1969
X3.378Y-2.3937
X3.378Y-2.5906
X3.378Y-2.7874
X3.378Y-2.9843
X3.378Y-3.378
X3.378Y-3.5748
X3.378Y-3.7717
X3.378Y-3.9685
X3.378Y-4.1654
X3.378Y-4.5591
X3.378Y-4.7559
X3.378Y-5.1496
X3.378Y-5.3465
X3.4272Y-1.7047
X3.4272Y-1.9016
X3.4272Y-2.0984
X3.4272Y-2.2953
X3.4272Y-2.4921
X3.4272Y-2.689
X3.4272Y-2.8858
X3.4272Y-3.0827
X3.4272Y-3.4764
X3.4272Y-3.6732
X3.4272Y-3.8701
X3.4272Y-4.0669
X3.4272Y-4.2638
X3.4272Y-4.4606
X3.4272Y-4.6575
X3.4272Y-5.0512
X3.4272Y-5.248
X3.4272Y-5.4449
X3.4764Y-1.6063
X3.4764Y-1.8031
X3.4764Y-2.0
X3.4764Y-2.1969
X3.4764Y-2.3937
X3.4764Y-2.5906
X3.4764Y-2.7874
X3.4764Y-2.9843
X3.4764Y-3.1811
X3.4764Y-3.5748
X3.4764Y-3.7717
X3.4764Y-3.9685
X3.4764Y-4.1654
X3.4764Y-4.3622
X3.4764Y-4.5591
X3.4764Y-4.7559
X3.4764Y-4.9528
X3.4764Y-5.1496
X3.4764Y-5.3465
X3.5256Y-1.7047
X3.5256Y-1.9016
X3.5256Y-2.0984
X3.5256Y-2.2953
X3.5256Y-2.4921
X3.5256Y-2.689
X3.5256Y-2.8858
X3.5256Y-3.0827
X3.5256Y-3.6732
X3.5256Y-3.8701
X3.5256Y-4.0669
X3.5256Y-4.4606
X3.5256Y-4.6575
X3.5256Y-4.8543
X3.5256Y-5.0512
X3.5256Y-5.248
X3.5256Y-5.4449
X3.5748Y-1.6063
X3.5748Y-1.8031
X3.5748Y-2.0
X3.5748Y-2.1969
X3.5748Y-2.3937
X3.5748Y-2.5906
X3.5748Y-2.7874
X3.5748Y-2.9843
X3.5748Y-3.1811
X3.5748Y-3.5748
X3.5748Y-3.7717
X3.5748Y-3.9685
X3.5748Y-4.5591
X3.5748Y-4.9528
X3.5748Y-5.3465
X3.624Y-1.7047
X3.624Y-1.9016
X3.624Y-2.0984
X3.624Y-2.2953
X3.624Y-2.4921
X3.624Y-2.689
X3.624Y-2.8858
X3.624Y-3.0827
X3.624Y-3.2795
X3.624Y-3.6732
X3.624Y-3.8701
X3.624Y-4.2638
X3.624Y-4.4606
X3.624Y-4.8543
X3.624Y-5.0512
X3.624Y-5.248
X3.624Y-5.4449
X3.6408Y-4.4451
X3.6732Y-1.6063
X3.6732Y-1.8031
X3.6732Y-2.0
X3.6732Y-2.1969
X3.6732Y-2.3937
X3.6732Y-2.5906
X3.6732Y-2.7874
X3.6732Y-2.9843
X3.6732Y-3.1811
X3.6732Y-3.378
X3.6732Y-3.5748
X3.6732Y-3.7717
X3.6732Y-3.9685
X3.6732Y-4.1654
X3.6732Y-4.3622
X3.6732Y-4.5591
X3.6732Y-4.7559
X3.6732Y-4.9528
X3.6732Y-5.1496
X3.6732Y-5.3465
X3.7008Y-3.3276
X3.7224Y-1.7047
X3.7224Y-1.9016
X3.7224Y-2.0984
X3.7224Y-2.2953
X3.7224Y-2.4921
X3.7224Y-2.689
X3.7224Y-2.8858
X3.7224Y-3.0827
X3.7224Y-3.2795
X3.7224Y-3.6732
X3.7224Y-4.0669
X3.7224Y-4.2638
X3.7224Y-4.8543
X3.7224Y-5.248
X3.7224Y-5.4449
X3.7463Y-3.3693
X3.7598Y-4.4102
X3.7717Y-1.6063
X3.7717Y-1.8031
X3.7717Y-2.0
X3.7717Y-2.1969
X3.7717Y-2.3937
X3.7717Y-2.5906
X3.7717Y-2.7874
X3.7717Y-2.9843
X3.7717Y-3.1811
X3.7717Y-3.9685
X3.7717Y-4.1654
X3.7717Y-4.3622
X3.7717Y-4.7559
X3.7717Y-5.3465
X3.8123Y-3.3369
X3.8209Y-1.7047
X3.8209Y-1.9016
X3.8209Y-2.0984
X3.8209Y-2.2953
X3.8209Y-2.4921
X3.8209Y-2.689
X3.8209Y-2.8858
X3.8209Y-3.0827
X3.8209Y-3.2795
X3.8209Y-3.6732
X3.8209Y-3.8701
X3.8209Y-4.6575
X3.8209Y-4.8543
X3.8209Y-5.248
X3.8209Y-5.4449
X3.8681Y-5.1266
X3.8701Y-1.6063
X3.8701Y-1.8031
X3.8701Y-2.0
X3.8701Y-2.1969
X3.8701Y-2.3937
X3.8701Y-2.5906
X3.8701Y-2.7874
X3.8701Y-2.9843
X3.8701Y-3.1811
X3.8701Y-3.5748
X3.8701Y-3.7717
X3.8701Y-3.9685
X3.8701Y-4.1654
X3.8701Y-4.3622
X3.8701Y-4.5591
X3.8701Y-4.7559
X3.8701Y-5.3465
X3.9055Y-4.9843
X3.9193Y-1.7047
X3.9193Y-1.9016
X3.9193Y-2.0984
X3.9193Y-2.2953
X3.9193Y-2.4921
X3.9193Y-2.689
X3.9193Y-2.8858
X3.9193Y-3.0827
X3.9193Y-3.2795
X3.9193Y-4.0669
X3.9193Y-4.2638
X3.9193Y-4.4606
X3.9193Y-4.6575
X3.9193Y-4.8543
X3.9193Y-5.248
X3.9193Y-5.4449
X3.9272Y-5.1181
X3.9515Y-3.9844
X3.9567Y-5.0886
X3.9685Y-1.6063
X3.9685Y-1.8031
X3.9685Y-2.0
X3.9685Y-2.1969
X3.9685Y-2.3937
X3.9685Y-2.5906
X3.9685Y-2.7874
X3.9685Y-2.9843
X3.9685Y-3.1811
X3.9685Y-4.3622
X3.9685Y-4.5591
X3.9685Y-4.7559
X3.9862Y-4.9291
X3.9862Y-4.9902
X3.9862Y-5.1181
X4.0157Y-3.952
X4.0177Y-1.7047
X4.0177Y-1.9016
X4.0177Y-2.0984
X4.0177Y-2.2953
X4.0177Y-2.4921
X4.0177Y-2.689
X4.0177Y-2.8858
X4.0177Y-3.0827
X4.0177Y-4.0669
X4.0177Y-4.2638
X4.0177Y-4.4606
X4.0177Y-4.6575
X4.0177Y-4.8543
X4.0177Y-5.248
X4.0177Y-5.4449
X4.0551Y-5.0965
X4.0669Y-1.6063
X4.0669Y-1.8031
X4.0669Y-2.0
X4.0669Y-2.1969
X4.0669Y-2.3937
X4.0669Y-2.5906
X4.0669Y-2.7874
X4.0669Y-2.9843
X4.0669Y-3.1811
X4.0669Y-3.7717
X4.0669Y-4.1654
X4.0669Y-4.5591
X4.0669Y-4.7559
X4.0669Y-5.3465
X4.1161Y-1.7047
X4.1161Y-1.9016
X4.1161Y-2.0984
X4.1161Y-2.2953
X4.1161Y-2.4921
X4.1161Y-2.689
X4.1161Y-2.8858
X4.1161Y-3.0827
X4.1161Y-3.6732
X4.1161Y-3.8701
X4.1161Y-4.2638
X4.1161Y-4.6575
X4.1161Y-5.0512
X4.1161Y-5.4449
X4.1654Y-1.6063
X4.1654Y-1.8031
X4.1654Y-2.0
X4.1654Y-2.1969
X4.1654Y-2.3937
X4.1654Y-2.5906
X4.1654Y-2.7874
X4.1654Y-2.9843
X4.1654Y-3.1811
X4.1654Y-3.7717
X4.1654Y-4.1654
X4.1654Y-4.5591
X4.1654Y-4.7559
X4.1682Y-3.5733
X4.1732Y-4.4094
X4.2126Y-4.4093
X4.2146Y-1.7047
X4.2146Y-1.9016
X4.2146Y-2.0984
X4.2146Y-2.2953
X4.2146Y-2.4921
X4.2146Y-2.689
X4.2146Y-2.8858
X4.2146Y-3.8701
X4.2146Y-4.0669
X4.2146Y-4.2638
X4.2146Y-4.6575
X4.2146Y-4.8543
X4.2146Y-5.4449
X4.2175Y-4.4537
X4.2323Y-1.7232
X4.2323Y-4.3307
X4.2441Y-2.9449
X4.252Y-2.5106
X4.252Y-4.2913
X4.2638Y-1.6063
X4.2638Y-2.7874
X4.2638Y-4.1654
X4.2778Y-1.7615
X4.2913Y-4.4093
X4.2992Y-4.622
X4.3054Y-2.5518
X4.311Y-4.3307
X4.313Y-3.0827
X4.313Y-3.8701
X4.313Y-4.0669
X4.313Y-4.8543
X4.313Y-5.4449
X4.3203Y-2.9913
X4.3307Y-4.4093
X4.3438Y-1.7291
X4.3504Y-4.3307
X4.3504Y-4.439
X4.3602Y-4.5276
X4.3622Y-1.6063
X4.3622Y-2.0
X4.3622Y-2.1969
X4.3622Y-2.3937
X4.3622Y-2.7874
X4.3622Y-4.1654
X4.3622Y-4.7559
X4.3681Y-4.4136
X4.3714Y-2.5194
X4.378Y-4.6929
X4.3867Y-2.9585
X4.4114Y-1.7047
X4.4114Y-1.9016
X4.4114Y-2.0984
X4.4114Y-2.2953
X4.4114Y-2.4921
X4.4114Y-2.8858
X4.4114Y-3.0827
X4.4114Y-3.8701
X4.4114Y-4.0669
X4.4114Y-4.6575
X4.4114Y-5.4449
X4.4193Y-4.4398
X4.4271Y-4.8402
X4.4271Y-4.9189
X4.4369Y-5.1551
X4.4488Y-4.7244
X4.4606Y-1.6063
X4.4606Y-1.8031
X4.4606Y-2.0
X4.4606Y-2.1969
X4.4606Y-2.3937
X4.4606Y-2.7874
X4.4606Y-4.1654
X4.4606Y-4.9528
X4.4682Y-4.3364
X4.4882Y-4.4093
X4.4975Y-5.0185
X4.5079Y-4.3307
X4.5098Y-1.7047
X4.5098Y-2.689
X4.5098Y-2.8858
X4.5098Y-3.0827
X4.5098Y-3.8701
X4.5098Y-4.0669
X4.5098Y-5.4449
X4.5472Y-4.3307
X4.5571Y-4.9857
X4.5591Y-1.6063
X4.5591Y-1.8031
X4.5591Y-2.0
X4.5591Y-2.1969
X4.5591Y-2.3937
X4.5591Y-2.5906
X4.5591Y-3.5748
X4.5591Y-3.7717
X4.5591Y-5.1496
X4.5591Y-5.3465
X4.5669Y-4.4093
X4.5669Y-4.7244
X4.5748Y-4.6535
X4.6063Y-4.7138
X4.6083Y-1.7047
X4.6083Y-1.9016
X4.6083Y-2.0984
X4.6083Y-2.2953
X4.6083Y-2.4921
X4.6083Y-2.8858
X4.6083Y-3.0827
X4.6083Y-3.6732
X4.6083Y-3.8701
X4.6083Y-4.0669
X4.6083Y-5.248
X4.6083Y-5.4449
X4.626Y-4.5079
X4.6457Y-4.5827
X4.6457Y-4.7142
X4.6575Y-1.6063
X4.6575Y-1.8031
X4.6575Y-2.0
X4.6575Y-2.1969
X4.6575Y-2.3937
X4.6575Y-2.5906
X4.6575Y-3.7717
X4.6575Y-4.3622
X4.6575Y-4.9257
X4.6575Y-5.1496
X4.6575Y-5.3465
X4.6929Y-4.5827
X4.6949Y-5.0153
X4.7067Y-1.7047
X4.7067Y-1.9016
X4.7067Y-2.0984
X4.7067Y-2.2953
X4.7067Y-2.4921
X4.7067Y-2.689
X4.7067Y-2.8858
X4.7067Y-3.0827
X4.7067Y-3.8701
X4.7067Y-4.2638
X4.7067Y-5.248
X4.7067Y-5.4449
X4.7165Y-4.748
X4.7539Y-4.9641
X4.7539Y-5.0251
X4.7559Y-1.6063
X4.7559Y-1.8031
X4.7559Y-2.0
X4.7559Y-2.1969
X4.7559Y-2.3937
X4.7559Y-2.5906
X4.7559Y-2.7874
X4.7559Y-2.9843
X4.7559Y-3.7717
X4.7559Y-4.1654
X4.7559Y-4.3622
X4.7559Y-5.1496
X4.7559Y-5.3465
X4.7986Y-3.2416
X4.8051Y-1.7047
X4.8051Y-1.9016
X4.8051Y-2.0984
X4.8051Y-2.2953
X4.8051Y-2.4921
X4.8051Y-2.689
X4.8051Y-2.8858
X4.8051Y-3.0827
X4.8051Y-4.8543
X4.8051Y-5.248
X4.8051Y-5.4449
X4.8238Y-4.8917
X4.8421Y-5.1083
X4.8524Y-4.8287
X4.8543Y-1.6063
X4.8543Y-1.8031
X4.8543Y-2.0
X4.8543Y-2.1969
X4.8543Y-2.3937
X4.8543Y-2.5906
X4.8543Y-2.7874
X4.8543Y-2.9843
X4.8543Y-4.1654
X4.8543Y-4.3622
X4.8543Y-4.9528
X4.8543Y-5.1496
X4.8543Y-5.3465
X4.8646Y-3.2093
X4.8646Y-3.2416
X4.8898Y-4.5748
X4.9035Y-1.7047
X4.9035Y-1.9016
X4.9035Y-2.0984
X4.9035Y-2.2953
X4.9035Y-2.4921
X4.9035Y-2.689
X4.9035Y-2.8858
X4.9035Y-3.0827
X4.9035Y-3.6732
X4.9035Y-4.2638
X4.9035Y-4.8543
X4.9035Y-5.248
X4.9035Y-5.4449
X4.9114Y-3.2472
X4.9232Y-4.9016
X4.9232Y-4.9803
X4.9528Y-1.6063
X4.9528Y-1.8031
X4.9528Y-2.0
X4.9528Y-2.1969
X4.9528Y-2.3937
X4.9528Y-2.5906
X4.9528Y-2.7874
X4.9528Y-2.9843
X4.9528Y-4.3622
X4.9528Y-4.9528
X4.9528Y-5.1496
X4.9528Y-5.3465
X4.9843Y-3.9921
X5.002Y-1.7047
X5.002Y-1.9016
X5.002Y-2.0984
X5.002Y-2.2953
X5.002Y-2.4921
X5.002Y-2.689
X5.002Y-2.8858
X5.002Y-3.0827
X5.002Y-3.2795
X5.002Y-3.4764
X5.002Y-4.2638
X5.002Y-4.8543
X5.002Y-5.248
X5.002Y-5.4449
X5.0236Y-4.0394
X5.0315Y-4.5512
X5.0512Y-1.6063
X5.0512Y-1.8031
X5.0512Y-2.0
X5.0512Y-2.1969
X5.0512Y-2.3937
X5.0512Y-2.5906
X5.0512Y-2.7874
X5.0512Y-2.9843
X5.0512Y-3.378
X5.0512Y-4.1654
X5.0512Y-4.9528
X5.0512Y-5.1496
X5.0591Y-4.7047
X5.0591Y-4.7441
X5.0591Y-4.7835
X5.0591Y-4.8228
X5.0646Y-3.9921
X5.0787Y-4.685
X5.0787Y-4.7244
X5.0787Y-4.7638
X5.0787Y-4.8031
X5.1004Y-1.7047
X5.1004Y-1.9016
X5.1004Y-2.0984
X5.1004Y-2.2953
X5.1004Y-2.4921
X5.1004Y-2.689
X5.1004Y-2.8858
X5.1004Y-3.4764
X5.1004Y-4.8543
X5.1004Y-5.248
X5.1004Y-5.4449
X5.1083Y-3.4305
X5.1496Y-1.6063
X5.1496Y-1.8031
X5.1496Y-2.0
X5.1496Y-2.1969
X5.1496Y-2.3937
X5.1496Y-2.5906
X5.1496Y-2.7874
X5.1496Y-2.9843
X5.1496Y-3.1811
X5.1656Y-3.108
X5.1811Y-4.4252
X5.1988Y-1.7047
X5.1988Y-1.9016
X5.1988Y-2.0984
X5.1988Y-2.2953
X5.1988Y-2.4921
X5.1988Y-2.689
X5.1988Y-2.8858
X5.1988Y-3.2795
X5.1988Y-4.0669
X5.1988Y-4.6575
X5.1988Y-4.8543
X5.1988Y-5.4449
X5.2057Y-4.5168
X5.2316Y-3.0757
X5.2316Y-3.108
X5.248Y-1.6063
X5.248Y-1.8031
X5.248Y-2.0
X5.248Y-2.1969
X5.248Y-2.3937
X5.248Y-2.5906
X5.248Y-2.7874
X5.248Y-4.7559
X5.248Y-4.9528
X5.248Y-5.1496
X5.2598Y-3.5039
X5.2598Y-3.9213
X5.2598Y-3.9685
X5.2677Y-3.3071
X5.2677Y-3.7795
X5.2718Y-4.4844
X5.2756Y-3.1102
X5.2756Y-3.5591
X5.2835Y-3.8976
X5.2835Y-3.9449
X5.2868Y-3.6802
X5.2913Y-3.4724
X5.2966Y-3.3558
X5.2972Y-1.7047
X5.2972Y-1.9016
X5.2972Y-2.0984
X5.2972Y-2.2953
X5.2972Y-2.4921
X5.2972Y-2.689
X5.2972Y-5.4449
X5.3071Y-3.5276
X5.3248Y-4.4398
X5.336Y-3.3558
X5.336Y-3.779
X5.3386Y-3.4961
X5.3386Y-3.8976
X5.3386Y-3.9291
X5.3386Y-3.9606
X5.3465Y-1.6063
X5.3465Y-1.8031
X5.3465Y-2.0
X5.3465Y-2.1969
X5.3465Y-2.3937
X5.3465Y-2.5906
X5.3465Y-2.7874
X5.3465Y-2.9843
X5.3465Y-4.5591
X5.3465Y-4.7559
X5.3465Y-4.9528
X5.3543Y-3.2205
X5.3543Y-5.0472
X5.3643Y-4.2147
X5.3701Y-3.315
X5.3957Y-1.7047
X5.3957Y-1.9016
X5.3957Y-2.0984
X5.3957Y-2.2953
X5.3957Y-2.4921
X5.3957Y-2.689
X5.3957Y-2.8858
X5.3957Y-3.0827
X5.3957Y-4.2638
X5.3957Y-4.4606
X5.3957Y-4.6575
X5.3957Y-4.8543
X5.3957Y-5.248
X5.3957Y-5.4449
X5.4252Y-3.2441
X5.4409Y-3.1339
X5.4449Y-1.6063
X5.4449Y-1.8031
X5.4449Y-2.0
X5.4449Y-2.1969
X5.4449Y-2.3937
X5.4449Y-2.5906
X5.4449Y-2.9843
X5.4449Y-4.5591
X5.4449Y-4.7559
X5.4449Y-4.9528
X5.4508Y-3.6181
X5.4567Y-3.7795
X5.4631Y-3.5912
X5.4745Y-4.1045
X5.4941Y-1.7047
X5.4941Y-1.9016
X5.4941Y-2.0984
X5.4941Y-2.2953
X5.4941Y-2.4921
X5.4941Y-2.689
X5.4941Y-2.8858
X5.4941Y-4.4606
X5.4941Y-4.6575
X5.4941Y-4.8543
X5.4941Y-5.248
X5.4941Y-5.4449
X5.5118Y-4.0941
X5.5118Y-4.2327
X5.5276Y-4.0551
X5.5433Y-1.6063
X5.5433Y-1.8031
X5.5433Y-2.0
X5.5433Y-2.1969
X5.5433Y-2.3937
X5.5433Y-2.5906
X5.5433Y-3.1811
X5.5433Y-3.378
X5.5433Y-3.5748
X5.5433Y-4.5591
X5.5433Y-4.7559
X5.552Y-3.6319
X5.5709Y-3.7295
X5.5748Y-3.0
X5.576Y-4.2378
X5.5906Y-3.4547
X5.5906Y-5.2362
X5.5925Y-1.7047
X5.5925Y-1.9016
X5.5925Y-2.0984
X5.5925Y-2.2953
X5.5925Y-2.4921
X5.5925Y-2.689
X5.5925Y-2.8858
X5.5925Y-3.0827
X5.5925Y-4.0669
X5.5925Y-4.4606
X5.5925Y-4.6575
X5.5925Y-5.4449
X5.5984Y-3.9528
X5.6102Y-3.435
X5.6142Y-3.6917
X5.6299Y-3.4547
X5.6299Y-3.8031
X5.6417Y-1.6063
X5.6417Y-1.8031
X5.6417Y-2.0
X5.6417Y-2.1969
X5.6417Y-2.3937
X5.6417Y-2.5906
X5.6417Y-3.1811
X5.6417Y-3.378
X5.6417Y-3.9685
X5.6417Y-4.7559
X5.6417Y-5.1496
X5.6496Y-3.435
X5.6614Y-3.6378
X5.6614Y-4.0787
X5.6693Y-3.4547
X5.6772Y-3.3661
X5.685Y-2.8898
X5.685Y-3.7402
X5.689Y-3.435
X5.6909Y-1.7047
X5.6909Y-1.9016
X5.6909Y-2.0984
X5.6909Y-2.2953
X5.6909Y-2.4921
X5.6909Y-2.689
X5.6909Y-3.0827
X5.6909Y-4.2638
X5.6909Y-4.6575
X5.6909Y-5.248
X5.6909Y-5.4449
X5.7165Y-3.3346
X5.7402Y-1.6063
X5.7402Y-1.8031
X5.7402Y-2.0
X5.7402Y-2.1969
X5.7402Y-2.3937
X5.7402Y-2.5906
X5.7402Y-3.1811
X5.7402Y-3.378
X5.7402Y-3.7717
X5.7402Y-3.9685
X5.7402Y-4.1654
X5.7402Y-4.5591
X5.7402Y-4.9528
X5.7402Y-5.1496
X5.7823Y-4.1874
X5.7823Y-4.2378
X5.7823Y-4.2878
X5.7874Y-3.3465
X5.7894Y-1.7047
X5.7894Y-1.9016
X5.7894Y-2.0984
X5.7894Y-2.2953
X5.7894Y-2.4921
X5.7894Y-2.689
X5.7894Y-3.0827
X5.7894Y-4.2638
X5.7894Y-5.0512
X5.7894Y-5.4449
X5.8263Y-2.8676
X5.8386Y-1.6063
X5.8386Y-1.8031
X5.8386Y-2.0
X5.8386Y-2.1969
X5.8386Y-2.3937
X5.8386Y-2.5906
X5.8386Y-3.1811
X5.8386Y-4.9528
X5.8386Y-5.1496
X5.8583Y-4.4803
X5.8661Y-3.0778
X5.8878Y-1.7047
X5.8878Y-1.9016
X5.8878Y-2.0984
X5.8878Y-2.2953
X5.8878Y-2.4921
X5.8878Y-2.689
X5.8878Y-4.8543
X5.8878Y-5.0512
X5.8878Y-5.4449
X5.8898Y-4.5591
X5.8922Y-2.8352
X5.8985Y-5.4035
X5.9213Y-4.4803
X5.926Y-5.3051
X5.937Y-1.6063
X5.937Y-1.8031
X5.937Y-2.0
X5.937Y-2.1969
X5.937Y-2.3937
X5.937Y-2.5906
X5.937Y-3.1811
X5.937Y-4.7559
X5.937Y-4.9528
X5.937Y-5.1496
X5.9449Y-2.8732
X5.9508Y-4.5555
X5.9546Y-3.3062
X5.9638Y-5.3051
X5.9644Y-5.3711
X5.9862Y-1.7047
X5.9862Y-1.9016
X5.9862Y-2.0984
X5.9862Y-2.2953
X5.9862Y-2.4921
X5.9862Y-5.4449
X6.0039Y-3.0778
X6.0138Y-3.3071
X6.0138Y-5.4126
X6.0236Y-4.0472
X6.0236Y-4.1024
X6.0236Y-4.1575
X6.0236Y-4.2126
X6.0236Y-4.2677
X6.0236Y-4.3858
X6.0236Y-4.4409
X6.0354Y-1.6063
X6.0354Y-1.8031
X6.0354Y-2.0
X6.0354Y-2.1969
X6.0354Y-2.3937
X6.0354Y-2.7874
X6.0354Y-2.9843
X6.0354Y-3.1811
X6.0354Y-5.3465
X6.0472Y-4.4882
X6.0551Y-4.5433
X6.0738Y-5.315
X6.0846Y-1.7047
X6.0846Y-1.9016
X6.0846Y-2.0984
X6.0846Y-2.2953
X6.0846Y-2.4921
X6.0846Y-2.689
X6.0846Y-2.8858
X6.0846Y-3.0827
X6.0846Y-5.4449
X6.1189Y-3.1299
X6.1339Y-1.6063
X6.1339Y-1.8031
X6.1339Y-2.0
X6.1339Y-2.1969
X6.1339Y-2.3937
X6.1339Y-2.9843
X6.1339Y-5.3465
X6.1496Y-3.622
X6.1575Y-4.1181
X6.1575Y-4.1811
X6.1575Y-4.252
X6.1575Y-4.2992
X6.1713Y-4.3858
X6.1713Y-4.4331
X6.1831Y-1.7047
X6.1831Y-1.9016
X6.1831Y-2.0984
X6.1831Y-2.2953
X6.1831Y-2.8858
X6.1831Y-5.4449
X6.2189Y-3.1299
X6.2323Y-1.6063
X6.2323Y-1.8031
X6.2323Y-2.0
X6.2323Y-2.1969
X6.2323Y-2.5906
X6.2323Y-2.7874
X6.2323Y-2.9843
X6.2323Y-5.3465
X6.2689Y-3.1299
X6.2815Y-1.7047
X6.2815Y-1.9016
X6.2815Y-2.0984
X6.2815Y-2.2953
X6.2815Y-2.4921
X6.2815Y-2.689
X6.2815Y-2.8858
X6.2815Y-5.4449
X6.2913Y-3.3701
X6.3189Y-3.1299
X6.3307Y-1.6063
X6.3307Y-1.8031
X6.3307Y-2.0
X6.3307Y-2.1969
X6.3307Y-2.7874
X6.3307Y-2.9843
X6.3307Y-3.7717
X6.3307Y-5.3465
X6.3465Y-3.7008
X6.3701Y-4.6929
X6.378Y-4.0709
X6.378Y-4.1969
X6.378Y-4.315
X6.378Y-4.4173
X6.378Y-4.5087
X6.378Y-4.5827
X6.378Y-4.6457
X6.3799Y-1.7047
X6.3799Y-1.9016
X6.3799Y-2.0984
X6.3799Y-2.2953
X6.3799Y-2.689
X6.3799Y-2.8858
X6.3799Y-3.0827
X6.3799Y-4.8543
X6.3799Y-5.0512
X6.3799Y-5.4449
X6.4016Y-4.8346
X6.4016Y-4.9528
X6.4291Y-1.6063
X6.4291Y-1.8031
X6.4291Y-2.0
X6.4291Y-2.1969
X6.4291Y-2.5906
X6.4291Y-2.7874
X6.4291Y-2.9843
X6.4291Y-3.1811
X6.4291Y-5.1496
X6.4291Y-5.3465
X6.4331Y-3.9449
X6.4577Y-3.8091
X6.4577Y-3.874
X6.4646Y-3.4803
X6.4783Y-1.7047
X6.4783Y-1.9016
X6.4783Y-2.0984
X6.4783Y-2.2953
X6.4783Y-2.4921
X6.4783Y-2.689
X6.4783Y-2.8858
X6.4783Y-3.0827
X6.4783Y-3.2795
X6.4783Y-5.4449
X6.4862Y-4.8543
X6.4862Y-5.0512
X6.5276Y-1.6063
X6.5276Y-1.8031
X6.5276Y-2.0
X6.5276Y-2.1969
X6.5276Y-2.5906
X6.5276Y-2.7874
X6.5276Y-2.9843
X6.5276Y-3.1811
X6.5276Y-3.378
X6.5354Y-4.9528
X6.5394Y-5.3744
X6.5768Y-1.7047
X6.5768Y-1.9016
X6.5768Y-2.0984
X6.5768Y-2.2953
X6.5768Y-2.4921
X6.5768Y-2.689
X6.5768Y-2.8858
X6.5768Y-3.0827
X6.5768Y-3.2795
X6.5768Y-5.248
X6.5787Y-3.4803
X6.5827Y-4.7008
X6.5827Y-4.8583
X6.5874Y-3.8661
X6.598Y-5.4118
X6.624Y-3.5787
X6.626Y-1.6063
X6.626Y-1.8031
X6.626Y-2.0
X6.626Y-2.1969
X6.626Y-2.5906
X6.626Y-2.7874
X6.626Y-2.9843
X6.626Y-3.1811
X6.626Y-4.3622
X6.626Y-4.5591
X6.626Y-4.7559
X6.626Y-4.9528
X6.626Y-5.3465
X6.628Y-3.3819
X6.6614Y-4.0551
X6.6752Y-1.7047
X6.6752Y-1.9016
X6.6752Y-2.0984
X6.6752Y-2.2953
X6.6752Y-2.4921
X6.6752Y-2.689
X6.6752Y-2.8858
X6.6752Y-3.0827
X6.6752Y-3.2795
X6.6752Y-3.8701
X6.6752Y-4.6575
X6.6752Y-5.0512
X6.6752Y-5.248
X6.6752Y-5.4449
X6.6762Y-4.3976
X6.6772Y-3.4803
X6.6886Y-4.189
X6.6886Y-4.2283
X6.6886Y-4.2677
X6.6886Y-4.3563
X6.6886Y-4.4449
X6.6886Y-4.4843
X6.6886Y-4.5236
X6.6898Y-4.311
X6.7224Y-3.5787
X6.7244Y-1.6063
X6.7244Y-1.8031
X6.7244Y-2.0
X6.7244Y-2.1969
X6.7244Y-2.5906
X6.7244Y-2.7874
X6.7244Y-2.9843
X6.7244Y-3.1811
X6.7244Y-3.378
X6.7244Y-3.7717
X6.7244Y-4.7559
X6.7244Y-4.9528
X6.7244Y-5.1496
X6.7244Y-5.3465
X6.7276Y-4.311
X6.7287Y-4.189
X6.7287Y-4.2283
X6.7287Y-4.2677
X6.7287Y-4.3563
X6.7287Y-4.4449
X6.7287Y-4.4843
X6.7287Y-4.5236
X6.7657Y-4.0591
X6.7736Y-1.7047
X6.7736Y-1.9016
X6.7736Y-2.0984
X6.7736Y-2.2953
X6.7736Y-2.4921
X6.7736Y-2.689
X6.7736Y-2.8858
X6.7736Y-3.0827
X6.7736Y-3.2795
X6.7736Y-3.4764
X6.7736Y-3.6732
X6.7736Y-3.8701
X6.7736Y-4.6575
X6.7736Y-5.0512
X6.7756Y-4.2638
X6.7756Y-4.4606
X6.7756Y-5.3744
X6.7824Y-4.8351
X6.8228Y-1.6063
X6.8228Y-1.8031
X6.8228Y-2.0
X6.8228Y-2.1969
X6.8228Y-2.5906
X6.8228Y-2.7874
X6.8228Y-2.9843
X6.8228Y-3.1811
X6.8228Y-3.378
X6.8228Y-3.5748
X6.8228Y-3.7717
X6.8228Y-4.1654
X6.8228Y-4.3622
X6.8228Y-4.5591
X6.8228Y-4.7559
X6.8228Y-4.9528
X6.8228Y-5.1496
X6.8268Y-3.9606
X6.8307Y-5.3642
X6.8583Y-4.063
X6.872Y-1.7047
X6.872Y-1.9016
X6.872Y-2.0984
X6.872Y-2.2953
X6.872Y-2.4921
X6.872Y-2.689
X6.872Y-2.8858
X6.872Y-3.0827
X6.872Y-3.2795
X6.872Y-3.4764
X6.872Y-3.6732
X6.872Y-3.8701
X6.872Y-4.2638
X6.872Y-4.4606
X6.872Y-4.6575
X6.872Y-5.0512
X6.872Y-5.248
X6.8926Y-4.7316
X6.8926Y-4.9359
X6.9193Y-3.9646
X6.9213Y-1.6063
X6.9213Y-1.8031
X6.9213Y-2.0
X6.9213Y-2.1969
X6.9213Y-2.5906
X6.9213Y-2.7874
X6.9213Y-2.9843
X6.9213Y-3.1811
X6.9213Y-3.378
X6.9213Y-3.5748
X6.9213Y-3.7717
X6.9213Y-4.1654
X6.9213Y-4.3622
X6.9213Y-4.5591
X6.9213Y-5.1496
X6.9213Y-5.3465
X6.9606Y-4.063
X6.9617Y-4.717
X6.9617Y-4.9729
X6.9685Y-3.874
X6.9705Y-1.7047
X6.9705Y-1.9016
X6.9705Y-2.0984
X6.9705Y-2.2953
X6.9705Y-2.4921
X6.9705Y-2.689
X6.9705Y-2.8858
X6.9705Y-3.0827
X6.9705Y-3.2795
X6.9705Y-3.4764
X6.9705Y-3.6732
X6.9705Y-4.2638
X6.9705Y-4.4606
X6.9705Y-5.0512
X6.9705Y-5.248
X6.9705Y-5.4449
X7.0156Y-2.4347
X7.0157Y-3.9685
X7.0157Y-4.1654
X7.0197Y-1.8031
X7.0197Y-2.0
X7.0197Y-2.1969
X7.0197Y-2.5906
X7.0197Y-2.7874
X7.0197Y-2.9843
X7.0197Y-3.1811
X7.0197Y-3.378
X7.0197Y-3.5748
X7.0197Y-3.7717
X7.0197Y-4.3622
X7.0197Y-4.5591
X7.0197Y-5.1496
X7.0689Y-1.9016
X7.0689Y-2.0984
X7.0689Y-2.2953
X7.0689Y-2.689
X7.0689Y-2.8858
X7.0689Y-3.0827
X7.0689Y-3.2795
X7.0689Y-3.4764
X7.0689Y-3.8701
X7.0689Y-4.0669
X7.0689Y-4.2638
X7.0689Y-4.4606
X7.0689Y-4.8543
X7.0689Y-5.0512
X7.0689Y-5.248
X7.0709Y-3.6772
X7.0815Y-2.4023
X7.1181Y-1.8031
X7.1181Y-2.0
X7.1181Y-2.1969
X7.1181Y-2.5906
X7.1181Y-2.7874
X7.1181Y-2.9843
X7.1181Y-3.1811
X7.1181Y-3.5748
X7.1181Y-3.7717
X7.1181Y-3.9685
X7.1181Y-4.3622
X7.1181Y-4.7559
X7.1181Y-4.9528
X7.1181Y-5.1496
X7.126Y-2.4402
X7.126Y-3.378
X7.1673Y-1.9016
X7.1673Y-2.0984
X7.1673Y-2.2953
X7.1673Y-2.4921
X7.1673Y-2.689
X7.1673Y-2.8858
X7.1673Y-3.0827
X7.1673Y-3.2795
X7.1673Y-3.4764
X7.1673Y-3.6732
X7.1673Y-3.8701
X7.1673Y-4.0669
X7.1673Y-4.2638
X7.1673Y-4.4606
X7.1673Y-4.8543
X7.1673Y-5.0512
X7.1673Y-5.248
T5
X3.5335Y-5.0886
X3.5335Y-5.1673
X4.811Y-5.3839
X4.8898Y-5.3839
X5.128Y-5.3839
X5.2067Y-5.3839
X5.2854Y-5.3839
X5.3642Y-5.3839
X5.4429Y-5.3839
X5.5217Y-5.3839
T6
X3.9469Y-5.3445
X4.1831Y-5.3445
T7
X2.4724Y-1.685
X2.4724Y-5.3937
X7.1102Y-1.685
X7.1102Y-5.3937
T4
G00X6.9761Y-4.6749
M15
G01X7.0194Y-4.6749
M16
G05
G00X6.9761Y-5.0151
M15
G01X7.0194Y-5.0151
M16
G05
G00X7.1505Y-4.6749
M15
G01X7.1741Y-4.6749
M16
G05
G00X7.1505Y-5.0151
M15
G01X7.1741Y-5.0151
M16
G05
M30
