M48
; DRILL file KiCad 10.0.3 date 2026-06-10T17:59:36
; FORMAT={-:-/ absolute / inch / decimal}
; #@! TF.CreationDate,2026-06-10T17:59:36-04:00
; #@! TF.GenerationSoftware,Kicad,Pcbnew,10.0.3
; #@! TF.FileFunction,NonPlated,1,4,NPTH
FMAT,2
INCH
; #@! TA.AperFunction,NonPlated,NPTH,ComponentDrill
T1C0.0197
; #@! TA.AperFunction,NonPlated,NPTH,ComponentDrill
T2C0.0256
; #@! TA.AperFunction,NonPlated,NPTH,ComponentDrill
T3C0.0394
%
G90
G05
T1
X2.4493Y-2.9063
X3.1143Y-5.3238
X3.3043Y-3.1515
X3.6737Y-4.4944
X3.7793Y-3.2877
X3.9845Y-4.0337
X4.3108Y-1.6798
X4.3384Y-2.4701
X4.3537Y-2.9092
X4.8316Y-3.2909
X4.8539Y-4.0735
X5.1986Y-3.1573
X5.2387Y-4.5661
X5.8593Y-2.9169
X5.9315Y-5.4528
X7.0486Y-2.484
T2
X7.0217Y-3.9256
X7.0217Y-4.1531
T3
X7.0955Y-3.3543
X7.0955Y-3.6693
M30
