%TF.GenerationSoftware,KiCad,Pcbnew,10.0.3*%
%TF.CreationDate,2026-06-17T22:06:16-04:00*%
%TF.ProjectId,Microphone board,4d696372-6f70-4686-9f6e-6520626f6172,rev?*%
%TF.SameCoordinates,Original*%
%TF.FileFunction,Paste,Bot*%
%TF.FilePolarity,Positive*%
%FSLAX46Y46*%
G04 Gerber Fmt 4.6, Leading zero omitted, Abs format (unit mm)*
G04 Created by KiCad (PCBNEW 10.0.3) date 2026-06-17 22:06:16*
%MOMM*%
%LPD*%
G01*
G04 APERTURE LIST*
G04 Aperture macros list*
%AMRoundRect*
0 Rectangle with rounded corners*
0 $1 Rounding radius*
0 $2 $3 $4 $5 $6 $7 $8 $9 X,Y pos of 4 corners*
0 Add a 4 corners polygon primitive as box body*
4,1,4,$2,$3,$4,$5,$6,$7,$8,$9,$2,$3,0*
0 Add four circle primitives for the rounded corners*
1,1,$1+$1,$2,$3*
1,1,$1+$1,$4,$5*
1,1,$1+$1,$6,$7*
1,1,$1+$1,$8,$9*
0 Add four rect primitives between the rounded corners*
20,1,$1+$1,$2,$3,$4,$5,0*
20,1,$1+$1,$4,$5,$6,$7,0*
20,1,$1+$1,$6,$7,$8,$9,0*
20,1,$1+$1,$8,$9,$2,$3,0*%
G04 Aperture macros list end*
%ADD10RoundRect,0.079500X0.079500X0.100500X-0.079500X0.100500X-0.079500X-0.100500X0.079500X-0.100500X0*%
%ADD11RoundRect,0.079500X-0.079500X-0.100500X0.079500X-0.100500X0.079500X0.100500X-0.079500X0.100500X0*%
%ADD12RoundRect,0.140000X-0.140000X-0.170000X0.140000X-0.170000X0.140000X0.170000X-0.140000X0.170000X0*%
%ADD13RoundRect,0.079500X-0.100500X0.079500X-0.100500X-0.079500X0.100500X-0.079500X0.100500X0.079500X0*%
%ADD14RoundRect,0.135000X-0.135000X-0.185000X0.135000X-0.185000X0.135000X0.185000X-0.135000X0.185000X0*%
%ADD15RoundRect,0.135000X0.135000X0.185000X-0.135000X0.185000X-0.135000X-0.185000X0.135000X-0.185000X0*%
%ADD16RoundRect,0.140000X0.170000X-0.140000X0.170000X0.140000X-0.170000X0.140000X-0.170000X-0.140000X0*%
%ADD17RoundRect,0.079500X0.100500X-0.079500X0.100500X0.079500X-0.100500X0.079500X-0.100500X-0.079500X0*%
%ADD18RoundRect,0.135000X0.185000X-0.135000X0.185000X0.135000X-0.185000X0.135000X-0.185000X-0.135000X0*%
%ADD19RoundRect,0.135000X-0.185000X0.135000X-0.185000X-0.135000X0.185000X-0.135000X0.185000X0.135000X0*%
G04 APERTURE END LIST*
D10*
%TO.C,C29*%
X156825000Y-94400000D03*
X156135000Y-94400000D03*
%TD*%
D11*
%TO.C,C25*%
X150375000Y-92800000D03*
X151065000Y-92800000D03*
%TD*%
D10*
%TO.C,C23*%
X160025000Y-89600000D03*
X159335000Y-89600000D03*
%TD*%
D11*
%TO.C,C12*%
X150375000Y-96800000D03*
X151065000Y-96800000D03*
%TD*%
%TO.C,C26*%
X150400000Y-92000000D03*
X151090000Y-92000000D03*
%TD*%
D12*
%TO.C,C88*%
X169920000Y-109500000D03*
X170880000Y-109500000D03*
%TD*%
D13*
%TO.C,C27*%
X155200000Y-91175000D03*
X155200000Y-91865000D03*
%TD*%
%TO.C,C36*%
X153600000Y-91175000D03*
X153600000Y-91865000D03*
%TD*%
D11*
%TO.C,C13*%
X150375000Y-95200000D03*
X151065000Y-95200000D03*
%TD*%
D14*
%TO.C,R1*%
X146240000Y-95000000D03*
X147260000Y-95000000D03*
%TD*%
D11*
%TO.C,C33*%
X150375000Y-93600000D03*
X151065000Y-93600000D03*
%TD*%
D10*
%TO.C,C28*%
X156825000Y-92800000D03*
X156135000Y-92800000D03*
%TD*%
D15*
%TO.C,R43*%
X170910000Y-110650000D03*
X169890000Y-110650000D03*
%TD*%
D16*
%TO.C,C68*%
X149750000Y-131730000D03*
X149750000Y-130770000D03*
%TD*%
D13*
%TO.C,C9*%
X156000000Y-97600000D03*
X156000000Y-98290000D03*
%TD*%
D11*
%TO.C,C22*%
X150375000Y-96000000D03*
X151065000Y-96000000D03*
%TD*%
D10*
%TO.C,C17*%
X156825000Y-93600000D03*
X156135000Y-93600000D03*
%TD*%
D15*
%TO.C,R45*%
X170910000Y-107400000D03*
X169890000Y-107400000D03*
%TD*%
D17*
%TO.C,C20*%
X152800000Y-97625000D03*
X152800000Y-96935000D03*
%TD*%
%TO.C,C16*%
X156000000Y-100825000D03*
X156000000Y-100135000D03*
%TD*%
D18*
%TO.C,R63*%
X151200000Y-115710000D03*
X151200000Y-114690000D03*
%TD*%
%TO.C,R62*%
X152000000Y-117710000D03*
X152000000Y-116690000D03*
%TD*%
D15*
%TO.C,R42*%
X170910000Y-112900000D03*
X169890000Y-112900000D03*
%TD*%
D13*
%TO.C,C34*%
X151200000Y-88000000D03*
X151200000Y-88690000D03*
%TD*%
D11*
%TO.C,C14*%
X147975000Y-92800000D03*
X148665000Y-92800000D03*
%TD*%
D18*
%TO.C,R65*%
X149600000Y-115710000D03*
X149600000Y-114690000D03*
%TD*%
D10*
%TO.C,C32*%
X160025000Y-92800000D03*
X159335000Y-92800000D03*
%TD*%
D15*
%TO.C,R44*%
X170910000Y-108400000D03*
X169890000Y-108400000D03*
%TD*%
D18*
%TO.C,R61*%
X148000000Y-117710000D03*
X148000000Y-116690000D03*
%TD*%
D15*
%TO.C,R41*%
X170910000Y-113900000D03*
X169890000Y-113900000D03*
%TD*%
D18*
%TO.C,R64*%
X150400000Y-113710000D03*
X150400000Y-112690000D03*
%TD*%
D15*
%TO.C,R47*%
X170910000Y-106400000D03*
X169890000Y-106400000D03*
%TD*%
D11*
%TO.C,C11*%
X147175000Y-96000000D03*
X147865000Y-96000000D03*
%TD*%
D19*
%TO.C,R67*%
X150500000Y-85945000D03*
X150500000Y-86965000D03*
%TD*%
D11*
%TO.C,C24*%
X147200000Y-88800000D03*
X147890000Y-88800000D03*
%TD*%
D10*
%TO.C,C31*%
X160025000Y-92000000D03*
X159335000Y-92000000D03*
%TD*%
%TO.C,C8*%
X156825000Y-96800000D03*
X156135000Y-96800000D03*
%TD*%
D17*
%TO.C,C19*%
X155200000Y-97625000D03*
X155200000Y-96935000D03*
%TD*%
%TO.C,C21*%
X152000000Y-97625000D03*
X152000000Y-96935000D03*
%TD*%
D10*
%TO.C,C18*%
X156825000Y-96000000D03*
X156135000Y-96000000D03*
%TD*%
D17*
%TO.C,C10*%
X154400000Y-97625000D03*
X154400000Y-96935000D03*
%TD*%
D11*
%TO.C,C35*%
X151175000Y-91200000D03*
X151865000Y-91200000D03*
%TD*%
%TO.C,C89*%
X159975000Y-98400000D03*
X160665000Y-98400000D03*
%TD*%
D10*
%TO.C,C30*%
X156825000Y-95200000D03*
X156135000Y-95200000D03*
%TD*%
D18*
%TO.C,R66*%
X148800000Y-113710000D03*
X148800000Y-112690000D03*
%TD*%
D15*
%TO.C,R46*%
X170910000Y-114900000D03*
X169890000Y-114900000D03*
%TD*%
M02*
