%TF.GenerationSoftware,KiCad,Pcbnew,10.0.3*%
%TF.CreationDate,2026-06-17T22:06:16-04:00*%
%TF.ProjectId,Microphone board,4d696372-6f70-4686-9f6e-6520626f6172,rev?*%
%TF.SameCoordinates,Original*%
%TF.FileFunction,Legend,Bot*%
%TF.FilePolarity,Positive*%
%FSLAX46Y46*%
G04 Gerber Fmt 4.6, Leading zero omitted, Abs format (unit mm)*
G04 Created by KiCad (PCBNEW 10.0.3) date 2026-06-17 22:06:16*
%MOMM*%
%LPD*%
G01*
G04 APERTURE LIST*
G04 Aperture macros list*
%AMRoundRect*
0 Rectangle with rounded corners*
0 $1 Rounding radius*
0 $2 $3 $4 $5 $6 $7 $8 $9 X,Y pos of 4 corners*
0 Add a 4 corners polygon primitive as box body*
4,1,4,$2,$3,$4,$5,$6,$7,$8,$9,$2,$3,0*
0 Add four circle primitives for the rounded corners*
1,1,$1+$1,$2,$3*
1,1,$1+$1,$4,$5*
1,1,$1+$1,$6,$7*
1,1,$1+$1,$8,$9*
0 Add four rect primitives between the rounded corners*
20,1,$1+$1,$2,$3,$4,$5,0*
20,1,$1+$1,$4,$5,$6,$7,0*
20,1,$1+$1,$6,$7,$8,$9,0*
20,1,$1+$1,$8,$9,$2,$3,0*%
G04 Aperture macros list end*
%ADD10C,0.400000*%
%ADD11C,0.120000*%
%ADD12C,5.600000*%
%ADD13C,0.500000*%
%ADD14RoundRect,0.250000X0.625000X-0.350000X0.625000X0.350000X-0.625000X0.350000X-0.625000X-0.350000X0*%
%ADD15O,1.750000X1.200000*%
%ADD16C,0.650000*%
%ADD17O,2.100000X1.000000*%
%ADD18O,1.600000X1.000000*%
%ADD19RoundRect,0.250000X1.325000X1.325000X-1.325000X1.325000X-1.325000X-1.325000X1.325000X-1.325000X0*%
%ADD20C,3.150000*%
%ADD21RoundRect,0.250000X-0.350000X-0.625000X0.350000X-0.625000X0.350000X0.625000X-0.350000X0.625000X0*%
%ADD22O,1.200000X1.750000*%
%ADD23C,1.000000*%
%ADD24RoundRect,0.100000X0.130000X0.100000X-0.130000X0.100000X-0.130000X-0.100000X0.130000X-0.100000X0*%
%ADD25RoundRect,0.100000X-0.130000X-0.100000X0.130000X-0.100000X0.130000X0.100000X-0.130000X0.100000X0*%
%ADD26RoundRect,0.140000X-0.140000X-0.170000X0.140000X-0.170000X0.140000X0.170000X-0.140000X0.170000X0*%
%ADD27RoundRect,0.100000X-0.100000X0.130000X-0.100000X-0.130000X0.100000X-0.130000X0.100000X0.130000X0*%
%ADD28RoundRect,0.135000X-0.135000X-0.185000X0.135000X-0.185000X0.135000X0.185000X-0.135000X0.185000X0*%
%ADD29RoundRect,0.135000X0.135000X0.185000X-0.135000X0.185000X-0.135000X-0.185000X0.135000X-0.185000X0*%
%ADD30RoundRect,0.140000X0.170000X-0.140000X0.170000X0.140000X-0.170000X0.140000X-0.170000X-0.140000X0*%
%ADD31RoundRect,0.100000X0.100000X-0.130000X0.100000X0.130000X-0.100000X0.130000X-0.100000X-0.130000X0*%
%ADD32RoundRect,0.135000X0.185000X-0.135000X0.185000X0.135000X-0.185000X0.135000X-0.185000X-0.135000X0*%
%ADD33RoundRect,0.135000X-0.185000X0.135000X-0.185000X-0.135000X0.185000X-0.135000X0.185000X0.135000X0*%
G04 APERTURE END LIST*
D10*
X63003080Y-73819705D02*
G75*
G02*
X61422462Y-73819705I-790309J0D01*
G01*
X61422462Y-73819705D02*
G75*
G02*
X63003080Y-73819705I790309J0D01*
G01*
X79893433Y-135225363D02*
G75*
G02*
X78312815Y-135225363I-790309J0D01*
G01*
X78312815Y-135225363D02*
G75*
G02*
X79893433Y-135225363I790309J0D01*
G01*
X84718862Y-80047980D02*
G75*
G02*
X83138244Y-80047980I-790309J0D01*
G01*
X83138244Y-80047980D02*
G75*
G02*
X84718862Y-80047980I790309J0D01*
G01*
X94106272Y-114155765D02*
G75*
G02*
X92525654Y-114155765I-790309J0D01*
G01*
X92525654Y-114155765D02*
G75*
G02*
X94106272Y-114155765I790309J0D01*
G01*
X96785032Y-83509033D02*
G75*
G02*
X95204414Y-83509033I-790309J0D01*
G01*
X95204414Y-83509033D02*
G75*
G02*
X96785032Y-83509033I790309J0D01*
G01*
X101996517Y-102453989D02*
G75*
G02*
X100415899Y-102453989I-790309J0D01*
G01*
X100415899Y-102453989D02*
G75*
G02*
X101996517Y-102453989I790309J0D01*
G01*
X110285381Y-42668699D02*
G75*
G02*
X108704763Y-42668699I-790309J0D01*
G01*
X108704763Y-42668699D02*
G75*
G02*
X110285381Y-42668699I790309J0D01*
G01*
X110989310Y-62741132D02*
G75*
G02*
X109408692Y-62741132I-790309J0D01*
G01*
X109408692Y-62741132D02*
G75*
G02*
X110989310Y-62741132I790309J0D01*
G01*
X111376783Y-73891907D02*
G75*
G02*
X109796165Y-73891907I-790309J0D01*
G01*
X109796165Y-73891907D02*
G75*
G02*
X111376783Y-73891907I790309J0D01*
G01*
X123513110Y-83591155D02*
G75*
G02*
X121932492Y-83591155I-790309J0D01*
G01*
X121932492Y-83591155D02*
G75*
G02*
X123513110Y-83591155I790309J0D01*
G01*
X124079666Y-103463599D02*
G75*
G02*
X122499048Y-103463599I-790309J0D01*
G01*
X122499048Y-103463599D02*
G75*
G02*
X124079666Y-103463599I790309J0D01*
G01*
X132835126Y-80198263D02*
G75*
G02*
X131254508Y-80198263I-790309J0D01*
G01*
X131254508Y-80198263D02*
G75*
G02*
X132835126Y-80198263I790309J0D01*
G01*
X133853225Y-115983925D02*
G75*
G02*
X132272607Y-115983925I-790309J0D01*
G01*
X132272607Y-115983925D02*
G75*
G02*
X133853225Y-115983925I790309J0D01*
G01*
X149615389Y-74089862D02*
G75*
G02*
X148034771Y-74089862I-790309J0D01*
G01*
X148034771Y-74089862D02*
G75*
G02*
X149615389Y-74089862I790309J0D01*
G01*
X151449400Y-138496673D02*
G75*
G02*
X149868782Y-138496673I-790309J0D01*
G01*
X149868782Y-138496673D02*
G75*
G02*
X151449400Y-138496673I790309J0D01*
G01*
X179823157Y-63094789D02*
G75*
G02*
X178242539Y-63094789I-790309J0D01*
G01*
X178242539Y-63094789D02*
G75*
G02*
X179823157Y-63094789I790309J0D01*
G01*
%TO.C,C88*%
D11*
X170292164Y-109140000D02*
X170507836Y-109140000D01*
X170292164Y-109860000D02*
X170507836Y-109860000D01*
%TO.C,R1*%
X146596359Y-94620000D02*
X146903641Y-94620000D01*
X146596359Y-95380000D02*
X146903641Y-95380000D01*
%TO.C,R43*%
X170553641Y-110270000D02*
X170246359Y-110270000D01*
X170553641Y-111030000D02*
X170246359Y-111030000D01*
%TO.C,C68*%
X149390000Y-131357836D02*
X149390000Y-131142164D01*
X150110000Y-131357836D02*
X150110000Y-131142164D01*
%TO.C,R45*%
X170553641Y-107020000D02*
X170246359Y-107020000D01*
X170553641Y-107780000D02*
X170246359Y-107780000D01*
%TO.C,R63*%
X150820000Y-115353641D02*
X150820000Y-115046359D01*
X151580000Y-115353641D02*
X151580000Y-115046359D01*
%TO.C,R62*%
X151620000Y-117353641D02*
X151620000Y-117046359D01*
X152380000Y-117353641D02*
X152380000Y-117046359D01*
%TO.C,R42*%
X170553641Y-112520000D02*
X170246359Y-112520000D01*
X170553641Y-113280000D02*
X170246359Y-113280000D01*
%TO.C,R65*%
X149220000Y-115353641D02*
X149220000Y-115046359D01*
X149980000Y-115353641D02*
X149980000Y-115046359D01*
%TO.C,R44*%
X170553641Y-108020000D02*
X170246359Y-108020000D01*
X170553641Y-108780000D02*
X170246359Y-108780000D01*
%TO.C,R61*%
X147620000Y-117353641D02*
X147620000Y-117046359D01*
X148380000Y-117353641D02*
X148380000Y-117046359D01*
%TO.C,R41*%
X170553641Y-113520000D02*
X170246359Y-113520000D01*
X170553641Y-114280000D02*
X170246359Y-114280000D01*
%TO.C,R64*%
X150020000Y-113353641D02*
X150020000Y-113046359D01*
X150780000Y-113353641D02*
X150780000Y-113046359D01*
%TO.C,R47*%
X170553641Y-106020000D02*
X170246359Y-106020000D01*
X170553641Y-106780000D02*
X170246359Y-106780000D01*
%TO.C,R67*%
X150120000Y-86301359D02*
X150120000Y-86608641D01*
X150880000Y-86301359D02*
X150880000Y-86608641D01*
%TO.C,R66*%
X148420000Y-113353641D02*
X148420000Y-113046359D01*
X149180000Y-113353641D02*
X149180000Y-113046359D01*
%TO.C,R46*%
X170553641Y-114520000D02*
X170246359Y-114520000D01*
X170553641Y-115280000D02*
X170246359Y-115280000D01*
%TD*%
%LPC*%
D12*
%TO.C,H2*%
X62800000Y-137000000D03*
%TD*%
D13*
%TO.C,M14*%
X123288169Y-103466360D03*
%TD*%
%TO.C,M7*%
X110584860Y-73893044D03*
%TD*%
D14*
%TO.C,TH1*%
X89750000Y-131250000D03*
D15*
X89750000Y-129250000D03*
%TD*%
D13*
%TO.C,M6*%
X109494452Y-42667852D03*
%TD*%
D16*
%TO.C,J4*%
X178272652Y-125952652D03*
X178272652Y-120172652D03*
D17*
X177742652Y-127382652D03*
D18*
X181922652Y-127382652D03*
D17*
X177742652Y-118742652D03*
D18*
X181922652Y-118742652D03*
%TD*%
D13*
%TO.C,M5*%
X110195447Y-62741736D03*
%TD*%
%TO.C,M13*%
X101206250Y-102455685D03*
%TD*%
D12*
%TO.C,H1*%
X62800000Y-42800000D03*
%TD*%
D19*
%TO.C,BT1*%
X106250000Y-135750000D03*
D20*
X100250000Y-135750000D03*
%TD*%
D13*
%TO.C,M3*%
X132044336Y-80196317D03*
%TD*%
%TO.C,M2*%
X148825449Y-74088491D03*
%TD*%
%TO.C,M16*%
X150659449Y-138500000D03*
%TD*%
%TO.C,M1*%
X179033753Y-63093568D03*
%TD*%
%TO.C,M12*%
X93312665Y-114158407D03*
%TD*%
%TO.C,M8*%
X95994061Y-83506392D03*
%TD*%
%TO.C,M11*%
X79103127Y-135224913D03*
%TD*%
%TO.C,M10*%
X83930009Y-80047080D03*
%TD*%
D21*
%TO.C,J5*%
X122200000Y-136750000D03*
D22*
X124200000Y-136750000D03*
%TD*%
D13*
%TO.C,M15*%
X133063147Y-115977762D03*
%TD*%
D21*
%TO.C,J6*%
X130250000Y-136750000D03*
D22*
X132250000Y-136750000D03*
X134250000Y-136750000D03*
X136250000Y-136750000D03*
X138250000Y-136750000D03*
X140250000Y-136750000D03*
%TD*%
D23*
%TO.C,J3*%
X180625000Y-113400000D03*
X180625000Y-105400000D03*
%TD*%
D12*
%TO.C,H4*%
X180600000Y-42800000D03*
%TD*%
%TO.C,H3*%
X180600000Y-137000000D03*
%TD*%
D13*
%TO.C,M9*%
X62213060Y-73819845D03*
%TD*%
%TO.C,M4*%
X122722206Y-83589294D03*
%TD*%
D24*
%TO.C,C29*%
X156800000Y-94400000D03*
X156160000Y-94400000D03*
%TD*%
D25*
%TO.C,C25*%
X150400000Y-92800000D03*
X151040000Y-92800000D03*
%TD*%
D24*
%TO.C,C23*%
X160000000Y-89600000D03*
X159360000Y-89600000D03*
%TD*%
D25*
%TO.C,C12*%
X150400000Y-96800000D03*
X151040000Y-96800000D03*
%TD*%
%TO.C,C26*%
X150425000Y-92000000D03*
X151065000Y-92000000D03*
%TD*%
D26*
%TO.C,C88*%
X169920000Y-109500000D03*
X170880000Y-109500000D03*
%TD*%
D27*
%TO.C,C27*%
X155200000Y-91200000D03*
X155200000Y-91840000D03*
%TD*%
%TO.C,C36*%
X153600000Y-91200000D03*
X153600000Y-91840000D03*
%TD*%
D25*
%TO.C,C13*%
X150400000Y-95200000D03*
X151040000Y-95200000D03*
%TD*%
D28*
%TO.C,R1*%
X146240000Y-95000000D03*
X147260000Y-95000000D03*
%TD*%
D25*
%TO.C,C33*%
X150400000Y-93600000D03*
X151040000Y-93600000D03*
%TD*%
D24*
%TO.C,C28*%
X156800000Y-92800000D03*
X156160000Y-92800000D03*
%TD*%
D29*
%TO.C,R43*%
X170910000Y-110650000D03*
X169890000Y-110650000D03*
%TD*%
D30*
%TO.C,C68*%
X149750000Y-131730000D03*
X149750000Y-130770000D03*
%TD*%
D27*
%TO.C,C9*%
X156000000Y-97625000D03*
X156000000Y-98265000D03*
%TD*%
D25*
%TO.C,C22*%
X150400000Y-96000000D03*
X151040000Y-96000000D03*
%TD*%
D24*
%TO.C,C17*%
X156800000Y-93600000D03*
X156160000Y-93600000D03*
%TD*%
D29*
%TO.C,R45*%
X170910000Y-107400000D03*
X169890000Y-107400000D03*
%TD*%
D31*
%TO.C,C20*%
X152800000Y-97600000D03*
X152800000Y-96960000D03*
%TD*%
%TO.C,C16*%
X156000000Y-100800000D03*
X156000000Y-100160000D03*
%TD*%
D32*
%TO.C,R63*%
X151200000Y-115710000D03*
X151200000Y-114690000D03*
%TD*%
%TO.C,R62*%
X152000000Y-117710000D03*
X152000000Y-116690000D03*
%TD*%
D29*
%TO.C,R42*%
X170910000Y-112900000D03*
X169890000Y-112900000D03*
%TD*%
D27*
%TO.C,C34*%
X151200000Y-88025000D03*
X151200000Y-88665000D03*
%TD*%
D25*
%TO.C,C14*%
X148000000Y-92800000D03*
X148640000Y-92800000D03*
%TD*%
D32*
%TO.C,R65*%
X149600000Y-115710000D03*
X149600000Y-114690000D03*
%TD*%
D24*
%TO.C,C32*%
X160000000Y-92800000D03*
X159360000Y-92800000D03*
%TD*%
D29*
%TO.C,R44*%
X170910000Y-108400000D03*
X169890000Y-108400000D03*
%TD*%
D32*
%TO.C,R61*%
X148000000Y-117710000D03*
X148000000Y-116690000D03*
%TD*%
D29*
%TO.C,R41*%
X170910000Y-113900000D03*
X169890000Y-113900000D03*
%TD*%
D32*
%TO.C,R64*%
X150400000Y-113710000D03*
X150400000Y-112690000D03*
%TD*%
D29*
%TO.C,R47*%
X170910000Y-106400000D03*
X169890000Y-106400000D03*
%TD*%
D25*
%TO.C,C11*%
X147200000Y-96000000D03*
X147840000Y-96000000D03*
%TD*%
D33*
%TO.C,R67*%
X150500000Y-85945000D03*
X150500000Y-86965000D03*
%TD*%
D25*
%TO.C,C24*%
X147225000Y-88800000D03*
X147865000Y-88800000D03*
%TD*%
D24*
%TO.C,C31*%
X160000000Y-92000000D03*
X159360000Y-92000000D03*
%TD*%
%TO.C,C8*%
X156800000Y-96800000D03*
X156160000Y-96800000D03*
%TD*%
D31*
%TO.C,C19*%
X155200000Y-97600000D03*
X155200000Y-96960000D03*
%TD*%
%TO.C,C21*%
X152000000Y-97600000D03*
X152000000Y-96960000D03*
%TD*%
D24*
%TO.C,C18*%
X156800000Y-96000000D03*
X156160000Y-96000000D03*
%TD*%
D31*
%TO.C,C10*%
X154400000Y-97600000D03*
X154400000Y-96960000D03*
%TD*%
D25*
%TO.C,C35*%
X151200000Y-91200000D03*
X151840000Y-91200000D03*
%TD*%
%TO.C,C89*%
X160000000Y-98400000D03*
X160640000Y-98400000D03*
%TD*%
D24*
%TO.C,C30*%
X156800000Y-95200000D03*
X156160000Y-95200000D03*
%TD*%
D32*
%TO.C,R66*%
X148800000Y-113710000D03*
X148800000Y-112690000D03*
%TD*%
D29*
%TO.C,R46*%
X170910000Y-114900000D03*
X169890000Y-114900000D03*
%TD*%
%LPD*%
M02*
