%TF.GenerationSoftware,KiCad,Pcbnew,10.0.3*%
%TF.CreationDate,2026-06-10T17:59:36-04:00*%
%TF.ProjectId,Microphone board,4d696372-6f70-4686-9f6e-6520626f6172,rev?*%
%TF.SameCoordinates,Original*%
%TF.FileFunction,Soldermask,Bot*%
%TF.FilePolarity,Negative*%
%FSLAX46Y46*%
G04 Gerber Fmt 4.6, Leading zero omitted, Abs format (unit mm)*
G04 Created by KiCad (PCBNEW 10.0.3) date 2026-06-10 17:59:36*
%MOMM*%
%LPD*%
G01*
G04 APERTURE LIST*
G04 Aperture macros list*
%AMRoundRect*
0 Rectangle with rounded corners*
0 $1 Rounding radius*
0 $2 $3 $4 $5 $6 $7 $8 $9 X,Y pos of 4 corners*
0 Add a 4 corners polygon primitive as box body*
4,1,4,$2,$3,$4,$5,$6,$7,$8,$9,$2,$3,0*
0 Add four circle primitives for the rounded corners*
1,1,$1+$1,$2,$3*
1,1,$1+$1,$4,$5*
1,1,$1+$1,$6,$7*
1,1,$1+$1,$8,$9*
0 Add four rect primitives between the rounded corners*
20,1,$1+$1,$2,$3,$4,$5,0*
20,1,$1+$1,$4,$5,$6,$7,0*
20,1,$1+$1,$6,$7,$8,$9,0*
20,1,$1+$1,$8,$9,$2,$3,0*%
G04 Aperture macros list end*
%ADD10C,5.600000*%
%ADD11C,0.500000*%
%ADD12RoundRect,0.250000X0.625000X-0.350000X0.625000X0.350000X-0.625000X0.350000X-0.625000X-0.350000X0*%
%ADD13O,1.750000X1.200000*%
%ADD14C,0.650000*%
%ADD15O,2.100000X1.000000*%
%ADD16O,1.600000X1.000000*%
%ADD17RoundRect,0.250000X1.325000X1.325000X-1.325000X1.325000X-1.325000X-1.325000X1.325000X-1.325000X0*%
%ADD18C,3.150000*%
%ADD19RoundRect,0.250000X-0.350000X-0.625000X0.350000X-0.625000X0.350000X0.625000X-0.350000X0.625000X0*%
%ADD20O,1.200000X1.750000*%
%ADD21C,1.000000*%
%ADD22RoundRect,0.100000X0.130000X0.100000X-0.130000X0.100000X-0.130000X-0.100000X0.130000X-0.100000X0*%
%ADD23RoundRect,0.100000X-0.130000X-0.100000X0.130000X-0.100000X0.130000X0.100000X-0.130000X0.100000X0*%
%ADD24RoundRect,0.140000X-0.140000X-0.170000X0.140000X-0.170000X0.140000X0.170000X-0.140000X0.170000X0*%
%ADD25RoundRect,0.100000X-0.100000X0.130000X-0.100000X-0.130000X0.100000X-0.130000X0.100000X0.130000X0*%
%ADD26RoundRect,0.135000X-0.135000X-0.185000X0.135000X-0.185000X0.135000X0.185000X-0.135000X0.185000X0*%
%ADD27RoundRect,0.135000X0.135000X0.185000X-0.135000X0.185000X-0.135000X-0.185000X0.135000X-0.185000X0*%
%ADD28RoundRect,0.140000X0.170000X-0.140000X0.170000X0.140000X-0.170000X0.140000X-0.170000X-0.140000X0*%
%ADD29RoundRect,0.100000X0.100000X-0.130000X0.100000X0.130000X-0.100000X0.130000X-0.100000X-0.130000X0*%
%ADD30RoundRect,0.135000X0.185000X-0.135000X0.185000X0.135000X-0.185000X0.135000X-0.185000X-0.135000X0*%
%ADD31RoundRect,0.135000X-0.185000X0.135000X-0.185000X-0.135000X0.185000X-0.135000X0.185000X0.135000X0*%
G04 APERTURE END LIST*
D10*
%TO.C,H2*%
X62800000Y-137000000D03*
%TD*%
D11*
%TO.C,M14*%
X123288169Y-103466360D03*
%TD*%
%TO.C,M7*%
X110584860Y-73893044D03*
%TD*%
D12*
%TO.C,TH1*%
X89750000Y-131250000D03*
D13*
X89750000Y-129250000D03*
%TD*%
D11*
%TO.C,M6*%
X109494452Y-42667852D03*
%TD*%
D14*
%TO.C,J4*%
X178350000Y-105490000D03*
X178350000Y-99710000D03*
D15*
X177820000Y-106920000D03*
D16*
X182000000Y-106920000D03*
D15*
X177820000Y-98280000D03*
D16*
X182000000Y-98280000D03*
%TD*%
D11*
%TO.C,M5*%
X110195447Y-62741736D03*
%TD*%
%TO.C,M13*%
X101206250Y-102455685D03*
%TD*%
D10*
%TO.C,H1*%
X62800000Y-42800000D03*
%TD*%
D17*
%TO.C,BT1*%
X106250000Y-135750000D03*
D18*
X100250000Y-135750000D03*
%TD*%
D11*
%TO.C,M3*%
X132044336Y-80196317D03*
%TD*%
%TO.C,M2*%
X148825449Y-74088491D03*
%TD*%
%TO.C,M16*%
X150659449Y-138500000D03*
%TD*%
%TO.C,M1*%
X179033753Y-63093568D03*
%TD*%
%TO.C,M12*%
X93312665Y-114158407D03*
%TD*%
%TO.C,M8*%
X95994061Y-83506392D03*
%TD*%
%TO.C,M11*%
X79103127Y-135224913D03*
%TD*%
%TO.C,M10*%
X83930009Y-80047080D03*
%TD*%
D19*
%TO.C,J5*%
X122200000Y-136750000D03*
D20*
X124200000Y-136750000D03*
%TD*%
D11*
%TO.C,M15*%
X133063147Y-115977762D03*
%TD*%
D19*
%TO.C,J6*%
X130250000Y-136750000D03*
D20*
X132250000Y-136750000D03*
X134250000Y-136750000D03*
X136250000Y-136750000D03*
X138250000Y-136750000D03*
X140250000Y-136750000D03*
%TD*%
D21*
%TO.C,J3*%
X180225000Y-93200000D03*
X180225000Y-85200000D03*
%TD*%
D10*
%TO.C,H4*%
X180600000Y-42800000D03*
%TD*%
%TO.C,H3*%
X180600000Y-137000000D03*
%TD*%
D11*
%TO.C,M9*%
X62213060Y-73819845D03*
%TD*%
%TO.C,M4*%
X122722206Y-83589294D03*
%TD*%
D22*
%TO.C,C29*%
X156800000Y-94400000D03*
X156160000Y-94400000D03*
%TD*%
D23*
%TO.C,C25*%
X150400000Y-92800000D03*
X151040000Y-92800000D03*
%TD*%
D22*
%TO.C,C23*%
X160000000Y-89600000D03*
X159360000Y-89600000D03*
%TD*%
D23*
%TO.C,C12*%
X150400000Y-96800000D03*
X151040000Y-96800000D03*
%TD*%
%TO.C,C26*%
X150425000Y-92000000D03*
X151065000Y-92000000D03*
%TD*%
D24*
%TO.C,C88*%
X169520000Y-89300000D03*
X170480000Y-89300000D03*
%TD*%
D25*
%TO.C,C27*%
X155200000Y-91200000D03*
X155200000Y-91840000D03*
%TD*%
%TO.C,C36*%
X153600000Y-91200000D03*
X153600000Y-91840000D03*
%TD*%
D23*
%TO.C,C13*%
X150400000Y-95200000D03*
X151040000Y-95200000D03*
%TD*%
D26*
%TO.C,R1*%
X146240000Y-95000000D03*
X147260000Y-95000000D03*
%TD*%
D23*
%TO.C,C33*%
X150400000Y-93600000D03*
X151040000Y-93600000D03*
%TD*%
D22*
%TO.C,C28*%
X156800000Y-92800000D03*
X156160000Y-92800000D03*
%TD*%
D27*
%TO.C,R43*%
X170510000Y-90450000D03*
X169490000Y-90450000D03*
%TD*%
D28*
%TO.C,C68*%
X149750000Y-131730000D03*
X149750000Y-130770000D03*
%TD*%
D25*
%TO.C,C9*%
X156000000Y-97625000D03*
X156000000Y-98265000D03*
%TD*%
D23*
%TO.C,C22*%
X150400000Y-96000000D03*
X151040000Y-96000000D03*
%TD*%
D22*
%TO.C,C17*%
X156800000Y-93600000D03*
X156160000Y-93600000D03*
%TD*%
D27*
%TO.C,R45*%
X170510000Y-87200000D03*
X169490000Y-87200000D03*
%TD*%
D29*
%TO.C,C20*%
X152800000Y-97600000D03*
X152800000Y-96960000D03*
%TD*%
%TO.C,C16*%
X156000000Y-100800000D03*
X156000000Y-100160000D03*
%TD*%
D30*
%TO.C,R63*%
X151200000Y-115710000D03*
X151200000Y-114690000D03*
%TD*%
%TO.C,R62*%
X152000000Y-117710000D03*
X152000000Y-116690000D03*
%TD*%
D27*
%TO.C,R42*%
X170510000Y-92700000D03*
X169490000Y-92700000D03*
%TD*%
D25*
%TO.C,C34*%
X151200000Y-88025000D03*
X151200000Y-88665000D03*
%TD*%
D23*
%TO.C,C14*%
X148000000Y-92800000D03*
X148640000Y-92800000D03*
%TD*%
D30*
%TO.C,R65*%
X149600000Y-115710000D03*
X149600000Y-114690000D03*
%TD*%
D22*
%TO.C,C32*%
X160000000Y-92800000D03*
X159360000Y-92800000D03*
%TD*%
D27*
%TO.C,R44*%
X170510000Y-88200000D03*
X169490000Y-88200000D03*
%TD*%
D30*
%TO.C,R61*%
X148000000Y-117710000D03*
X148000000Y-116690000D03*
%TD*%
D27*
%TO.C,R41*%
X170510000Y-93700000D03*
X169490000Y-93700000D03*
%TD*%
D30*
%TO.C,R64*%
X150400000Y-113710000D03*
X150400000Y-112690000D03*
%TD*%
D27*
%TO.C,R47*%
X170510000Y-86200000D03*
X169490000Y-86200000D03*
%TD*%
D23*
%TO.C,C11*%
X147200000Y-96000000D03*
X147840000Y-96000000D03*
%TD*%
D31*
%TO.C,R67*%
X150500000Y-85945000D03*
X150500000Y-86965000D03*
%TD*%
D23*
%TO.C,C24*%
X147225000Y-88800000D03*
X147865000Y-88800000D03*
%TD*%
D22*
%TO.C,C31*%
X160000000Y-92000000D03*
X159360000Y-92000000D03*
%TD*%
%TO.C,C8*%
X156800000Y-96800000D03*
X156160000Y-96800000D03*
%TD*%
D29*
%TO.C,C19*%
X155200000Y-97600000D03*
X155200000Y-96960000D03*
%TD*%
%TO.C,C21*%
X152000000Y-97600000D03*
X152000000Y-96960000D03*
%TD*%
D22*
%TO.C,C18*%
X156800000Y-96000000D03*
X156160000Y-96000000D03*
%TD*%
D29*
%TO.C,C10*%
X154400000Y-97600000D03*
X154400000Y-96960000D03*
%TD*%
D23*
%TO.C,C35*%
X151200000Y-91200000D03*
X151840000Y-91200000D03*
%TD*%
%TO.C,C89*%
X160000000Y-98400000D03*
X160640000Y-98400000D03*
%TD*%
D22*
%TO.C,C30*%
X156800000Y-95200000D03*
X156160000Y-95200000D03*
%TD*%
D30*
%TO.C,R66*%
X148800000Y-113710000D03*
X148800000Y-112690000D03*
%TD*%
D27*
%TO.C,R46*%
X170510000Y-94700000D03*
X169490000Y-94700000D03*
%TD*%
M02*
